WixMadeforText-SemiBold.ufo
<glyph name="exclam" format="1">
  <advance width="263"/>
  <unicode hex="0021"/>
  <outline>
    <contour>
      <point x="164" y="219" type="line"/>
      <point x="170" y="282"/>
      <point x="198" y="636"/>
      <point x="198" y="657" type="curve" smooth="yes"/>
      <point x="198" y="703"/>
      <point x="169" y="731"/>
      <point x="131" y="731" type="curve"/>
      <point x="95" y="731"/>
      <point x="65" y="703"/>
      <point x="65" y="657" type="curve" smooth="yes"/>
      <point x="65" y="636"/>
      <point x="92" y="282"/>
      <point x="99" y="219" type="curve"/>
    </contour>
    <contour>
      <point x="131" y="-12" type="curve" smooth="yes"/>
      <point x="175" y="-12"/>
      <point x="208" y="20"/>
      <point x="208" y="64" type="curve" smooth="yes"/>
      <point x="208" y="108"/>
      <point x="175" y="141"/>
      <point x="131" y="141" type="curve" smooth="yes"/>
      <point x="88" y="141"/>
      <point x="55" y="108"/>
      <point x="55" y="64" type="curve" smooth="yes"/>
      <point x="55" y="20"/>
      <point x="88" y="-12"/>
    </contour>
  </outline>
</glyph>
<glyph name="numbersign" format="1">
  <advance width="646"/>
  <unicode hex="0023"/>
  <outline>
    <contour>
      <point x="426" y="0" type="line"/>
      <point x="569" y="715" type="line"/>
      <point x="466" y="715" type="line"/>
      <point x="323" y="0" type="line"/>
    </contour>
    <contour>
      <point x="541" y="175" type="line"/>
      <point x="560" y="266" type="line"/>
      <point x="49" y="266" type="line"/>
      <point x="30" y="175" type="line"/>
    </contour>
    <contour>
      <point x="180" y="0" type="line"/>
      <point x="323" y="715" type="line"/>
      <point x="220" y="715" type="line"/>
      <point x="77" y="0" type="line"/>
    </contour>
    <contour>
      <point x="596" y="449" type="line"/>
      <point x="615" y="540" type="line"/>
      <point x="105" y="540" type="line"/>
      <point x="86" y="449" type="line"/>
    </contour>
  </outline>
</glyph>
<glyph name="dollar" format="2">
	<unicode hex="0024"/>
	<advance width="632"/>
	<outline>
		<contour>
			<point x="50" y="120" type="line"/>
			<point x="115" y="38"/>
			<point x="210" y="-6"/>
			<point x="320" y="-6" type="curve" smooth="yes"/>
			<point x="478" y="-6"/>
			<point x="582" y="83"/>
			<point x="582" y="207" type="curve" smooth="yes"/>
			<point x="582" y="326"/>
			<point x="508" y="386"/>
			<point x="326" y="416" type="curve" smooth="yes"/>
			<point x="223" y="433"/>
			<point x="180" y="462"/>
			<point x="180" y="522" type="curve" smooth="yes"/>
			<point x="180" y="582"/>
			<point x="234" y="624"/>
			<point x="314" y="624" type="curve" smooth="yes"/>
			<point x="383" y="624"/>
			<point x="442" y="589"/>
			<point x="488" y="522" type="curve"/>
			<point x="562" y="595" type="line"/>
			<point x="500" y="676"/>
			<point x="415" y="721"/>
			<point x="318" y="721" type="curve" smooth="yes"/>
			<point x="175" y="721"/>
			<point x="71" y="636"/>
			<point x="71" y="519" type="curve" smooth="yes"/>
			<point x="71" y="406"/>
			<point x="143" y="344"/>
			<point x="307" y="315" type="curve" smooth="yes"/>
			<point x="428" y="294"/>
			<point x="472" y="264"/>
			<point x="472" y="202" type="curve" smooth="yes"/>
			<point x="472" y="135"/>
			<point x="415" y="90"/>
			<point x="321" y="90" type="curve" smooth="yes"/>
			<point x="243" y="90"/>
			<point x="174" y="126"/>
			<point x="123" y="193" type="curve"/>
		</contour>
		<contour>
			<point x="357" y="373" type="line"/>
			<point x="357" y="831" type="line"/>
			<point x="292" y="831" type="line"/>
			<point x="292" y="373" type="line"/>
		</contour>
		<contour>
			<point x="353" y="-116" type="line"/>
			<point x="353" y="363" type="line"/>
			<point x="288" y="363" type="line"/>
			<point x="288" y="-116" type="line"/>
		</contour>
	</outline>
</glyph>
<glyph name="ampersand" format="2">
	<unicode hex="0026"/>
	<advance width="665"/>
	<outline>
		<contour>
			<point x="642" y="296" type="line"/>
			<point x="557" y="356" type="line"/>
			<point x="445" y="185" type="line" smooth="yes"/>
			<point x="397" y="110"/>
			<point x="343" y="79"/>
			<point x="284" y="79" type="curve" smooth="yes"/>
			<point x="209" y="79"/>
			<point x="163" y="125"/>
			<point x="163" y="193" type="curve" smooth="yes"/>
			<point x="163" y="263"/>
			<point x="200" y="311"/>
			<point x="288" y="342" type="curve"/>
			<point x="269" y="417" type="line"/>
			<point x="112" y="365"/>
			<point x="42" y="294"/>
			<point x="42" y="188" type="curve" smooth="yes"/>
			<point x="42" y="67"/>
			<point x="136" y="-16"/>
			<point x="278" y="-16" type="curve" smooth="yes"/>
			<point x="390" y="-16"/>
			<point x="467" y="30"/>
			<point x="543" y="147" type="curve" smooth="yes"/>
		</contour>
		<contour>
			<point x="660" y="67" type="line"/>
			<point x="332" y="385" type="line"/>
			<point x="312" y="403" type="line" smooth="yes"/>
			<point x="235" y="474"/>
			<point x="215" y="508"/>
			<point x="215" y="555" type="curve" smooth="yes"/>
			<point x="215" y="604"/>
			<point x="251" y="640"/>
			<point x="301" y="640" type="curve" smooth="yes"/>
			<point x="350" y="640"/>
			<point x="386" y="603"/>
			<point x="386" y="550" type="curve" smooth="yes"/>
			<point x="386" y="493"/>
			<point x="348" y="449"/>
			<point x="272" y="423" type="curve"/>
			<point x="292" y="347" type="line"/>
			<point x="416" y="384"/>
			<point x="492" y="461"/>
			<point x="492" y="553" type="curve" smooth="yes"/>
			<point x="492" y="656"/>
			<point x="408" y="731"/>
			<point x="297" y="731" type="curve" smooth="yes"/>
			<point x="186" y="731"/>
			<point x="106" y="654"/>
			<point x="106" y="552" type="curve" smooth="yes"/>
			<point x="106" y="484"/>
			<point x="135" y="434"/>
			<point x="216" y="357" type="curve"/>
			<point x="234" y="341" type="line"/>
			<point x="590" y="-10" type="line"/>
		</contour>
	</outline>
</glyph>
<glyph name="quotesingle" format="2">
	<unicode hex="0027"/>
	<advance width="261"/>
	<outline>
		<contour>
			<point x="152" y="461" type="line"/>
			<point x="172" y="553"/>
			<point x="187" y="650"/>
			<point x="187" y="684" type="curve" smooth="yes"/>
			<point x="187" y="720"/>
			<point x="161" y="744"/>
			<point x="131" y="744" type="curve" smooth="yes"/>
			<point x="100" y="744"/>
			<point x="74" y="720"/>
			<point x="74" y="684" type="curve" smooth="yes"/>
			<point x="74" y="650"/>
			<point x="89" y="553"/>
			<point x="109" y="461" type="curve"/>
		</contour>
	</outline>
</glyph>
<glyph name="parenleft" format="1">
  <advance width="346"/>
  <unicode hex="0028"/>
  <outline>
    <contour>
      <point x="311" y="-129" type="line"/>
      <point x="219" y="10"/>
      <point x="177" y="154"/>
      <point x="177" y="304" type="curve" smooth="yes"/>
      <point x="177" y="456"/>
      <point x="219" y="591"/>
      <point x="310" y="731" type="curve"/>
      <point x="195" y="731" type="line"/>
      <point x="107" y="608"/>
      <point x="62" y="463"/>
      <point x="62" y="304" type="curve" smooth="yes"/>
      <point x="62" y="143"/>
      <point x="107" y="-6"/>
      <point x="196" y="-129" type="curve"/>
    </contour>
  </outline>
</glyph>
<glyph name="parenright" format="2">
	<unicode hex="0029"/>
	<advance width="346"/>
	<outline>
		<contour>
			<point x="35" y="-129" type="line"/>
			<point x="127" y="10"/>
			<point x="168" y="154"/>
			<point x="168" y="304" type="curve" smooth="yes"/>
			<point x="168" y="456"/>
			<point x="127" y="591"/>
			<point x="35" y="731" type="curve"/>
			<point x="151" y="731" type="line"/>
			<point x="239" y="608"/>
			<point x="284" y="463"/>
			<point x="284" y="304" type="curve" smooth="yes"/>
			<point x="284" y="143"/>
			<point x="239" y="-6"/>
			<point x="150" y="-129" type="curve"/>
		</contour>
	</outline>
</glyph>
<glyph name="asterisk" format="1">
  <advance width="414"/>
  <unicode hex="002A"/>
  <outline>
    <contour>
      <point x="296" y="346" type="curve" smooth="yes"/>
      <point x="320" y="346"/>
      <point x="342" y="367"/>
      <point x="342" y="390" type="curve" smooth="yes"/>
      <point x="342" y="402"/>
      <point x="338" y="413"/>
      <point x="330" y="425" type="curve" smooth="yes"/>
      <point x="318" y="442"/>
      <point x="279" y="480"/>
      <point x="240" y="512" type="curve"/>
      <point x="291" y="515"/>
      <point x="337" y="520"/>
      <point x="356" y="527" type="curve" smooth="yes"/>
      <point x="378" y="533"/>
      <point x="391" y="551"/>
      <point x="391" y="571" type="curve" smooth="yes"/>
      <point x="391" y="599"/>
      <point x="373" y="619"/>
      <point x="348" y="619" type="curve" smooth="yes"/>
      <point x="340" y="619"/>
      <point x="332" y="618"/>
      <point x="323" y="614" type="curve" smooth="yes"/>
      <point x="304" y="607"/>
      <point x="270" y="585"/>
      <point x="228" y="553" type="curve"/>
      <point x="242" y="604"/>
      <point x="252" y="660"/>
      <point x="252" y="682" type="curve" smooth="yes"/>
      <point x="252" y="712"/>
      <point x="235" y="731"/>
      <point x="207" y="731" type="curve" smooth="yes"/>
      <point x="180" y="731"/>
      <point x="162" y="712"/>
      <point x="162" y="682" type="curve" smooth="yes"/>
      <point x="162" y="660"/>
      <point x="173" y="604"/>
      <point x="187" y="553" type="curve"/>
      <point x="144" y="585"/>
      <point x="110" y="607"/>
      <point x="92" y="614" type="curve" smooth="yes"/>
      <point x="82" y="618"/>
      <point x="75" y="619"/>
      <point x="66" y="619" type="curve" smooth="yes"/>
      <point x="42" y="619"/>
      <point x="23" y="599"/>
      <point x="23" y="571" type="curve" smooth="yes"/>
      <point x="23" y="551"/>
      <point x="36" y="533"/>
      <point x="58" y="527" type="curve" smooth="yes"/>
      <point x="78" y="520"/>
      <point x="124" y="515"/>
      <point x="174" y="512" type="curve"/>
      <point x="135" y="480"/>
      <point x="96" y="442"/>
      <point x="85" y="425" type="curve" smooth="yes"/>
      <point x="77" y="413"/>
      <point x="72" y="402"/>
      <point x="72" y="390" type="curve" smooth="yes"/>
      <point x="72" y="367"/>
      <point x="94" y="346"/>
      <point x="118" y="346" type="curve" smooth="yes"/>
      <point x="133" y="346"/>
      <point x="146" y="352"/>
      <point x="156" y="368" type="curve" smooth="yes"/>
      <point x="168" y="385"/>
      <point x="190" y="438"/>
      <point x="207" y="487" type="curve"/>
      <point x="224" y="438"/>
      <point x="247" y="385"/>
      <point x="258" y="368" type="curve" smooth="yes"/>
      <point x="269" y="352"/>
      <point x="282" y="346"/>
    </contour>
  </outline>
</glyph>
<glyph name="plus" format="2">
	<unicode hex="002B"/>
	<advance width="632"/>
	<outline>
		<contour>
			<point x="269" y="151" type="line"/>
			<point x="363" y="151" type="line"/>
			<point x="363" y="310" type="line"/>
			<point x="518" y="310" type="line"/>
			<point x="518" y="405" type="line"/>
			<point x="363" y="405" type="line"/>
			<point x="363" y="564" type="line"/>
			<point x="269" y="564" type="line"/>
			<point x="269" y="405" type="line"/>
			<point x="114" y="405" type="line"/>
			<point x="114" y="310" type="line"/>
			<point x="269" y="310" type="line"/>
		</contour>
	</outline>
</glyph>
<glyph name="comma" format="2">
	<unicode hex="002C"/>
	<advance width="263"/>
	<outline>
		<contour>
			<point x="119" y="-149" type="line"/>
			<point x="173" y="-90"/>
			<point x="208" y="-9"/>
			<point x="208" y="60" type="curve" smooth="yes"/>
			<point x="208" y="107"/>
			<point x="177" y="141"/>
			<point x="132" y="141" type="curve" smooth="yes"/>
			<point x="87" y="141"/>
			<point x="55" y="108"/>
			<point x="55" y="64" type="curve" smooth="yes"/>
			<point x="55" y="20"/>
			<point x="88" y="-12"/>
			<point x="132" y="-12" type="curve"/>
			<point x="119" y="29" type="line"/>
			<point x="119" y="-29"/>
			<point x="95" y="-88"/>
			<point x="47" y="-149" type="curve"/>
		</contour>
	</outline>
</glyph>
<glyph name="hyphen" format="1">
  <advance width="323"/>
  <unicode hex="002D"/>
  <outline>
    <contour>
      <point x="292" y="225" type="line"/>
      <point x="292" y="326" type="line"/>
      <point x="31" y="326" type="line"/>
      <point x="31" y="225" type="line"/>
    </contour>
  </outline>
</glyph>
<glyph name="period" format="1">
  <advance width="263"/>
  <unicode hex="002E"/>
  <outline>
    <contour>
      <point x="131" y="-12" type="curve" smooth="yes"/>
      <point x="175" y="-12"/>
      <point x="208" y="20"/>
      <point x="208" y="64" type="curve" smooth="yes"/>
      <point x="208" y="108"/>
      <point x="175" y="141"/>
      <point x="131" y="141" type="curve" smooth="yes"/>
      <point x="88" y="141"/>
      <point x="55" y="108"/>
      <point x="55" y="64" type="curve" smooth="yes"/>
      <point x="55" y="20"/>
      <point x="88" y="-12"/>
    </contour>
  </outline>
</glyph>
<glyph name="slash" format="2">
	<unicode hex="002F"/>
	<advance width="490"/>
	<outline>
		<contour>
			<point x="165" y="0" type="line"/>
			<point x="438" y="731" type="line"/>
			<point x="324" y="731" type="line"/>
			<point x="52" y="0" type="line"/>
		</contour>
	</outline>
</glyph>
<glyph name="zero" format="2">
	<unicode hex="0030"/>
	<advance width="636"/>
	<outline>
		<contour>
			<point x="318" y="82" type="curve" smooth="yes"/>
			<point x="227" y="82"/>
			<point x="175" y="178"/>
			<point x="175" y="358" type="curve" smooth="yes"/>
			<point x="175" y="537"/>
			<point x="227" y="633"/>
			<point x="318" y="633" type="curve" smooth="yes"/>
			<point x="409" y="633"/>
			<point x="462" y="537"/>
			<point x="462" y="358" type="curve" smooth="yes"/>
			<point x="462" y="178"/>
			<point x="409" y="82"/>
		</contour>
		<contour>
			<point x="318" y="-16" type="curve" smooth="yes"/>
			<point x="483" y="-16"/>
			<point x="582" y="122"/>
			<point x="582" y="358" type="curve" smooth="yes"/>
			<point x="582" y="594"/>
			<point x="483" y="731"/>
			<point x="318" y="731" type="curve" smooth="yes"/>
			<point x="153" y="731"/>
			<point x="54" y="594"/>
			<point x="54" y="358" type="curve" smooth="yes"/>
			<point x="54" y="122"/>
			<point x="153" y="-16"/>
		</contour>
	</outline>
</glyph>
<glyph name="one" format="2">
	<unicode hex="0031"/>
	<advance width="499"/>
	<outline>
		<contour>
			<point x="268" y="715" type="line"/>
			<point x="83" y="582" type="line"/>
			<point x="83" y="461" type="line"/>
			<point x="252" y="588" type="line"/>
			<point x="252" y="0" type="line"/>
			<point x="371" y="0" type="line"/>
			<point x="371" y="715" type="line"/>
		</contour>
	</outline>
</glyph>
<glyph name="two" format="1">
  <advance width="557"/>
  <unicode hex="0032"/>
  <outline>
    <contour>
      <point x="520" y="0" type="line"/>
      <point x="520" y="97" type="line"/>
      <point x="202" y="97" type="line"/>
      <point x="350" y="242" type="line" smooth="yes"/>
      <point x="479" y="366"/>
      <point x="519" y="430"/>
      <point x="519" y="524" type="curve" smooth="yes"/>
      <point x="519" y="649"/>
      <point x="427" y="731"/>
      <point x="287" y="731" type="curve" smooth="yes"/>
      <point x="188" y="731"/>
      <point x="104" y="685"/>
      <point x="40" y="594" type="curve"/>
      <point x="118" y="518" type="line"/>
      <point x="166" y="595"/>
      <point x="219" y="630"/>
      <point x="287" y="630" type="curve" smooth="yes"/>
      <point x="359" y="630"/>
      <point x="404" y="586"/>
      <point x="404" y="518" type="curve" smooth="yes"/>
      <point x="404" y="460"/>
      <point x="378" y="415"/>
      <point x="298" y="336" type="curve" smooth="yes"/>
      <point x="50" y="97" type="line"/>
      <point x="50" y="0" type="line"/>
    </contour>
  </outline>
</glyph>
<glyph name="three" format="2">
	<unicode hex="0033"/>
	<advance width="594"/>
	<outline>
		<contour>
			<point x="33" y="111" type="line"/>
			<point x="94" y="26"/>
			<point x="180" y="-16"/>
			<point x="289" y="-16" type="curve" smooth="yes"/>
			<point x="439" y="-16"/>
			<point x="544" y="75"/>
			<point x="544" y="203" type="curve" smooth="yes"/>
			<point x="544" y="322"/>
			<point x="453" y="396"/>
			<point x="308" y="396" type="curve"/>
			<point x="298" y="359" type="line"/>
			<point x="432" y="359"/>
			<point x="524" y="429"/>
			<point x="524" y="531" type="curve" smooth="yes"/>
			<point x="524" y="647"/>
			<point x="428" y="731"/>
			<point x="294" y="731" type="curve" smooth="yes"/>
			<point x="195" y="731"/>
			<point x="110" y="690"/>
			<point x="48" y="610" type="curve"/>
			<point x="125" y="530" type="line"/>
			<point x="173" y="600"/>
			<point x="222" y="630"/>
			<point x="287" y="630" type="curve" smooth="yes"/>
			<point x="355" y="630"/>
			<point x="402" y="586"/>
			<point x="402" y="524" type="curve" smooth="yes"/>
			<point x="402" y="463"/>
			<point x="354" y="420"/>
			<point x="281" y="420" type="curve" smooth="yes"/>
			<point x="219" y="420" type="line"/>
			<point x="219" y="321" type="line"/>
			<point x="281" y="321" type="line" smooth="yes"/>
			<point x="369" y="321"/>
			<point x="422" y="276"/>
			<point x="422" y="207" type="curve" smooth="yes"/>
			<point x="422" y="126"/>
			<point x="360" y="83"/>
			<point x="282" y="83" type="curve" smooth="yes"/>
			<point x="214" y="83"/>
			<point x="160" y="114"/>
			<point x="109" y="187" type="curve"/>
		</contour>
	</outline>
</glyph>
<glyph name="four" format="1">
  <advance width="654"/>
  <unicode hex="0034"/>
  <outline>
    <contour>
      <point x="517" y="0" type="line"/>
      <point x="517" y="153" type="line"/>
      <point x="611" y="153" type="line"/>
      <point x="611" y="250" type="line"/>
      <point x="517" y="250" type="line"/>
      <point x="517" y="715" type="line"/>
      <point x="400" y="715" type="line"/>
      <point x="44" y="250" type="line"/>
      <point x="44" y="153" type="line"/>
      <point x="400" y="153" type="line"/>
      <point x="400" y="0" type="line"/>
    </contour>
    <contour>
      <point x="400" y="564" type="line"/>
      <point x="400" y="250" type="line"/>
      <point x="159" y="250" type="line"/>
    </contour>
  </outline>
</glyph>
<glyph name="five" format="1">
  <advance width="590"/>
  <unicode hex="0035"/>
  <outline>
    <contour>
      <point x="35" y="118" type="line"/>
      <point x="88" y="31"/>
      <point x="178" y="-16"/>
      <point x="281" y="-16" type="curve" smooth="yes"/>
      <point x="436" y="-16"/>
      <point x="544" y="91"/>
      <point x="544" y="239" type="curve" smooth="yes"/>
      <point x="544" y="376"/>
      <point x="449" y="482"/>
      <point x="319" y="482" type="curve" smooth="yes"/>
      <point x="214" y="482"/>
      <point x="135" y="414"/>
      <point x="123" y="309" type="curve"/>
      <point x="160" y="306" type="line"/>
      <point x="186" y="359"/>
      <point x="240" y="385"/>
      <point x="291" y="385" type="curve" smooth="yes"/>
      <point x="372" y="385"/>
      <point x="426" y="322"/>
      <point x="426" y="238" type="curve" smooth="yes"/>
      <point x="426" y="146"/>
      <point x="369" y="83"/>
      <point x="282" y="83" type="curve" smooth="yes"/>
      <point x="211" y="83"/>
      <point x="152" y="122"/>
      <point x="113" y="194" type="curve"/>
    </contour>
    <contour>
      <point x="510" y="618" type="line"/>
      <point x="510" y="715" type="line"/>
      <point x="105" y="715" type="line"/>
      <point x="59" y="306" type="line"/>
      <point x="160" y="306" type="line"/>
      <point x="203" y="672" type="line"/>
      <point x="150" y="618" type="line"/>
    </contour>
  </outline>
</glyph>
<glyph name="six" format="2">
	<unicode hex="0036"/>
	<advance width="617"/>
	<outline>
		<contour>
			<point x="308" y="-16" type="curve" smooth="yes"/>
			<point x="461" y="-16"/>
			<point x="569" y="91"/>
			<point x="569" y="237" type="curve" smooth="yes"/>
			<point x="569" y="379"/>
			<point x="468" y="476"/>
			<point x="337" y="476" type="curve" smooth="yes"/>
			<point x="262" y="476"/>
			<point x="207" y="441"/>
			<point x="182" y="383" type="curve"/>
			<point x="190" y="376" type="line"/>
			<point x="227" y="475"/>
			<point x="307" y="571"/>
			<point x="481" y="715" type="curve"/>
			<point x="325" y="715" type="line"/>
			<point x="131" y="555"/>
			<point x="51" y="412"/>
			<point x="51" y="255" type="curve" smooth="yes"/>
			<point x="51" y="94"/>
			<point x="156" y="-16"/>
		</contour>
		<contour>
			<point x="309" y="82" type="curve" smooth="yes"/>
			<point x="228" y="82"/>
			<point x="168" y="146"/>
			<point x="168" y="233" type="curve" smooth="yes"/>
			<point x="168" y="324"/>
			<point x="228" y="382"/>
			<point x="309" y="382" type="curve" smooth="yes"/>
			<point x="391" y="382"/>
			<point x="450" y="321"/>
			<point x="450" y="233" type="curve" smooth="yes"/>
			<point x="450" y="145"/>
			<point x="391" y="82"/>
		</contour>
	</outline>
</glyph>
<glyph name="seven" format="2">
	<unicode hex="0037"/>
	<advance width="588"/>
	<outline>
		<contour>
			<point x="532" y="715" type="line"/>
			<point x="56" y="715" type="line"/>
			<point x="56" y="618" type="line"/>
			<point x="411" y="618" type="line"/>
			<point x="85" y="0" type="line"/>
			<point x="210" y="0" type="line"/>
			<point x="532" y="618" type="line"/>
		</contour>
	</outline>
</glyph>
<glyph name="eight" format="1">
  <advance width="621"/>
  <unicode hex="0038"/>
  <outline>
    <contour>
      <point x="310" y="-16" type="curve" smooth="yes"/>
      <point x="463" y="-16"/>
      <point x="571" y="72"/>
      <point x="571" y="198" type="curve" smooth="yes"/>
      <point x="571" y="317"/>
      <point x="463" y="403"/>
      <point x="310" y="403" type="curve" smooth="yes"/>
      <point x="158" y="403"/>
      <point x="50" y="317"/>
      <point x="50" y="198" type="curve" smooth="yes"/>
      <point x="50" y="72"/>
      <point x="158" y="-16"/>
    </contour>
    <contour>
      <point x="310" y="82" type="curve" smooth="yes"/>
      <point x="230" y="82"/>
      <point x="170" y="132"/>
      <point x="170" y="202" type="curve" smooth="yes"/>
      <point x="170" y="272"/>
      <point x="230" y="322"/>
      <point x="310" y="322" type="curve" smooth="yes"/>
      <point x="391" y="322"/>
      <point x="451" y="272"/>
      <point x="451" y="202" type="curve" smooth="yes"/>
      <point x="451" y="132"/>
      <point x="391" y="82"/>
    </contour>
    <contour>
      <point x="310" y="355" type="curve" smooth="yes"/>
      <point x="447" y="355"/>
      <point x="545" y="430"/>
      <point x="545" y="535" type="curve" smooth="yes"/>
      <point x="545" y="649"/>
      <point x="447" y="731"/>
      <point x="310" y="731" type="curve" smooth="yes"/>
      <point x="174" y="731"/>
      <point x="76" y="649"/>
      <point x="76" y="535" type="curve" smooth="yes"/>
      <point x="76" y="430"/>
      <point x="174" y="355"/>
    </contour>
    <contour>
      <point x="310" y="419" type="curve" smooth="yes"/>
      <point x="244" y="419"/>
      <point x="193" y="465"/>
      <point x="193" y="525" type="curve" smooth="yes"/>
      <point x="193" y="588"/>
      <point x="244" y="635"/>
      <point x="310" y="635" type="curve" smooth="yes"/>
      <point x="377" y="635"/>
      <point x="428" y="588"/>
      <point x="428" y="525" type="curve" smooth="yes"/>
      <point x="428" y="465"/>
      <point x="377" y="419"/>
    </contour>
  </outline>
</glyph>
<glyph name="nine" format="2">
	<unicode hex="0039"/>
	<advance width="617"/>
	<outline>
		<contour>
			<point x="313" y="731" type="curve" smooth="yes"/>
			<point x="160" y="731"/>
			<point x="52" y="624"/>
			<point x="52" y="478" type="curve" smooth="yes"/>
			<point x="52" y="336"/>
			<point x="153" y="239"/>
			<point x="283" y="239" type="curve" smooth="yes"/>
			<point x="359" y="239"/>
			<point x="413" y="274"/>
			<point x="439" y="332" type="curve"/>
			<point x="431" y="339" type="line"/>
			<point x="394" y="240"/>
			<point x="314" y="144"/>
			<point x="140" y="0" type="curve"/>
			<point x="296" y="0" type="line"/>
			<point x="489" y="160"/>
			<point x="569" y="303"/>
			<point x="569" y="460" type="curve" smooth="yes"/>
			<point x="569" y="621"/>
			<point x="465" y="731"/>
		</contour>
		<contour>
			<point x="312" y="633" type="curve" smooth="yes"/>
			<point x="393" y="633"/>
			<point x="453" y="569"/>
			<point x="453" y="482" type="curve" smooth="yes"/>
			<point x="453" y="391"/>
			<point x="393" y="333"/>
			<point x="312" y="333" type="curve" smooth="yes"/>
			<point x="230" y="333"/>
			<point x="170" y="394"/>
			<point x="170" y="482" type="curve" smooth="yes"/>
			<point x="170" y="570"/>
			<point x="230" y="633"/>
		</contour>
	</outline>
</glyph>
<glyph name="less" format="2">
	<unicode hex="003C"/>
	<advance width="632"/>
	<outline>
		<contour>
			<point x="114" y="396" type="line"/>
			<point x="114" y="296" type="line"/>
			<point x="517" y="120" type="line"/>
			<point x="517" y="229" type="line"/>
		</contour>
		<contour>
			<point x="114" y="423" type="line"/>
			<point x="114" y="325" type="line"/>
			<point x="517" y="492" type="line"/>
			<point x="517" y="598" type="line"/>
		</contour>
	</outline>
</glyph>
<glyph name="equal" format="2">
	<unicode hex="003D"/>
	<advance width="632"/>
	<outline>
		<contour>
			<point x="509" y="201" type="line"/>
			<point x="509" y="297" type="line"/>
			<point x="123" y="297" type="line"/>
			<point x="123" y="201" type="line"/>
		</contour>
		<contour>
			<point x="509" y="417" type="line"/>
			<point x="509" y="513" type="line"/>
			<point x="123" y="513" type="line"/>
			<point x="123" y="417" type="line"/>
		</contour>
	</outline>
</glyph>
<glyph name="greater" format="1">
  <advance width="632"/>
  <unicode hex="003E"/>
  <outline>
    <contour>
      <point x="518" y="321" type="line"/>
      <point x="518" y="421" type="line"/>
      <point x="115" y="597" type="line"/>
      <point x="115" y="488" type="line"/>
    </contour>
    <contour>
      <point x="518" y="294" type="line"/>
      <point x="518" y="392" type="line"/>
      <point x="115" y="225" type="line"/>
      <point x="115" y="119" type="line"/>
    </contour>
  </outline>
</glyph>
<glyph name="question" format="1">
  <advance width="585"/>
  <unicode hex="003F"/>
  <outline>
    <contour>
      <point x="314" y="219" type="line"/>
      <point x="314" y="277"/>
      <point x="331" y="307"/>
      <point x="394" y="349" type="curve" smooth="yes"/>
      <point x="484" y="408"/>
      <point x="517" y="454"/>
      <point x="517" y="538" type="curve" smooth="yes"/>
      <point x="517" y="653"/>
      <point x="427" y="731"/>
      <point x="293" y="731" type="curve" smooth="yes"/>
      <point x="198" y="731"/>
      <point x="110" y="684"/>
      <point x="46" y="599" type="curve"/>
      <point x="123" y="524" type="line"/>
      <point x="169" y="594"/>
      <point x="225" y="631"/>
      <point x="290" y="631" type="curve" smooth="yes"/>
      <point x="358" y="631"/>
      <point x="401" y="593"/>
      <point x="401" y="534" type="curve" smooth="yes"/>
      <point x="401" y="487"/>
      <point x="383" y="458"/>
      <point x="333" y="426" type="curve" smooth="yes"/>
      <point x="241" y="366"/>
      <point x="219" y="320"/>
      <point x="231" y="219" type="curve"/>
    </contour>
    <contour>
      <point x="272" y="-12" type="curve" smooth="yes"/>
      <point x="315" y="-12"/>
      <point x="348" y="20"/>
      <point x="348" y="64" type="curve" smooth="yes"/>
      <point x="348" y="108"/>
      <point x="315" y="141"/>
      <point x="272" y="141" type="curve" smooth="yes"/>
      <point x="228" y="141"/>
      <point x="195" y="108"/>
      <point x="195" y="64" type="curve" smooth="yes"/>
      <point x="195" y="20"/>
      <point x="228" y="-12"/>
    </contour>
  </outline>
</glyph>
<glyph name="at" format="2">
	<unicode hex="0040"/>
	<advance width="1022"/>
	<outline>
		<contour>
			<point x="481" y="44" type="curve" smooth="yes"/>
			<point x="590" y="44"/>
			<point x="665" y="132"/>
			<point x="649" y="242" type="curve"/>
			<point x="621" y="261" type="line"/>
			<point x="620" y="184"/>
			<point x="567" y="127"/>
			<point x="497" y="127" type="curve" smooth="yes"/>
			<point x="424" y="127"/>
			<point x="384" y="184"/>
			<point x="384" y="261" type="curve" smooth="yes"/>
			<point x="384" y="339"/>
			<point x="424" y="395"/>
			<point x="499" y="395" type="curve" smooth="yes"/>
			<point x="564" y="395"/>
			<point x="611" y="337"/>
			<point x="611" y="254" type="curve"/>
			<point x="627" y="249" type="line"/>
			<point x="630" y="260"/>
			<point x="631" y="276"/>
			<point x="631" y="294" type="curve" smooth="yes"/>
			<point x="631" y="408"/>
			<point x="570" y="478"/>
			<point x="472" y="478" type="curve" smooth="yes"/>
			<point x="355" y="478"/>
			<point x="283" y="377"/>
			<point x="283" y="261" type="curve" smooth="yes"/>
			<point x="283" y="142"/>
			<point x="355" y="44"/>
		</contour>
		<contour>
			<point x="720" y="-25" type="line"/>
			<point x="671" y="-72"/>
			<point x="595" y="-99"/>
			<point x="515" y="-99" type="curve" smooth="yes"/>
			<point x="324" y="-99"/>
			<point x="175" y="59"/>
			<point x="175" y="261" type="curve" smooth="yes"/>
			<point x="175" y="476"/>
			<point x="318" y="636"/>
			<point x="523" y="636" type="curve" smooth="yes"/>
			<point x="716" y="636"/>
			<point x="845" y="491"/>
			<point x="845" y="284" type="curve" smooth="yes"/>
			<point x="845" y="190"/>
			<point x="818" y="136"/>
			<point x="771" y="136" type="curve" smooth="yes"/>
			<point x="729" y="136"/>
			<point x="706" y="166"/>
			<point x="706" y="220" type="curve" smooth="yes"/>
			<point x="706" y="464" type="line"/>
			<point x="612" y="464" type="line"/>
			<point x="612" y="352" type="line"/>
			<point x="611" y="347" type="line"/>
			<point x="611" y="198" type="line" smooth="yes"/>
			<point x="611" y="106"/>
			<point x="672" y="44"/>
			<point x="763" y="44" type="curve" smooth="yes"/>
			<point x="876" y="44"/>
			<point x="946" y="137"/>
			<point x="946" y="289" type="curve" smooth="yes"/>
			<point x="946" y="546"/>
			<point x="772" y="731"/>
			<point x="521" y="731" type="curve" smooth="yes"/>
			<point x="262" y="731"/>
			<point x="73" y="529"/>
			<point x="73" y="262" type="curve" smooth="yes"/>
			<point x="73" y="3"/>
			<point x="265" y="-194"/>
			<point x="518" y="-194" type="curve" smooth="yes"/>
			<point x="620" y="-194"/>
			<point x="725" y="-158"/>
			<point x="782" y="-104" type="curve"/>
		</contour>
	</outline>
</glyph>
<glyph name="A" format="2">
	<unicode hex="0041"/>
	<advance width="733"/>
	<outline>
		<contour>
			<point x="561" y="168" type="line"/>
			<point x="561" y="270" type="line"/>
			<point x="169" y="270" type="line"/>
			<point x="169" y="168" type="line"/>
		</contour>
		<contour>
			<point x="700" y="0" type="line"/>
			<point x="432" y="715" type="line"/>
			<point x="301" y="715" type="line"/>
			<point x="33" y="0" type="line"/>
			<point x="156" y="0" type="line"/>
			<point x="383" y="632" type="line"/>
			<point x="346" y="632" type="line"/>
			<point x="573" y="0" type="line"/>
		</contour>
	</outline>
	<anchor name="bottom.UC" x="366" y="-50"/>
	<anchor name="ogonek.UC" x="563" y="-30"/>
	<anchor name="top.UC" x="366" y="750"/>
</glyph>
<glyph name="B" format="2">
	<unicode hex="0042"/>
	<advance width="681"/>
	<outline>
		<contour>
			<point x="94" y="0" type="line"/>
			<point x="386" y="0" type="line" smooth="yes"/>
			<point x="528" y="0"/>
			<point x="624" y="82"/>
			<point x="624" y="205" type="curve" smooth="yes"/>
			<point x="624" y="324"/>
			<point x="530" y="399"/>
			<point x="386" y="399" type="curve" smooth="yes"/>
			<point x="222" y="399" type="line"/>
			<point x="222" y="349" type="line"/>
			<point x="376" y="349" type="line" smooth="yes"/>
			<point x="507" y="349"/>
			<point x="595" y="421"/>
			<point x="595" y="528" type="curve" smooth="yes"/>
			<point x="595" y="640"/>
			<point x="507" y="715"/>
			<point x="376" y="715" type="curve" smooth="yes"/>
			<point x="94" y="715" type="line"/>
		</contour>
		<contour>
			<point x="213" y="101" type="line"/>
			<point x="213" y="614" type="line"/>
			<point x="370" y="614" type="line" smooth="yes"/>
			<point x="435" y="614"/>
			<point x="475" y="577"/>
			<point x="475" y="517" type="curve" smooth="yes"/>
			<point x="475" y="454"/>
			<point x="436" y="417"/>
			<point x="370" y="417" type="curve" smooth="yes"/>
			<point x="203" y="417" type="line"/>
			<point x="203" y="317" type="line"/>
			<point x="387" y="317" type="line" smooth="yes"/>
			<point x="459" y="317"/>
			<point x="503" y="277"/>
			<point x="503" y="211" type="curve" smooth="yes"/>
			<point x="503" y="142"/>
			<point x="459" y="101"/>
			<point x="387" y="101" type="curve" smooth="yes"/>
		</contour>
	</outline>
</glyph>
<glyph name="C" format="2">
	<unicode hex="0043"/>
	<advance width="723"/>
	<outline>
		<contour>
			<point x="602" y="199" type="line"/>
			<point x="557" y="130"/>
			<point x="489" y="90"/>
			<point x="411" y="90" type="curve" smooth="yes"/>
			<point x="278" y="90"/>
			<point x="182" y="202"/>
			<point x="182" y="357" type="curve" smooth="yes"/>
			<point x="182" y="514"/>
			<point x="277" y="625"/>
			<point x="411" y="625" type="curve" smooth="yes"/>
			<point x="490" y="625"/>
			<point x="557" y="586"/>
			<point x="602" y="516" type="curve"/>
			<point x="681" y="596" type="line"/>
			<point x="618" y="683"/>
			<point x="522" y="731"/>
			<point x="412" y="731" type="curve" smooth="yes"/>
			<point x="207" y="731"/>
			<point x="57" y="573"/>
			<point x="57" y="357" type="curve" smooth="yes"/>
			<point x="57" y="142"/>
			<point x="206" y="-16"/>
			<point x="409" y="-16" type="curve" smooth="yes"/>
			<point x="516" y="-16"/>
			<point x="619" y="35"/>
			<point x="681" y="119" type="curve"/>
		</contour>
	</outline>
	<anchor name="bottom.UC" x="412" y="-50"/>
	<anchor name="top.UC" x="411" y="750"/>
</glyph>
<glyph name="D" format="2">
	<unicode hex="0044"/>
	<advance width="752"/>
	<outline>
		<contour>
			<point x="94" y="0" type="line"/>
			<point x="335" y="0" type="line" smooth="yes"/>
			<point x="550" y="0"/>
			<point x="695" y="149"/>
			<point x="695" y="358" type="curve" smooth="yes"/>
			<point x="695" y="566"/>
			<point x="550" y="715"/>
			<point x="335" y="715" type="curve" smooth="yes"/>
			<point x="94" y="715" type="line"/>
		</contour>
		<contour>
			<point x="213" y="103" type="line"/>
			<point x="213" y="612" type="line"/>
			<point x="335" y="612" type="line" smooth="yes"/>
			<point x="480" y="612"/>
			<point x="570" y="511"/>
			<point x="570" y="358" type="curve" smooth="yes"/>
			<point x="570" y="204"/>
			<point x="480" y="103"/>
			<point x="335" y="103" type="curve" smooth="yes"/>
		</contour>
	</outline>
	<anchor name="top.UC" x="336" y="750"/>
</glyph>
<glyph name="E" format="1">
  <advance width="609"/>
  <unicode hex="0045"/>
  <outline>
    <contour>
      <point x="562" y="0" type="line"/>
      <point x="562" y="102" type="line"/>
      <point x="213" y="102" type="line"/>
      <point x="213" y="613" type="line"/>
      <point x="562" y="613" type="line"/>
      <point x="562" y="715" type="line"/>
      <point x="94" y="715" type="line"/>
      <point x="94" y="0" type="line"/>
    </contour>
    <contour>
      <point x="544" y="312" type="line"/>
      <point x="544" y="414" type="line"/>
      <point x="203" y="414" type="line"/>
      <point x="203" y="312" type="line"/>
    </contour>
    <contour>
      <point x="328" y="-50" type="move" name="bottom.UC"/>
    </contour>
    <contour>
      <point x="443" y="-30" type="move" name="ogonek.UC"/>
    </contour>
    <contour>
      <point x="328" y="750" type="move" name="top.UC"/>
    </contour>
  </outline>
</glyph>
<glyph name="F" format="2">
	<unicode hex="0046"/>
	<advance width="577"/>
	<outline>
		<contour>
			<point x="213" y="0" type="line"/>
			<point x="213" y="613" type="line"/>
			<point x="543" y="613" type="line"/>
			<point x="543" y="715" type="line"/>
			<point x="94" y="715" type="line"/>
			<point x="94" y="0" type="line"/>
		</contour>
		<contour>
			<point x="525" y="309" type="line"/>
			<point x="525" y="411" type="line"/>
			<point x="203" y="411" type="line"/>
			<point x="203" y="309" type="line"/>
		</contour>
	</outline>
</glyph>
<glyph name="G" format="1">
  <advance width="783"/>
  <unicode hex="0047"/>
  <outline>
    <contour>
      <point x="716" y="0" type="line"/>
      <point x="716" y="386" type="line"/>
      <point x="407" y="386" type="line"/>
      <point x="407" y="288" type="line"/>
      <point x="605" y="288" type="line"/>
      <point x="605" y="172" type="line"/>
      <point x="614" y="210" type="line"/>
      <point x="579" y="134"/>
      <point x="506" y="90"/>
      <point x="419" y="90" type="curve" smooth="yes"/>
      <point x="276" y="90"/>
      <point x="182" y="198"/>
      <point x="182" y="358" type="curve" smooth="yes"/>
      <point x="182" y="514"/>
      <point x="277" y="625"/>
      <point x="411" y="625" type="curve" smooth="yes"/>
      <point x="497" y="625"/>
      <point x="562" y="590"/>
      <point x="614" y="516" type="curve"/>
      <point x="693" y="596" type="line"/>
      <point x="629" y="683"/>
      <point x="527" y="731"/>
      <point x="412" y="731" type="curve" smooth="yes"/>
      <point x="208" y="731"/>
      <point x="57" y="572"/>
      <point x="57" y="358" type="curve" smooth="yes"/>
      <point x="57" y="143"/>
      <point x="203" y="-16"/>
      <point x="398" y="-16" type="curve" smooth="yes"/>
      <point x="497" y="-16"/>
      <point x="573" y="23"/>
      <point x="617" y="96" type="curve"/>
      <point x="606" y="100" type="line"/>
      <point x="606" y="0" type="line"/>
    </contour>
    <contour>
      <point x="405" y="-50" type="move" name="bottom.UC"/>
    </contour>
    <contour>
      <point x="412" y="750" type="move" name="top.UC"/>
    </contour>
  </outline>
</glyph>
<glyph name="H" format="2">
	<unicode hex="0048"/>
	<advance width="756"/>
	<outline>
		<contour>
			<point x="543" y="0" type="line"/>
			<point x="662" y="0" type="line"/>
			<point x="662" y="715" type="line"/>
			<point x="543" y="715" type="line"/>
		</contour>
		<contour>
			<point x="213" y="0" type="line"/>
			<point x="213" y="715" type="line"/>
			<point x="94" y="715" type="line"/>
			<point x="94" y="0" type="line"/>
		</contour>
		<contour>
			<point x="203" y="317" type="line"/>
			<point x="552" y="317" type="line"/>
			<point x="552" y="420" type="line"/>
			<point x="203" y="420" type="line"/>
		</contour>
	</outline>
	<anchor name="bottom.UC" x="378" y="-50"/>
	<anchor name="top.UC" x="378" y="750"/>
</glyph>
<glyph name="I" format="1">
  <advance width="307"/>
  <unicode hex="0049"/>
  <outline>
    <contour>
      <point x="213" y="0" type="line"/>
      <point x="213" y="715" type="line"/>
      <point x="94" y="715" type="line"/>
      <point x="94" y="0" type="line"/>
    </contour>
    <contour>
      <point x="153" y="-50" type="move" name="bottom.UC"/>
    </contour>
    <contour>
      <point x="94" y="-30" type="move" name="ogonek.UC"/>
    </contour>
    <contour>
      <point x="153" y="750" type="move" name="top.UC"/>
    </contour>
  </outline>
</glyph>
<glyph name="J" format="2">
	<unicode hex="004A"/>
	<advance width="653"/>
	<outline>
		<contour>
			<point x="571" y="715" type="line"/>
			<point x="452" y="715" type="line"/>
			<point x="452" y="277" type="line" smooth="yes"/>
			<point x="452" y="156"/>
			<point x="404" y="91"/>
			<point x="304" y="91" type="curve" smooth="yes"/>
			<point x="215" y="91"/>
			<point x="164" y="145"/>
			<point x="155" y="253" type="curve"/>
			<point x="38" y="239" type="line"/>
			<point x="50" y="80"/>
			<point x="149" y="-16"/>
			<point x="304" y="-16" type="curve" smooth="yes"/>
			<point x="476" y="-16"/>
			<point x="571" y="89"/>
			<point x="571" y="277" type="curve" smooth="yes"/>
		</contour>
	</outline>
	<anchor name="top.UC" x="512" y="750"/>
</glyph>
<glyph name="K" format="1">
  <advance width="718"/>
  <unicode hex="004B"/>
  <outline>
    <contour>
      <point x="213" y="0" type="line"/>
      <point x="213" y="715" type="line"/>
      <point x="94" y="715" type="line"/>
      <point x="94" y="0" type="line"/>
    </contour>
    <contour>
      <point x="692" y="0" type="line"/>
      <point x="331" y="385" type="line"/>
      <point x="331" y="357" type="line"/>
      <point x="653" y="715" type="line"/>
      <point x="504" y="715" type="line"/>
      <point x="204" y="371" type="line"/>
      <point x="189" y="371" type="line"/>
      <point x="529" y="0" type="line"/>
    </contour>
    <contour>
      <point x="360" y="-50" type="move" name="bottom.UC"/>
    </contour>
    <contour>
      <point x="358" y="750" type="move" name="top.UC"/>
    </contour>
  </outline>
</glyph>
<glyph name="L" format="1">
  <advance width="576"/>
  <unicode hex="004C"/>
  <outline>
    <contour>
      <point x="542" y="0" type="line"/>
      <point x="542" y="105" type="line"/>
      <point x="213" y="105" type="line"/>
      <point x="213" y="715" type="line"/>
      <point x="94" y="715" type="line"/>
      <point x="94" y="0" type="line"/>
    </contour>
    <contour>
      <point x="318" y="-50" type="move" name="bottom.UC"/>
    </contour>
    <contour>
      <point x="153" y="750" type="move" name="top.UC"/>
    </contour>
    <contour>
      <point x="376" y="540" type="move" name="top_right"/>
    </contour>
  </outline>
</glyph>
<glyph name="M" format="1">
  <advance width="911"/>
  <unicode hex="004D"/>
  <outline>
    <contour>
      <point x="498" y="73" type="line"/>
      <point x="763" y="660" type="line"/>
      <point x="701" y="662" type="line"/>
      <point x="701" y="0" type="line"/>
      <point x="817" y="0" type="line"/>
      <point x="817" y="715" type="line"/>
      <point x="680" y="715" type="line"/>
      <point x="430" y="152" type="line"/>
      <point x="481" y="152" type="line"/>
      <point x="233" y="715" type="line"/>
      <point x="94" y="715" type="line"/>
      <point x="94" y="0" type="line"/>
      <point x="209" y="0" type="line"/>
      <point x="209" y="662" type="line"/>
      <point x="149" y="660" type="line"/>
      <point x="411" y="73" type="line"/>
    </contour>
  </outline>
</glyph>
<glyph name="N" format="2">
	<unicode hex="004E"/>
	<advance width="765"/>
	<outline>
		<contour>
			<point x="210" y="0" type="line"/>
			<point x="210" y="598" type="line"/>
			<point x="166" y="598" type="line"/>
			<point x="546" y="0" type="line"/>
			<point x="671" y="0" type="line"/>
			<point x="671" y="715" type="line"/>
			<point x="555" y="715" type="line"/>
			<point x="555" y="117" type="line"/>
			<point x="599" y="117" type="line"/>
			<point x="219" y="715" type="line"/>
			<point x="94" y="715" type="line"/>
			<point x="94" y="0" type="line"/>
		</contour>
	</outline>
	<anchor name="bottom.UC" x="375" y="-50"/>
	<anchor name="top.UC" x="387" y="750"/>
</glyph>
<glyph name="O" format="2">
	<unicode hex="004F"/>
	<advance width="828"/>
	<outline>
		<contour>
			<point x="414" y="-16" type="curve" smooth="yes"/>
			<point x="620" y="-16"/>
			<point x="771" y="143"/>
			<point x="771" y="358" type="curve" smooth="yes"/>
			<point x="771" y="572"/>
			<point x="620" y="731"/>
			<point x="414" y="731" type="curve" smooth="yes"/>
			<point x="208" y="731"/>
			<point x="57" y="572"/>
			<point x="57" y="358" type="curve" smooth="yes"/>
			<point x="57" y="143"/>
			<point x="208" y="-16"/>
		</contour>
		<contour>
			<point x="414" y="91" type="curve" smooth="yes"/>
			<point x="278" y="91"/>
			<point x="182" y="203"/>
			<point x="182" y="358" type="curve" smooth="yes"/>
			<point x="182" y="513"/>
			<point x="278" y="624"/>
			<point x="414" y="624" type="curve" smooth="yes"/>
			<point x="551" y="624"/>
			<point x="647" y="513"/>
			<point x="647" y="358" type="curve" smooth="yes"/>
			<point x="647" y="203"/>
			<point x="551" y="91"/>
		</contour>
	</outline>
	<anchor name="bottom.UC" x="414" y="-50"/>
	<anchor name="top.UC" x="414" y="750"/>
</glyph>
<glyph name="P" format="1">
  <advance width="649"/>
  <unicode hex="0050"/>
  <outline>
    <contour>
      <point x="213" y="0" type="line"/>
      <point x="213" y="613" type="line"/>
      <point x="365" y="613" type="line" smooth="yes"/>
      <point x="437" y="613"/>
      <point x="481" y="571"/>
      <point x="481" y="501" type="curve" smooth="yes"/>
      <point x="481" y="432"/>
      <point x="437" y="390"/>
      <point x="365" y="390" type="curve" smooth="yes"/>
      <point x="203" y="390" type="line"/>
      <point x="203" y="288" type="line"/>
      <point x="365" y="288" type="line" smooth="yes"/>
      <point x="506" y="288"/>
      <point x="602" y="374"/>
      <point x="602" y="501" type="curve" smooth="yes"/>
      <point x="602" y="629"/>
      <point x="506" y="715"/>
      <point x="365" y="715" type="curve" smooth="yes"/>
      <point x="94" y="715" type="line"/>
      <point x="94" y="0" type="line"/>
    </contour>
  </outline>
</glyph>
<glyph name="Q" format="1">
  <advance width="828"/>
  <unicode hex="0051"/>
  <outline>
    <contour>
      <point x="686" y="-43" type="line"/>
      <point x="752" y="25" type="line"/>
      <point x="494" y="304" type="line"/>
      <point x="428" y="235" type="line"/>
    </contour>
    <contour>
      <point x="414" y="-16" type="curve" smooth="yes"/>
      <point x="622" y="-16"/>
      <point x="771" y="145"/>
      <point x="771" y="358" type="curve" smooth="yes"/>
      <point x="771" y="572"/>
      <point x="620" y="731"/>
      <point x="414" y="731" type="curve" smooth="yes"/>
      <point x="208" y="731"/>
      <point x="57" y="572"/>
      <point x="57" y="358" type="curve" smooth="yes"/>
      <point x="57" y="143"/>
      <point x="208" y="-16"/>
    </contour>
    <contour>
      <point x="414" y="91" type="curve" smooth="yes"/>
      <point x="278" y="91"/>
      <point x="182" y="203"/>
      <point x="182" y="358" type="curve" smooth="yes"/>
      <point x="182" y="513"/>
      <point x="278" y="624"/>
      <point x="414" y="624" type="curve" smooth="yes"/>
      <point x="551" y="624"/>
      <point x="647" y="513"/>
      <point x="647" y="358" type="curve" smooth="yes"/>
      <point x="647" y="200"/>
      <point x="552" y="91"/>
    </contour>
  </outline>
</glyph>
<glyph name="R" format="2">
	<unicode hex="0052"/>
	<advance width="703"/>
	<outline>
		<contour>
			<point x="213" y="0" type="line"/>
			<point x="213" y="613" type="line"/>
			<point x="365" y="613" type="line" smooth="yes"/>
			<point x="437" y="613"/>
			<point x="481" y="571"/>
			<point x="481" y="501" type="curve" smooth="yes"/>
			<point x="481" y="432"/>
			<point x="437" y="390"/>
			<point x="365" y="390" type="curve" smooth="yes"/>
			<point x="203" y="390" type="line"/>
			<point x="203" y="288" type="line"/>
			<point x="365" y="288" type="line" smooth="yes"/>
			<point x="506" y="288"/>
			<point x="602" y="374"/>
			<point x="602" y="501" type="curve" smooth="yes"/>
			<point x="602" y="629"/>
			<point x="506" y="715"/>
			<point x="365" y="715" type="curve" smooth="yes"/>
			<point x="94" y="715" type="line"/>
			<point x="94" y="0" type="line"/>
		</contour>
		<contour>
			<point x="671" y="0" type="line"/>
			<point x="420" y="333" type="line"/>
			<point x="284" y="333" type="line"/>
			<point x="524" y="0" type="line"/>
		</contour>
	</outline>
	<anchor name="top.UC" x="324" y="750"/>
</glyph>
<glyph name="S" format="1">
  <advance width="670"/>
  <unicode hex="0053"/>
  <outline>
    <contour>
      <point x="40" y="116" type="line"/>
      <point x="114" y="30"/>
      <point x="218" y="-16"/>
      <point x="339" y="-16" type="curve" smooth="yes"/>
      <point x="504" y="-16"/>
      <point x="617" y="73"/>
      <point x="617" y="205" type="curve" smooth="yes"/>
      <point x="617" y="327"/>
      <point x="536" y="394"/>
      <point x="351" y="423" type="curve" smooth="yes"/>
      <point x="233" y="442"/>
      <point x="190" y="469"/>
      <point x="190" y="523" type="curve" smooth="yes"/>
      <point x="190" y="589"/>
      <point x="246" y="628"/>
      <point x="333" y="628" type="curve" smooth="yes"/>
      <point x="416" y="628"/>
      <point x="483" y="593"/>
      <point x="538" y="526" type="curve"/>
      <point x="616" y="606" type="line"/>
      <point x="546" y="687"/>
      <point x="448" y="731"/>
      <point x="333" y="731" type="curve" smooth="yes"/>
      <point x="178" y="731"/>
      <point x="69" y="644"/>
      <point x="69" y="515" type="curve" smooth="yes"/>
      <point x="69" y="402"/>
      <point x="147" y="340"/>
      <point x="327" y="312" type="curve" smooth="yes"/>
      <point x="448" y="292"/>
      <point x="496" y="261"/>
      <point x="496" y="199" type="curve" smooth="yes"/>
      <point x="496" y="131"/>
      <point x="436" y="88"/>
      <point x="340" y="88" type="curve" smooth="yes"/>
      <point x="253" y="88"/>
      <point x="173" y="127"/>
      <point x="120" y="196" type="curve"/>
    </contour>
    <contour>
      <point x="340" y="-50" type="move" name="bottom.UC"/>
    </contour>
    <contour>
      <point x="333" y="750" type="move" name="top.UC"/>
    </contour>
  </outline>
</glyph>
<glyph name="T" format="1">
  <advance width="611"/>
  <unicode hex="0054"/>
  <outline>
    <contour>
      <point x="365" y="0" type="line"/>
      <point x="365" y="621" type="line"/>
      <point x="246" y="621" type="line"/>
      <point x="246" y="0" type="line"/>
    </contour>
    <contour>
      <point x="577" y="611" type="line"/>
      <point x="577" y="715" type="line"/>
      <point x="34" y="715" type="line"/>
      <point x="34" y="611" type="line"/>
    </contour>
    <contour>
      <point x="311" y="-50" type="move" name="bottom.UC"/>
    </contour>
    <contour>
      <point x="308" y="750" type="move" name="top.UC"/>
    </contour>
  </outline>
</glyph>
<glyph name="U" format="1">
  <advance width="731"/>
  <unicode hex="0055"/>
  <outline>
    <contour>
      <point x="650" y="715" type="line"/>
      <point x="532" y="715" type="line"/>
      <point x="532" y="282" type="line" smooth="yes"/>
      <point x="532" y="163"/>
      <point x="470" y="91"/>
      <point x="366" y="91" type="curve" smooth="yes"/>
      <point x="262" y="91"/>
      <point x="201" y="163"/>
      <point x="201" y="282" type="curve" smooth="yes"/>
      <point x="201" y="715" type="line"/>
      <point x="82" y="715" type="line"/>
      <point x="82" y="282" type="line" smooth="yes"/>
      <point x="82" y="94"/>
      <point x="189" y="-16"/>
      <point x="366" y="-16" type="curve" smooth="yes"/>
      <point x="543" y="-16"/>
      <point x="650" y="94"/>
      <point x="650" y="282" type="curve" smooth="yes"/>
    </contour>
    <contour>
      <point x="366" y="-50" type="move" name="bottom.UC"/>
    </contour>
    <contour>
      <point x="398" y="-30" type="move" name="ogonek.UC.round"/>
    </contour>
    <contour>
      <point x="366" y="750" type="move" name="top.UC"/>
    </contour>
  </outline>
</glyph>
<glyph name="V" format="2">
	<unicode hex="0056"/>
	<advance width="721"/>
	<outline>
		<contour>
			<point x="421" y="0" type="line"/>
			<point x="684" y="715" type="line"/>
			<point x="561" y="715" type="line"/>
			<point x="347" y="89" type="line"/>
			<point x="380" y="89" type="line"/>
			<point x="165" y="715" type="line"/>
			<point x="36" y="715" type="line"/>
			<point x="300" y="0" type="line"/>
		</contour>
	</outline>
</glyph>
<glyph name="W" format="1">
  <advance width="1014"/>
  <unicode hex="0057"/>
  <outline>
    <contour>
      <point x="780" y="0" type="line"/>
      <point x="974" y="715" type="line"/>
      <point x="850" y="715" type="line"/>
      <point x="701" y="97" type="line"/>
      <point x="727" y="97" type="line"/>
      <point x="563" y="715" type="line"/>
      <point x="453" y="715" type="line"/>
      <point x="289" y="97" type="line"/>
      <point x="319" y="97" type="line"/>
      <point x="168" y="715" type="line"/>
      <point x="41" y="715" type="line"/>
      <point x="234" y="0" type="line"/>
      <point x="365" y="0" type="line"/>
      <point x="515" y="567" type="line"/>
      <point x="500" y="567" type="line"/>
      <point x="650" y="0" type="line"/>
    </contour>
    <contour>
      <point x="507" y="750" type="move" name="top.UC"/>
    </contour>
  </outline>
</glyph>
<glyph name="X" format="2">
	<unicode hex="0058"/>
	<advance width="707"/>
	<outline>
		<contour>
			<point x="171" y="0" type="line"/>
			<point x="367" y="312" type="line"/>
			<point x="339" y="312" type="line"/>
			<point x="535" y="0" type="line"/>
			<point x="675" y="0" type="line"/>
			<point x="417" y="390" type="line"/>
			<point x="417" y="348" type="line"/>
			<point x="652" y="715" type="line"/>
			<point x="515" y="715" type="line"/>
			<point x="342" y="426" type="line"/>
			<point x="371" y="426" type="line"/>
			<point x="194" y="715" type="line"/>
			<point x="54" y="715" type="line"/>
			<point x="293" y="348" type="line"/>
			<point x="290" y="390" type="line"/>
			<point x="31" y="0" type="line"/>
		</contour>
	</outline>
</glyph>
<glyph name="Y" format="1">
  <advance width="696"/>
  <unicode hex="0059"/>
  <outline>
    <contour>
      <point x="408" y="0" type="line"/>
      <point x="408" y="296" type="line"/>
      <point x="662" y="715" type="line"/>
      <point x="530" y="715" type="line"/>
      <point x="340" y="380" type="line"/>
      <point x="362" y="380" type="line"/>
      <point x="174" y="715" type="line"/>
      <point x="33" y="715" type="line"/>
      <point x="289" y="297" type="line"/>
      <point x="289" y="0" type="line"/>
    </contour>
    <contour>
      <point x="351" y="-50" type="move" name="bottom.UC"/>
    </contour>
    <contour>
      <point x="351" y="750" type="move" name="top.UC"/>
    </contour>
  </outline>
</glyph>
<glyph name="Z" format="1">
  <advance width="608"/>
  <unicode hex="005A"/>
  <outline>
    <contour>
      <point x="562" y="0" type="line"/>
      <point x="562" y="103" type="line"/>
      <point x="187" y="103" type="line"/>
      <point x="550" y="612" type="line"/>
      <point x="550" y="715" type="line"/>
      <point x="57" y="715" type="line"/>
      <point x="57" y="612" type="line"/>
      <point x="406" y="612" type="line"/>
      <point x="44" y="103" type="line"/>
      <point x="44" y="0" type="line"/>
    </contour>
    <contour>
      <point x="303" y="750" type="move" name="top.UC"/>
    </contour>
  </outline>
</glyph>
<glyph name="bracketleft" format="2">
	<unicode hex="005B"/>
	<advance width="321"/>
	<outline>
		<contour>
			<point x="292" y="-129" type="line"/>
			<point x="292" y="-36" type="line"/>
			<point x="189" y="-36" type="line"/>
			<point x="189" y="638" type="line"/>
			<point x="292" y="638" type="line"/>
			<point x="292" y="731" type="line"/>
			<point x="75" y="731" type="line"/>
			<point x="75" y="-129" type="line"/>
		</contour>
	</outline>
</glyph>
<glyph name="backslash" format="1">
  <advance width="490"/>
  <unicode hex="005C"/>
  <outline>
    <contour>
      <point x="324" y="0" type="line"/>
      <point x="52" y="731" type="line"/>
      <point x="165" y="731" type="line"/>
      <point x="438" y="0" type="line"/>
    </contour>
  </outline>
</glyph>
<glyph name="bracketright" format="2">
	<unicode hex="005D"/>
	<advance width="321"/>
	<outline>
		<contour>
			<point x="29" y="-129" type="line"/>
			<point x="29" y="-36" type="line"/>
			<point x="132" y="-36" type="line"/>
			<point x="132" y="638" type="line"/>
			<point x="29" y="638" type="line"/>
			<point x="29" y="731" type="line"/>
			<point x="246" y="731" type="line"/>
			<point x="246" y="-129" type="line"/>
		</contour>
	</outline>
</glyph>
<glyph name="asciicircum" format="2">
	<unicode hex="005E"/>
	<advance width="632"/>
	<outline>
		<contour>
			<point x="278" y="715" type="line"/>
			<point x="438" y="354" type="line"/>
			<point x="549" y="354" type="line"/>
			<point x="380" y="715" type="line"/>
		</contour>
		<contour>
			<point x="252" y="715" type="line"/>
			<point x="83" y="354" type="line"/>
			<point x="189" y="354" type="line"/>
			<point x="352" y="715" type="line"/>
		</contour>
	</outline>
</glyph>
<glyph name="underscore" format="1">
  <advance width="469"/>
  <unicode hex="005F"/>
  <outline>
    <contour>
      <point x="469" y="-144" type="line"/>
      <point x="469" y="-50" type="line"/>
      <point x="0" y="-50" type="line"/>
      <point x="0" y="-144" type="line"/>
    </contour>
  </outline>
</glyph>
<glyph name="a" format="1">
  <advance width="557"/>
  <unicode hex="0061"/>
  <outline>
    <contour>
      <point x="489" y="0" type="line"/>
      <point x="489" y="310" type="line" smooth="yes"/>
      <point x="489" y="435"/>
      <point x="402" y="516"/>
      <point x="267" y="516" type="curve" smooth="yes"/>
      <point x="184" y="516"/>
      <point x="117" y="490"/>
      <point x="56" y="434" type="curve"/>
      <point x="120" y="363" type="line"/>
      <point x="162" y="405"/>
      <point x="204" y="424"/>
      <point x="257" y="424" type="curve" smooth="yes"/>
      <point x="335" y="424"/>
      <point x="381" y="379"/>
      <point x="381" y="307" type="curve" smooth="yes"/>
      <point x="381" y="119" type="line"/>
      <point x="385" y="100" type="line"/>
      <point x="385" y="0" type="line"/>
    </contour>
    <contour>
      <point x="222" y="-16" type="curve" smooth="yes"/>
      <point x="341" y="-16"/>
      <point x="424" y="69"/>
      <point x="424" y="192" type="curve"/>
      <point x="392" y="209" type="line"/>
      <point x="386" y="129"/>
      <point x="326" y="72"/>
      <point x="247" y="72" type="curve" smooth="yes"/>
      <point x="192" y="72"/>
      <point x="157" y="103"/>
      <point x="157" y="150" type="curve" smooth="yes"/>
      <point x="157" y="202"/>
      <point x="201" y="232"/>
      <point x="275" y="232" type="curve" smooth="yes"/>
      <point x="390" y="232" type="line"/>
      <point x="390" y="310" type="line"/>
      <point x="266" y="310" type="line" smooth="yes"/>
      <point x="125" y="310"/>
      <point x="40" y="248"/>
      <point x="40" y="146" type="curve" smooth="yes"/>
      <point x="40" y="50"/>
      <point x="113" y="-16"/>
    </contour>
    <contour>
      <point x="256" y="-50" type="move" name="bottom.LC"/>
    </contour>
    <contour>
      <point x="370" y="-30" type="move" name="ogonek.LC"/>
    </contour>
    <contour>
      <point x="267" y="544" type="move" name="top.LC"/>
    </contour>
  </outline>
</glyph>
<glyph name="b" format="2">
	<unicode hex="0062"/>
	<advance width="637"/>
	<outline>
		<contour>
			<point x="190" y="0" type="line"/>
			<point x="190" y="123" type="line"/>
			<point x="191" y="128" type="line"/>
			<point x="191" y="244" type="line" smooth="yes"/>
			<point x="191" y="348"/>
			<point x="250" y="418"/>
			<point x="332" y="418" type="curve" smooth="yes"/>
			<point x="415" y="418"/>
			<point x="469" y="348"/>
			<point x="469" y="250" type="curve" smooth="yes"/>
			<point x="469" y="152"/>
			<point x="411" y="82"/>
			<point x="325" y="82" type="curve" smooth="yes"/>
			<point x="252" y="82"/>
			<point x="193" y="135"/>
			<point x="184" y="211" type="curve"/>
			<point x="159" y="193" type="line"/>
			<point x="152" y="75"/>
			<point x="231" y="-16"/>
			<point x="352" y="-16" type="curve" smooth="yes"/>
			<point x="485" y="-16"/>
			<point x="589" y="93"/>
			<point x="589" y="250" type="curve" smooth="yes"/>
			<point x="589" y="406"/>
			<point x="487" y="516"/>
			<point x="355" y="516" type="curve" smooth="yes"/>
			<point x="250" y="516"/>
			<point x="176" y="445"/>
			<point x="163" y="346" type="curve"/>
			<point x="191" y="346" type="line"/>
			<point x="191" y="720" type="line"/>
			<point x="75" y="720" type="line"/>
			<point x="75" y="0" type="line"/>
		</contour>
	</outline>
</glyph>
<glyph name="c" format="2">
	<unicode hex="0063"/>
	<advance width="544"/>
	<outline>
		<contour>
			<point x="440" y="155" type="line"/>
			<point x="409" y="108"/>
			<point x="367" y="82"/>
			<point x="313" y="82" type="curve" smooth="yes"/>
			<point x="228" y="82"/>
			<point x="168" y="149"/>
			<point x="168" y="250" type="curve" smooth="yes"/>
			<point x="168" y="352"/>
			<point x="227" y="418"/>
			<point x="312" y="418" type="curve" smooth="yes"/>
			<point x="366" y="418"/>
			<point x="409" y="392"/>
			<point x="439" y="345" type="curve"/>
			<point x="514" y="419" type="line"/>
			<point x="465" y="482"/>
			<point x="392" y="516"/>
			<point x="307" y="516" type="curve" smooth="yes"/>
			<point x="155" y="516"/>
			<point x="48" y="407"/>
			<point x="48" y="250" type="curve" smooth="yes"/>
			<point x="48" y="95"/>
			<point x="156" y="-16"/>
			<point x="306" y="-16" type="curve" smooth="yes"/>
			<point x="390" y="-16"/>
			<point x="464" y="19"/>
			<point x="514" y="82" type="curve"/>
		</contour>
	</outline>
	<anchor name="bottom.LC" x="309" y="-50"/>
	<anchor name="top.LC" x="307" y="544"/>
</glyph>
<glyph name="d" format="2">
	<unicode hex="0064"/>
	<advance width="637"/>
	<outline>
		<contour>
			<point x="447" y="0" type="line"/>
			<point x="447" y="123" type="line"/>
			<point x="446" y="128" type="line"/>
			<point x="446" y="244" type="line" smooth="yes"/>
			<point x="446" y="348"/>
			<point x="389" y="418"/>
			<point x="308" y="418" type="curve" smooth="yes"/>
			<point x="225" y="418"/>
			<point x="168" y="348"/>
			<point x="168" y="250" type="curve" smooth="yes"/>
			<point x="168" y="152"/>
			<point x="226" y="82"/>
			<point x="311" y="82" type="curve" smooth="yes"/>
			<point x="384" y="82"/>
			<point x="444" y="135"/>
			<point x="452" y="211" type="curve"/>
			<point x="477" y="193" type="line"/>
			<point x="484" y="75"/>
			<point x="405" y="-16"/>
			<point x="284" y="-16" type="curve" smooth="yes"/>
			<point x="152" y="-16"/>
			<point x="48" y="93"/>
			<point x="48" y="250" type="curve" smooth="yes"/>
			<point x="48" y="406"/>
			<point x="153" y="516"/>
			<point x="284" y="516" type="curve" smooth="yes"/>
			<point x="389" y="516"/>
			<point x="462" y="445"/>
			<point x="474" y="346" type="curve"/>
			<point x="446" y="346" type="line"/>
			<point x="446" y="720" type="line"/>
			<point x="562" y="720" type="line"/>
			<point x="562" y="0" type="line"/>
		</contour>
	</outline>
	<anchor name="top_right" x="676" y="540"/>
</glyph>
<glyph name="e" format="2">
	<unicode hex="0065"/>
	<advance width="580"/>
	<outline>
		<contour>
			<point x="463" y="150" type="line"/>
			<point x="427" y="103"/>
			<point x="380" y="78"/>
			<point x="321" y="78" type="curve" smooth="yes"/>
			<point x="223" y="78"/>
			<point x="166" y="146"/>
			<point x="166" y="252" type="curve" smooth="yes"/>
			<point x="166" y="356"/>
			<point x="217" y="423"/>
			<point x="296" y="423" type="curve" smooth="yes"/>
			<point x="372" y="423"/>
			<point x="417" y="362"/>
			<point x="417" y="260" type="curve" smooth="yes"/>
			<point x="417" y="248" type="line"/>
			<point x="531" y="248" type="line"/>
			<point x="531" y="254" type="line" smooth="yes"/>
			<point x="531" y="406"/>
			<point x="434" y="516"/>
			<point x="298" y="516" type="curve" smooth="yes"/>
			<point x="154" y="516"/>
			<point x="48" y="402"/>
			<point x="48" y="250" type="curve" smooth="yes"/>
			<point x="48" y="95"/>
			<point x="156" y="-16"/>
			<point x="316" y="-16" type="curve" smooth="yes"/>
			<point x="400" y="-16"/>
			<point x="474" y="15"/>
			<point x="526" y="77" type="curve"/>
		</contour>
		<contour>
			<point x="531" y="214" type="line"/>
			<point x="531" y="254" type="line"/>
			<point x="516" y="292" type="line"/>
			<point x="125" y="292" type="line"/>
			<point x="125" y="214" type="line"/>
		</contour>
	</outline>
	<anchor name="bottom.LC" x="304" y="-50"/>
	<anchor name="ogonek.LC.round" x="361" y="-30"/>
	<anchor name="top.LC" x="294" y="544"/>
</glyph>
<glyph name="f" format="1">
  <advance width="382"/>
  <unicode hex="0066"/>
  <outline>
    <contour>
      <point x="234" y="0" type="line"/>
      <point x="234" y="571" type="line" smooth="yes"/>
      <point x="234" y="611"/>
      <point x="249" y="627"/>
      <point x="286" y="627" type="curve" smooth="yes"/>
      <point x="357" y="627" type="line"/>
      <point x="357" y="720" type="line"/>
      <point x="247" y="720" type="line" smooth="yes"/>
      <point x="160" y="720"/>
      <point x="118" y="676"/>
      <point x="118" y="585" type="curve" smooth="yes"/>
      <point x="118" y="0" type="line"/>
    </contour>
    <contour>
      <point x="357" y="405" type="line"/>
      <point x="357" y="500" type="line"/>
      <point x="34" y="500" type="line"/>
      <point x="34" y="405" type="line"/>
    </contour>
  </outline>
</glyph>
<glyph name="g" format="1">
  <advance width="635"/>
  <unicode hex="0067"/>
  <outline>
    <contour>
      <point x="562" y="57" type="curve"/>
      <point x="562" y="500" type="line"/>
      <point x="447" y="500" type="line"/>
      <point x="447" y="346" type="line"/>
      <point x="472" y="346" type="line"/>
      <point x="459" y="447"/>
      <point x="391" y="516"/>
      <point x="284" y="516" type="curve" smooth="yes"/>
      <point x="154" y="516"/>
      <point x="48" y="406"/>
      <point x="48" y="255" type="curve" smooth="yes"/>
      <point x="48" y="102"/>
      <point x="151" y="-3"/>
      <point x="284" y="-3" type="curve" smooth="yes"/>
      <point x="408" y="-3"/>
      <point x="485" y="88"/>
      <point x="478" y="205" type="curve"/>
      <point x="453" y="223" type="line"/>
      <point x="444" y="149"/>
      <point x="384" y="95"/>
      <point x="311" y="95" type="curve" smooth="yes"/>
      <point x="226" y="95"/>
      <point x="168" y="161"/>
      <point x="168" y="255" type="curve" smooth="yes"/>
      <point x="168" y="348"/>
      <point x="226" y="418"/>
      <point x="308" y="418" type="curve" smooth="yes"/>
      <point x="390" y="418"/>
      <point x="446" y="349"/>
      <point x="446" y="244" type="curve" smooth="yes"/>
      <point x="446" y="52" type="line" smooth="yes"/>
      <point x="446" y="-50"/>
      <point x="384" y="-113"/>
      <point x="289" y="-113" type="curve" smooth="yes"/>
      <point x="229" y="-113"/>
      <point x="180" y="-90"/>
      <point x="141" y="-44" type="curve"/>
      <point x="76" y="-123" type="line"/>
      <point x="127" y="-178"/>
      <point x="207" y="-210"/>
      <point x="294" y="-210" type="curve" smooth="yes"/>
      <point x="452" y="-210"/>
      <point x="562" y="-103"/>
    </contour>
    <contour>
      <point x="290" y="544" type="move" name="top.LC"/>
    </contour>
  </outline>
</glyph>
<glyph name="h" format="1">
  <advance width="596"/>
  <unicode hex="0068"/>
  <outline>
    <contour>
      <point x="529" y="0" type="line"/>
      <point x="529" y="301" type="line" smooth="yes"/>
      <point x="529" y="439"/>
      <point x="461" y="516"/>
      <point x="347" y="516" type="curve" smooth="yes"/>
      <point x="265" y="516"/>
      <point x="191" y="468"/>
      <point x="175" y="346" type="curve"/>
      <point x="191" y="346" type="line"/>
      <point x="191" y="720" type="line"/>
      <point x="75" y="720" type="line"/>
      <point x="75" y="0" type="line"/>
      <point x="191" y="0" type="line"/>
      <point x="191" y="238" type="line" smooth="yes"/>
      <point x="191" y="354"/>
      <point x="243" y="418"/>
      <point x="316" y="418" type="curve" smooth="yes"/>
      <point x="377" y="418"/>
      <point x="413" y="372"/>
      <point x="413" y="289" type="curve" smooth="yes"/>
      <point x="413" y="0" type="line"/>
    </contour>
    <contour>
      <point x="302" y="-50" type="move" name="bottom.LC"/>
    </contour>
  </outline>
</glyph>
<glyph name="i" format="2">
	<unicode hex="0069"/>
	<advance width="266"/>
	<outline>
		<contour>
			<point x="191" y="0" type="line"/>
			<point x="191" y="500" type="line"/>
			<point x="75" y="500" type="line"/>
			<point x="75" y="0" type="line"/>
		</contour>
		<contour>
			<point x="206" y="670" type="curve" smooth="yes"/>
			<point x="206" y="711"/>
			<point x="174" y="742"/>
			<point x="133" y="742" type="curve" smooth="yes"/>
			<point x="91" y="742"/>
			<point x="59" y="711"/>
			<point x="59" y="670" type="curve" smooth="yes"/>
			<point x="59" y="630"/>
			<point x="91" y="599"/>
			<point x="133" y="599" type="curve" smooth="yes"/>
			<point x="174" y="599"/>
			<point x="206" y="630"/>
		</contour>
	</outline>
	<anchor name="bottom.LC" x="133" y="-50"/>
	<anchor name="ogonek.LC" x="72" y="-30"/>
</glyph>
<glyph name="j" format="1">
  <advance width="266"/>
  <unicode hex="006A"/>
  <outline>
    <contour>
      <point x="-11" y="-194" type="line"/>
      <point x="62" y="-194" type="line" smooth="yes"/>
      <point x="149" y="-194"/>
      <point x="191" y="-150"/>
      <point x="191" y="-59" type="curve" smooth="yes"/>
      <point x="191" y="500" type="line"/>
      <point x="75" y="500" type="line"/>
      <point x="75" y="-40" type="line" smooth="yes"/>
      <point x="75" y="-82"/>
      <point x="60" y="-98"/>
      <point x="23" y="-98" type="curve" smooth="yes"/>
      <point x="-11" y="-98" type="line"/>
    </contour>
    <contour>
      <point x="206" y="670" type="curve" smooth="yes"/>
      <point x="206" y="711"/>
      <point x="174" y="742"/>
      <point x="133" y="742" type="curve" smooth="yes"/>
      <point x="91" y="742"/>
      <point x="59" y="711"/>
      <point x="59" y="670" type="curve" smooth="yes"/>
      <point x="59" y="630"/>
      <point x="91" y="599"/>
      <point x="133" y="599" type="curve" smooth="yes"/>
      <point x="174" y="599"/>
      <point x="206" y="630"/>
    </contour>
  </outline>
</glyph>
<glyph name="k" format="1">
  <advance width="576"/>
  <unicode hex="006B"/>
  <outline>
    <contour>
      <point x="191" y="0" type="line"/>
      <point x="191" y="720" type="line"/>
      <point x="75" y="720" type="line"/>
      <point x="75" y="0" type="line"/>
    </contour>
    <contour>
      <point x="568" y="0" type="line"/>
      <point x="299" y="269" type="line"/>
      <point x="299" y="250" type="line"/>
      <point x="540" y="500" type="line"/>
      <point x="399" y="500" type="line"/>
      <point x="174" y="260" type="line"/>
      <point x="164" y="260" type="line"/>
      <point x="418" y="0" type="line"/>
    </contour>
    <contour>
      <point x="306" y="-50" type="move" name="bottom.LC"/>
    </contour>
  </outline>
</glyph>
<glyph name="l" format="2">
	<unicode hex="006C"/>
	<advance width="266"/>
	<outline>
		<contour>
			<point x="191" y="0" type="line"/>
			<point x="191" y="720" type="line"/>
			<point x="75" y="720" type="line"/>
			<point x="75" y="0" type="line"/>
		</contour>
	</outline>
	<anchor name="bottom.LC" x="133" y="-50"/>
	<anchor name="top.LC" x="133" y="766"/>
	<anchor name="top_right" x="305" y="540"/>
</glyph>
<glyph name="m" format="2">
	<unicode hex="006D"/>
	<advance width="898"/>
	<outline>
		<contour>
			<point x="830" y="0" type="line"/>
			<point x="830" y="301" type="line" smooth="yes"/>
			<point x="830" y="439"/>
			<point x="765" y="516"/>
			<point x="655" y="516" type="curve" smooth="yes"/>
			<point x="577" y="516"/>
			<point x="504" y="474"/>
			<point x="479" y="375" type="curve"/>
			<point x="492" y="375" type="line"/>
			<point x="475" y="467"/>
			<point x="421" y="516"/>
			<point x="340" y="516" type="curve" smooth="yes"/>
			<point x="269" y="516"/>
			<point x="206" y="477"/>
			<point x="183" y="387" type="curve"/>
			<point x="190" y="386" type="line"/>
			<point x="190" y="500" type="line"/>
			<point x="75" y="500" type="line"/>
			<point x="75" y="0" type="line"/>
			<point x="191" y="0" type="line"/>
			<point x="191" y="241" type="line" smooth="yes"/>
			<point x="191" y="355"/>
			<point x="239" y="418"/>
			<point x="306" y="418" type="curve" smooth="yes"/>
			<point x="362" y="418"/>
			<point x="394" y="373"/>
			<point x="394" y="292" type="curve" smooth="yes"/>
			<point x="394" y="0" type="line"/>
			<point x="510" y="0" type="line"/>
			<point x="510" y="241" type="line" smooth="yes"/>
			<point x="510" y="355"/>
			<point x="558" y="418"/>
			<point x="625" y="418" type="curve" smooth="yes"/>
			<point x="680" y="418"/>
			<point x="714" y="373"/>
			<point x="714" y="292" type="curve" smooth="yes"/>
			<point x="714" y="0" type="line"/>
		</contour>
	</outline>
</glyph>
<glyph name="n" format="2">
	<unicode hex="006E"/>
	<advance width="597"/>
	<outline>
		<contour>
			<point x="529" y="0" type="line"/>
			<point x="529" y="301" type="line" smooth="yes"/>
			<point x="529" y="440"/>
			<point x="460" y="516"/>
			<point x="347" y="516" type="curve" smooth="yes"/>
			<point x="274" y="516"/>
			<point x="192" y="477"/>
			<point x="175" y="346" type="curve"/>
			<point x="190" y="346" type="line"/>
			<point x="190" y="500" type="line"/>
			<point x="75" y="500" type="line"/>
			<point x="75" y="0" type="line"/>
			<point x="191" y="0" type="line"/>
			<point x="191" y="238" type="line" smooth="yes"/>
			<point x="191" y="365"/>
			<point x="251" y="418"/>
			<point x="316" y="418" type="curve" smooth="yes"/>
			<point x="375" y="418"/>
			<point x="413" y="374"/>
			<point x="413" y="289" type="curve" smooth="yes"/>
			<point x="413" y="0" type="line"/>
		</contour>
	</outline>
	<anchor name="bottom.LC" x="302" y="-50"/>
	<anchor name="top.LC" x="319" y="544"/>
</glyph>
<glyph name="o" format="2">
	<unicode hex="006F"/>
	<advance width="613"/>
	<outline>
		<contour>
			<point x="306" y="-16" type="curve" smooth="yes"/>
			<point x="459" y="-16"/>
			<point x="565" y="95"/>
			<point x="565" y="250" type="curve" smooth="yes"/>
			<point x="565" y="405"/>
			<point x="459" y="516"/>
			<point x="306" y="516" type="curve" smooth="yes"/>
			<point x="154" y="516"/>
			<point x="48" y="405"/>
			<point x="48" y="250" type="curve" smooth="yes"/>
			<point x="48" y="95"/>
			<point x="154" y="-16"/>
		</contour>
		<contour>
			<point x="306" y="82" type="curve" smooth="yes"/>
			<point x="224" y="82"/>
			<point x="168" y="152"/>
			<point x="168" y="250" type="curve" smooth="yes"/>
			<point x="168" y="349"/>
			<point x="224" y="418"/>
			<point x="306" y="418" type="curve" smooth="yes"/>
			<point x="389" y="418"/>
			<point x="445" y="349"/>
			<point x="445" y="250" type="curve" smooth="yes"/>
			<point x="445" y="152"/>
			<point x="389" y="82"/>
		</contour>
	</outline>
	<anchor name="bottom.LC" x="306" y="-50"/>
	<anchor name="top.LC" x="306" y="544"/>
</glyph>
<glyph name="p" format="1">
  <advance width="637"/>
  <unicode hex="0070"/>
  <outline>
    <contour>
      <point x="191" y="-194" type="line"/>
      <point x="191" y="244" type="line" smooth="yes"/>
      <point x="191" y="348"/>
      <point x="250" y="418"/>
      <point x="331" y="418" type="curve" smooth="yes"/>
      <point x="414" y="418"/>
      <point x="469" y="348"/>
      <point x="469" y="250" type="curve" smooth="yes"/>
      <point x="469" y="152"/>
      <point x="411" y="82"/>
      <point x="325" y="82" type="curve" smooth="yes"/>
      <point x="252" y="82"/>
      <point x="193" y="135"/>
      <point x="184" y="211" type="curve"/>
      <point x="159" y="193" type="line"/>
      <point x="152" y="75"/>
      <point x="229" y="-16"/>
      <point x="352" y="-16" type="curve" smooth="yes"/>
      <point x="485" y="-16"/>
      <point x="589" y="93"/>
      <point x="589" y="250" type="curve" smooth="yes"/>
      <point x="589" y="406"/>
      <point x="487" y="516"/>
      <point x="355" y="516" type="curve" smooth="yes"/>
      <point x="252" y="516"/>
      <point x="178" y="444"/>
      <point x="165" y="346" type="curve"/>
      <point x="190" y="346" type="line"/>
      <point x="190" y="500" type="line"/>
      <point x="75" y="500" type="line"/>
      <point x="75" y="-194" type="line"/>
    </contour>
  </outline>
</glyph>
<glyph name="q" format="2">
	<unicode hex="0071"/>
	<advance width="637"/>
	<outline>
		<contour>
			<point x="446" y="-194" type="line"/>
			<point x="446" y="244" type="line" smooth="yes"/>
			<point x="446" y="348"/>
			<point x="390" y="418"/>
			<point x="308" y="418" type="curve" smooth="yes"/>
			<point x="225" y="418"/>
			<point x="168" y="348"/>
			<point x="168" y="250" type="curve" smooth="yes"/>
			<point x="168" y="152"/>
			<point x="226" y="82"/>
			<point x="311" y="82" type="curve" smooth="yes"/>
			<point x="384" y="82"/>
			<point x="444" y="135"/>
			<point x="452" y="211" type="curve"/>
			<point x="477" y="193" type="line"/>
			<point x="484" y="75"/>
			<point x="408" y="-16"/>
			<point x="284" y="-16" type="curve" smooth="yes"/>
			<point x="152" y="-16"/>
			<point x="48" y="93"/>
			<point x="48" y="250" type="curve" smooth="yes"/>
			<point x="48" y="406"/>
			<point x="153" y="516"/>
			<point x="284" y="516" type="curve" smooth="yes"/>
			<point x="389" y="516"/>
			<point x="460" y="444"/>
			<point x="473" y="346" type="curve"/>
			<point x="447" y="346" type="line"/>
			<point x="447" y="500" type="line"/>
			<point x="562" y="500" type="line"/>
			<point x="562" y="-194" type="line"/>
		</contour>
	</outline>
</glyph>
<glyph name="r" format="1">
  <advance width="393"/>
  <unicode hex="0072"/>
  <outline>
    <contour>
      <point x="370" y="509" type="line"/>
      <point x="350" y="509" type="line" smooth="yes"/>
      <point x="278" y="509"/>
      <point x="192" y="470"/>
      <point x="175" y="339" type="curve"/>
      <point x="190" y="339" type="line"/>
      <point x="190" y="500" type="line"/>
      <point x="75" y="500" type="line"/>
      <point x="75" y="0" type="line"/>
      <point x="191" y="0" type="line"/>
      <point x="191" y="212" type="line" smooth="yes"/>
      <point x="191" y="343"/>
      <point x="254" y="401"/>
      <point x="346" y="401" type="curve" smooth="yes"/>
      <point x="370" y="401" type="line"/>
    </contour>
    <contour>
      <point x="230" y="544" type="move" name="top.LC"/>
    </contour>
  </outline>
</glyph>
<glyph name="s" format="1">
  <advance width="509"/>
  <unicode hex="0073"/>
  <outline>
    <contour>
      <point x="25" y="74" type="line"/>
      <point x="78" y="18"/>
      <point x="157" y="-16"/>
      <point x="251" y="-16" type="curve" smooth="yes"/>
      <point x="380" y="-16"/>
      <point x="468" y="48"/>
      <point x="468" y="146" type="curve" smooth="yes"/>
      <point x="468" y="237"/>
      <point x="410" y="285"/>
      <point x="265" y="307" type="curve" smooth="yes"/>
      <point x="181" y="320"/>
      <point x="159" y="333"/>
      <point x="159" y="365" type="curve" smooth="yes"/>
      <point x="159" y="402"/>
      <point x="196" y="427"/>
      <point x="252" y="427" type="curve" smooth="yes"/>
      <point x="312" y="427"/>
      <point x="362" y="399"/>
      <point x="399" y="353" type="curve"/>
      <point x="462" y="426" type="line"/>
      <point x="409" y="484"/>
      <point x="337" y="516"/>
      <point x="249" y="516" type="curve" smooth="yes"/>
      <point x="131" y="516"/>
      <point x="47" y="452"/>
      <point x="47" y="358" type="curve" smooth="yes"/>
      <point x="47" y="274"/>
      <point x="104" y="228"/>
      <point x="244" y="207" type="curve" smooth="yes"/>
      <point x="327" y="195"/>
      <point x="355" y="177"/>
      <point x="355" y="140" type="curve" smooth="yes"/>
      <point x="355" y="101"/>
      <point x="314" y="73"/>
      <point x="253" y="73" type="curve" smooth="yes"/>
      <point x="183" y="73"/>
      <point x="127" y="102"/>
      <point x="86" y="147" type="curve"/>
    </contour>
    <contour>
      <point x="253" y="-50" type="move" name="bottom.LC"/>
    </contour>
    <contour>
      <point x="250" y="544" type="move" name="top.LC"/>
    </contour>
  </outline>
</glyph>
<glyph name="t" format="2">
	<unicode hex="0074"/>
	<advance width="396"/>
	<outline>
		<contour>
			<point x="359" y="0" type="line"/>
			<point x="359" y="97" type="line"/>
			<point x="281" y="97" type="line" smooth="yes"/>
			<point x="247" y="97"/>
			<point x="233" y="113"/>
			<point x="233" y="148" type="curve" smooth="yes"/>
			<point x="233" y="636" type="line"/>
			<point x="117" y="636" type="line"/>
			<point x="117" y="130" type="line"/>
			<point x="117" y="44"/>
			<point x="159" y="0"/>
			<point x="242" y="0" type="curve" smooth="yes"/>
		</contour>
		<contour>
			<point x="353" y="405" type="line"/>
			<point x="353" y="500" type="line"/>
			<point x="33" y="500" type="line"/>
			<point x="33" y="405" type="line"/>
		</contour>
	</outline>
	<anchor name="bottom.LC" x="262" y="-50"/>
	<anchor name="top_right.LC.short" x="323" y="540"/>
</glyph>
<glyph name="u" format="1">
  <advance width="595"/>
  <unicode hex="0075"/>
  <outline>
    <contour>
      <point x="522" y="0" type="line"/>
      <point x="522" y="500" type="line"/>
      <point x="406" y="500" type="line"/>
      <point x="406" y="124" type="line"/>
      <point x="407" y="96" type="line"/>
      <point x="407" y="0" type="line"/>
    </contour>
    <contour>
      <point x="413" y="211" type="line"/>
      <point x="405" y="135"/>
      <point x="349" y="82"/>
      <point x="284" y="82" type="curve" smooth="yes"/>
      <point x="223" y="82"/>
      <point x="186" y="123"/>
      <point x="186" y="202" type="curve" smooth="yes"/>
      <point x="186" y="500" type="line"/>
      <point x="70" y="500" type="line"/>
      <point x="70" y="190" type="line" smooth="yes"/>
      <point x="70" y="56"/>
      <point x="141" y="-16"/>
      <point x="251" y="-16" type="curve" smooth="yes"/>
      <point x="364" y="-16"/>
      <point x="440" y="69"/>
      <point x="436" y="192" type="curve"/>
    </contour>
    <contour>
      <point x="291" y="-50" type="move" name="bottom.LC"/>
    </contour>
    <contour>
      <point x="403" y="-30" type="move" name="ogonek.LC"/>
    </contour>
    <contour>
      <point x="291" y="544" type="move" name="top.LC"/>
    </contour>
  </outline>
</glyph>
<glyph name="v" format="1">
  <advance width="567"/>
  <unicode hex="0076"/>
  <outline>
    <contour>
      <point x="340" y="0" type="line"/>
      <point x="541" y="500" type="line"/>
      <point x="426" y="500" type="line"/>
      <point x="273" y="78" type="line"/>
      <point x="300" y="78" type="line"/>
      <point x="147" y="500" type="line"/>
      <point x="27" y="500" type="line"/>
      <point x="227" y="0" type="line"/>
    </contour>
  </outline>
</glyph>
<glyph name="w" format="1">
  <advance width="793"/>
  <unicode hex="0077"/>
  <outline>
    <contour>
      <point x="616" y="0" type="line"/>
      <point x="763" y="500" type="line"/>
      <point x="651" y="500" type="line"/>
      <point x="541" y="69" type="line"/>
      <point x="572" y="69" type="line"/>
      <point x="447" y="500" type="line"/>
      <point x="348" y="500" type="line"/>
      <point x="223" y="69" type="line"/>
      <point x="254" y="69" type="line"/>
      <point x="145" y="500" type="line"/>
      <point x="30" y="500" type="line"/>
      <point x="176" y="0" type="line"/>
      <point x="293" y="0" type="line"/>
      <point x="411" y="396" type="line"/>
      <point x="380" y="396" type="line"/>
      <point x="499" y="0" type="line"/>
    </contour>
    <contour>
      <point x="397" y="544" type="move" name="top.LC"/>
    </contour>
  </outline>
</glyph>
<glyph name="x" format="2">
	<unicode hex="0078"/>
	<advance width="523"/>
	<outline>
		<contour>
			<point x="140" y="0" type="line"/>
			<point x="261" y="188" type="line"/>
			<point x="383" y="0" type="line"/>
			<point x="518" y="0" type="line"/>
			<point x="336" y="260" type="line"/>
			<point x="503" y="500" type="line"/>
			<point x="368" y="500" type="line"/>
			<point x="261" y="329" type="line"/>
			<point x="155" y="500" type="line"/>
			<point x="21" y="500" type="line"/>
			<point x="187" y="260" type="line"/>
			<point x="5" y="0" type="line"/>
		</contour>
	</outline>
</glyph>
<glyph name="y" format="2">
	<unicode hex="0079"/>
	<advance width="568"/>
	<outline>
		<contour>
			<point x="424" y="500" type="line"/>
			<point x="266" y="70" type="line"/>
			<point x="304" y="70" type="line"/>
			<point x="147" y="500" type="line"/>
			<point x="27" y="500" type="line"/>
			<point x="228" y="-2" type="line"/>
			<point x="215" y="-39" type="line" smooth="yes"/>
			<point x="202" y="-79"/>
			<point x="181" y="-97"/>
			<point x="136" y="-97" type="curve" smooth="yes"/>
			<point x="77" y="-97" type="line"/>
			<point x="77" y="-194" type="line"/>
			<point x="141" y="-194" type="line" smooth="yes"/>
			<point x="234" y="-194"/>
			<point x="281" y="-149"/>
			<point x="315" y="-66" type="curve" smooth="yes"/>
			<point x="541" y="500" type="line"/>
		</contour>
	</outline>
	<anchor name="bottom.LC" x="439" y="-50"/>
	<anchor name="top.LC" x="286" y="544"/>
</glyph>
<glyph name="z" format="1">
  <advance width="488"/>
  <unicode hex="007A"/>
  <outline>
    <contour>
      <point x="450" y="0" type="line"/>
      <point x="450" y="95" type="line"/>
      <point x="178" y="95" type="line"/>
      <point x="441" y="405" type="line"/>
      <point x="441" y="500" type="line"/>
      <point x="47" y="500" type="line"/>
      <point x="47" y="405" type="line"/>
      <point x="302" y="405" type="line"/>
      <point x="38" y="95" type="line"/>
      <point x="38" y="0" type="line"/>
    </contour>
    <contour>
      <point x="244" y="544" type="move" name="top.LC"/>
    </contour>
  </outline>
</glyph>
<glyph name="braceleft" format="2">
	<unicode hex="007B"/>
	<advance width="390"/>
	<outline>
		<contour>
			<point x="344" y="-36" type="line"/>
			<point x="293" y="-36" type="line" smooth="yes"/>
			<point x="256" y="-36"/>
			<point x="241" y="-20"/>
			<point x="241" y="20" type="curve" smooth="yes"/>
			<point x="241" y="181" type="line" smooth="yes"/>
			<point x="241" y="271"/>
			<point x="200" y="315"/>
			<point x="112" y="315" type="curve"/>
			<point x="112" y="290" type="line"/>
			<point x="200" y="290"/>
			<point x="241" y="334"/>
			<point x="241" y="426" type="curve" smooth="yes"/>
			<point x="241" y="582" type="line" smooth="yes"/>
			<point x="241" y="622"/>
			<point x="256" y="638"/>
			<point x="294" y="638" type="curve" smooth="yes"/>
			<point x="344" y="638" type="line"/>
			<point x="344" y="731" type="line"/>
			<point x="256" y="731" type="line" smooth="yes"/>
			<point x="169" y="731"/>
			<point x="127" y="687"/>
			<point x="127" y="596" type="curve" smooth="yes"/>
			<point x="127" y="406" type="line" smooth="yes"/>
			<point x="127" y="365"/>
			<point x="113" y="349"/>
			<point x="75" y="349" type="curve" smooth="yes"/>
			<point x="46" y="349" type="line"/>
			<point x="46" y="256" type="line"/>
			<point x="75" y="256" type="line" smooth="yes"/>
			<point x="113" y="256"/>
			<point x="127" y="240"/>
			<point x="127" y="200" type="curve" smooth="yes"/>
			<point x="127" y="6" type="line" smooth="yes"/>
			<point x="127" y="-85"/>
			<point x="169" y="-129"/>
			<point x="256" y="-129" type="curve" smooth="yes"/>
			<point x="344" y="-129" type="line"/>
		</contour>
	</outline>
</glyph>
<glyph name="bar" format="1">
  <advance width="264"/>
  <unicode hex="007C"/>
  <outline>
    <contour>
      <point x="189" y="-129" type="line"/>
      <point x="189" y="736" type="line"/>
      <point x="75" y="736" type="line"/>
      <point x="75" y="-129" type="line"/>
    </contour>
  </outline>
</glyph>
<glyph name="braceright" format="2">
	<unicode hex="007D"/>
	<advance width="390"/>
	<outline>
		<contour>
			<point x="46" y="-36" type="line"/>
			<point x="97" y="-36" type="line" smooth="yes"/>
			<point x="134" y="-36"/>
			<point x="149" y="-20"/>
			<point x="149" y="20" type="curve" smooth="yes"/>
			<point x="149" y="181" type="line" smooth="yes"/>
			<point x="149" y="271"/>
			<point x="191" y="315"/>
			<point x="279" y="315" type="curve"/>
			<point x="279" y="290" type="line"/>
			<point x="191" y="290"/>
			<point x="149" y="334"/>
			<point x="149" y="426" type="curve" smooth="yes"/>
			<point x="149" y="582" type="line" smooth="yes"/>
			<point x="149" y="622"/>
			<point x="134" y="638"/>
			<point x="97" y="638" type="curve" smooth="yes"/>
			<point x="46" y="638" type="line"/>
			<point x="46" y="731" type="line"/>
			<point x="134" y="731" type="line" smooth="yes"/>
			<point x="221" y="731"/>
			<point x="263" y="687"/>
			<point x="263" y="596" type="curve" smooth="yes"/>
			<point x="263" y="406" type="line" smooth="yes"/>
			<point x="263" y="365"/>
			<point x="278" y="349"/>
			<point x="315" y="349" type="curve" smooth="yes"/>
			<point x="344" y="349" type="line"/>
			<point x="344" y="256" type="line"/>
			<point x="315" y="256" type="line" smooth="yes"/>
			<point x="278" y="256"/>
			<point x="263" y="240"/>
			<point x="263" y="200" type="curve" smooth="yes"/>
			<point x="263" y="6" type="line" smooth="yes"/>
			<point x="263" y="-85"/>
			<point x="221" y="-129"/>
			<point x="134" y="-129" type="curve" smooth="yes"/>
			<point x="46" y="-129" type="line"/>
		</contour>
	</outline>
</glyph>
<glyph name="asciitilde" format="2">
	<unicode hex="007E"/>
	<advance width="632"/>
	<outline>
		<contour>
			<point x="148" y="258" type="line"/>
			<point x="166" y="322"/>
			<point x="188" y="352"/>
			<point x="219" y="352" type="curve" smooth="yes"/>
			<point x="237" y="352"/>
			<point x="250" y="343"/>
			<point x="293" y="310" type="curve" smooth="yes"/>
			<point x="348" y="266"/>
			<point x="380" y="251"/>
			<point x="416" y="251" type="curve" smooth="yes"/>
			<point x="492" y="251"/>
			<point x="539" y="298"/>
			<point x="570" y="406" type="curve"/>
			<point x="483" y="452" type="line"/>
			<point x="466" y="388"/>
			<point x="443" y="359"/>
			<point x="413" y="359" type="curve" smooth="yes"/>
			<point x="394" y="359"/>
			<point x="380" y="367"/>
			<point x="338" y="401" type="curve" smooth="yes"/>
			<point x="286" y="444"/>
			<point x="252" y="459"/>
			<point x="215" y="459" type="curve" smooth="yes"/>
			<point x="139" y="459"/>
			<point x="92" y="412"/>
			<point x="61" y="304" type="curve"/>
		</contour>
	</outline>
</glyph>
<glyph name="exclamdown" format="2">
	<unicode hex="00A1"/>
	<advance width="263"/>
	<outline>
		<contour>
			<point x="101" y="269" type="line"/>
			<point x="94" y="206"/>
			<point x="66" y="-148"/>
			<point x="66" y="-169" type="curve" smooth="yes"/>
			<point x="66" y="-216"/>
			<point x="96" y="-243"/>
			<point x="133" y="-243" type="curve"/>
			<point x="170" y="-243"/>
			<point x="200" y="-216"/>
			<point x="200" y="-169" type="curve" smooth="yes"/>
			<point x="200" y="-148"/>
			<point x="173" y="206"/>
			<point x="166" y="269" type="curve"/>
		</contour>
		<contour>
			<point x="133" y="500" type="curve" smooth="yes"/>
			<point x="89" y="500"/>
			<point x="57" y="467"/>
			<point x="57" y="423" type="curve" smooth="yes"/>
			<point x="57" y="380"/>
			<point x="89" y="347"/>
			<point x="133" y="347" type="curve" smooth="yes"/>
			<point x="177" y="347"/>
			<point x="210" y="380"/>
			<point x="210" y="423" type="curve" smooth="yes"/>
			<point x="210" y="467"/>
			<point x="177" y="500"/>
		</contour>
	</outline>
</glyph>
<glyph name="cent" format="2">
	<unicode hex="00A2"/>
	<advance width="632"/>
	<outline>
		<contour>
			<point x="377" y="-116" type="line"/>
			<point x="377" y="616" type="line"/>
			<point x="312" y="616" type="line"/>
			<point x="312" y="-116" type="line"/>
		</contour>
		<contour>
			<point x="478" y="157" type="line"/>
			<point x="448" y="108"/>
			<point x="403" y="81"/>
			<point x="352" y="81" type="curve" smooth="yes"/>
			<point x="265" y="81"/>
			<point x="206" y="148"/>
			<point x="206" y="250" type="curve" smooth="yes"/>
			<point x="206" y="353"/>
			<point x="264" y="419"/>
			<point x="352" y="419" type="curve" smooth="yes"/>
			<point x="401" y="419"/>
			<point x="449" y="391"/>
			<point x="477" y="343" type="curve"/>
			<point x="552" y="417" type="line"/>
			<point x="504" y="481"/>
			<point x="432" y="516"/>
			<point x="347" y="516" type="curve" smooth="yes"/>
			<point x="193" y="516"/>
			<point x="86" y="407"/>
			<point x="86" y="250" type="curve" smooth="yes"/>
			<point x="86" y="96"/>
			<point x="193" y="-16"/>
			<point x="346" y="-16" type="curve" smooth="yes"/>
			<point x="429" y="-16"/>
			<point x="503" y="20"/>
			<point x="552" y="84" type="curve"/>
		</contour>
	</outline>
</glyph>
<glyph name="sterling" format="2">
	<unicode hex="00A3"/>
	<advance width="632"/>
	<outline>
		<contour>
			<point x="581" y="0" type="line"/>
			<point x="581" y="98" type="line"/>
			<point x="62" y="98" type="line"/>
			<point x="62" y="0" type="line"/>
		</contour>
		<contour>
			<point x="472" y="306" type="line"/>
			<point x="472" y="399" type="line"/>
			<point x="71" y="399" type="line"/>
			<point x="71" y="306" type="line"/>
		</contour>
		<contour>
			<point x="582" y="611" type="line"/>
			<point x="534" y="689"/>
			<point x="461" y="731"/>
			<point x="376" y="731" type="curve" smooth="yes"/>
			<point x="239" y="731"/>
			<point x="151" y="636"/>
			<point x="151" y="487" type="curve" smooth="yes"/>
			<point x="151" y="49" type="line"/>
			<point x="267" y="49" type="line"/>
			<point x="267" y="489" type="line" smooth="yes"/>
			<point x="267" y="577"/>
			<point x="308" y="630"/>
			<point x="376" y="630" type="curve" smooth="yes"/>
			<point x="427" y="630"/>
			<point x="464" y="604"/>
			<point x="502" y="538" type="curve"/>
		</contour>
	</outline>
</glyph>
<glyph name="currency" format="2">
	<unicode hex="00A4"/>
	<advance width="594"/>
	<outline>
		<contour>
			<point x="297" y="245" type="curve" smooth="yes"/>
			<point x="227" y="245"/>
			<point x="174" y="301"/>
			<point x="174" y="376" type="curve" smooth="yes"/>
			<point x="174" y="450"/>
			<point x="227" y="506"/>
			<point x="297" y="506" type="curve" smooth="yes"/>
			<point x="367" y="506"/>
			<point x="420" y="450"/>
			<point x="420" y="376" type="curve" smooth="yes"/>
			<point x="420" y="301"/>
			<point x="367" y="245"/>
		</contour>
		<contour>
			<point x="297" y="160" type="curve" smooth="yes"/>
			<point x="342" y="160"/>
			<point x="383" y="173"/>
			<point x="417" y="196" type="curve"/>
			<point x="492" y="121" type="line"/>
			<point x="547" y="176" type="line"/>
			<point x="474" y="249" type="line"/>
			<point x="499" y="284"/>
			<point x="515" y="328"/>
			<point x="515" y="376" type="curve" smooth="yes"/>
			<point x="515" y="423"/>
			<point x="499" y="467"/>
			<point x="474" y="502" type="curve"/>
			<point x="547" y="575" type="line"/>
			<point x="492" y="630" type="line"/>
			<point x="417" y="555" type="line"/>
			<point x="383" y="578"/>
			<point x="342" y="591"/>
			<point x="297" y="591" type="curve" smooth="yes"/>
			<point x="253" y="591"/>
			<point x="211" y="578"/>
			<point x="177" y="555" type="curve"/>
			<point x="102" y="630" type="line"/>
			<point x="48" y="575" type="line"/>
			<point x="121" y="502" type="line"/>
			<point x="95" y="467"/>
			<point x="80" y="423"/>
			<point x="80" y="376" type="curve" smooth="yes"/>
			<point x="80" y="328"/>
			<point x="95" y="284"/>
			<point x="121" y="249" type="curve"/>
			<point x="48" y="176" type="line"/>
			<point x="102" y="121" type="line"/>
			<point x="177" y="196" type="line"/>
			<point x="211" y="173"/>
			<point x="253" y="160"/>
		</contour>
	</outline>
</glyph>
<glyph name="yen" format="2">
	<unicode hex="00A5"/>
	<advance width="632"/>
	<outline>
		<contour>
			<point x="534" y="124" type="line"/>
			<point x="534" y="209" type="line"/>
			<point x="98" y="209" type="line"/>
			<point x="98" y="124" type="line"/>
		</contour>
		<contour>
			<point x="534" y="280" type="line"/>
			<point x="534" y="365" type="line"/>
			<point x="98" y="365" type="line"/>
			<point x="98" y="280" type="line"/>
		</contour>
		<contour>
			<point x="375" y="0" type="line"/>
			<point x="375" y="307" type="line"/>
			<point x="608" y="715" type="line"/>
			<point x="479" y="715" type="line"/>
			<point x="307" y="391" type="line"/>
			<point x="328" y="391" type="line"/>
			<point x="156" y="715" type="line"/>
			<point x="24" y="715" type="line"/>
			<point x="257" y="309" type="line"/>
			<point x="257" y="0" type="line"/>
		</contour>
	</outline>
</glyph>
<glyph name="brokenbar" format="1">
  <advance width="264"/>
  <unicode hex="00A6"/>
  <outline>
    <contour>
      <point x="189" y="390" type="line"/>
      <point x="189" y="736" type="line"/>
      <point x="75" y="736" type="line"/>
      <point x="75" y="390" type="line"/>
    </contour>
    <contour>
      <point x="189" y="-129" type="line"/>
      <point x="189" y="217" type="line"/>
      <point x="75" y="217" type="line"/>
      <point x="75" y="-129" type="line"/>
    </contour>
  </outline>
</glyph>
<glyph name="section" format="2">
	<unicode hex="00A7"/>
	<advance width="529"/>
	<outline>
		<contour>
			<point x="488" y="311" type="curve" smooth="yes"/>
			<point x="488" y="397"/>
			<point x="428" y="447"/>
			<point x="288" y="479" type="curve" smooth="yes"/>
			<point x="211" y="497"/>
			<point x="180" y="523"/>
			<point x="180" y="568" type="curve" smooth="yes"/>
			<point x="180" y="615"/>
			<point x="216" y="645"/>
			<point x="272" y="645" type="curve" smooth="yes"/>
			<point x="326" y="645"/>
			<point x="376" y="619"/>
			<point x="412" y="571" type="curve"/>
			<point x="472" y="639" type="line"/>
			<point x="422" y="699"/>
			<point x="351" y="731"/>
			<point x="271" y="731" type="curve" smooth="yes"/>
			<point x="160" y="731"/>
			<point x="79" y="659"/>
			<point x="79" y="560" type="curve" smooth="yes"/>
			<point x="79" y="508"/>
			<point x="102" y="466"/>
			<point x="146" y="436" type="curve"/>
			<point x="89" y="404"/>
			<point x="57" y="354"/>
			<point x="57" y="296" type="curve" smooth="yes"/>
			<point x="57" y="211"/>
			<point x="118" y="160"/>
			<point x="259" y="127" type="curve" smooth="yes"/>
			<point x="338" y="108"/>
			<point x="368" y="83"/>
			<point x="368" y="34" type="curve" smooth="yes"/>
			<point x="368" y="-10"/>
			<point x="327" y="-41"/>
			<point x="268" y="-41" type="curve" smooth="yes"/>
			<point x="206" y="-41"/>
			<point x="147" y="-12"/>
			<point x="111" y="33" type="curve"/>
			<point x="53" y="-34" type="line"/>
			<point x="102" y="-93"/>
			<point x="183" y="-129"/>
			<point x="267" y="-129" type="curve" smooth="yes"/>
			<point x="383" y="-129"/>
			<point x="469" y="-56"/>
			<point x="469" y="41" type="curve" smooth="yes"/>
			<point x="469" y="96"/>
			<point x="446" y="139"/>
			<point x="399" y="171" type="curve"/>
			<point x="456" y="202"/>
			<point x="488" y="252"/>
		</contour>
		<contour>
			<point x="388" y="296" type="curve" smooth="yes"/>
			<point x="388" y="258"/>
			<point x="361" y="225"/>
			<point x="315" y="209" type="curve"/>
			<point x="280" y="219" type="line" smooth="yes"/>
			<point x="189" y="242"/>
			<point x="158" y="266"/>
			<point x="158" y="311" type="curve" smooth="yes"/>
			<point x="158" y="349"/>
			<point x="185" y="382"/>
			<point x="231" y="398" type="curve"/>
			<point x="266" y="388" type="line" smooth="yes"/>
			<point x="356" y="365"/>
			<point x="388" y="340"/>
		</contour>
	</outline>
</glyph>
<glyph name="copyright" format="1">
  <advance width="848"/>
  <unicode hex="00A9"/>
  <outline>
    <contour>
      <point x="531" y="280" type="line"/>
      <point x="508" y="244"/>
      <point x="473" y="223"/>
      <point x="432" y="223" type="curve" smooth="yes"/>
      <point x="367" y="223"/>
      <point x="318" y="280"/>
      <point x="318" y="358" type="curve" smooth="yes"/>
      <point x="318" y="438"/>
      <point x="367" y="494"/>
      <point x="432" y="494" type="curve" smooth="yes"/>
      <point x="473" y="494"/>
      <point x="508" y="472"/>
      <point x="531" y="438" type="curve"/>
      <point x="588" y="495" type="line"/>
      <point x="554" y="541"/>
      <point x="499" y="572"/>
      <point x="428" y="572" type="curve" smooth="yes"/>
      <point x="310" y="572"/>
      <point x="222" y="483"/>
      <point x="222" y="358" type="curve" smooth="yes"/>
      <point x="222" y="234"/>
      <point x="308" y="145"/>
      <point x="426" y="145" type="curve" smooth="yes"/>
      <point x="497" y="145"/>
      <point x="554" y="175"/>
      <point x="588" y="221" type="curve"/>
    </contour>
    <contour>
      <point x="424" y="-26" type="curve" smooth="yes"/>
      <point x="637" y="-26"/>
      <point x="805" y="144"/>
      <point x="805" y="358" type="curve" smooth="yes"/>
      <point x="805" y="572"/>
      <point x="637" y="742"/>
      <point x="424" y="742" type="curve" smooth="yes"/>
      <point x="211" y="742"/>
      <point x="43" y="572"/>
      <point x="43" y="358" type="curve" smooth="yes"/>
      <point x="43" y="144"/>
      <point x="211" y="-26"/>
    </contour>
    <contour>
      <point x="424" y="51" type="curve" smooth="yes"/>
      <point x="255" y="51"/>
      <point x="121" y="186"/>
      <point x="121" y="358" type="curve" smooth="yes"/>
      <point x="121" y="530"/>
      <point x="255" y="665"/>
      <point x="424" y="665" type="curve" smooth="yes"/>
      <point x="593" y="665"/>
      <point x="727" y="530"/>
      <point x="727" y="358" type="curve" smooth="yes"/>
      <point x="727" y="186"/>
      <point x="593" y="51"/>
    </contour>
  </outline>
</glyph>
<glyph name="ordfeminine" format="1">
  <advance width="432"/>
  <unicode hex="00AA"/>
  <outline>
    <contour>
      <point x="389" y="309" type="line"/>
      <point x="389" y="551" type="line" smooth="yes"/>
      <point x="389" y="654"/>
      <point x="315" y="715"/>
      <point x="205" y="715" type="curve" smooth="yes"/>
      <point x="140" y="715"/>
      <point x="81" y="690"/>
      <point x="42" y="649" type="curve"/>
      <point x="95" y="587" type="line"/>
      <point x="122" y="618"/>
      <point x="158" y="637"/>
      <point x="199" y="637" type="curve" smooth="yes"/>
      <point x="256" y="637"/>
      <point x="291" y="604"/>
      <point x="291" y="549" type="curve" smooth="yes"/>
      <point x="291" y="401" type="line"/>
      <point x="296" y="389" type="line"/>
      <point x="296" y="309" type="line"/>
    </contour>
    <contour>
      <point x="172" y="297" type="curve" smooth="yes"/>
      <point x="265" y="297"/>
      <point x="326" y="362"/>
      <point x="326" y="459" type="curve"/>
      <point x="300" y="473" type="line"/>
      <point x="295" y="414"/>
      <point x="253" y="373"/>
      <point x="198" y="373" type="curve" smooth="yes"/>
      <point x="160" y="373"/>
      <point x="135" y="395"/>
      <point x="135" y="429" type="curve" smooth="yes"/>
      <point x="135" y="468"/>
      <point x="167" y="489"/>
      <point x="217" y="489" type="curve" smooth="yes"/>
      <point x="299" y="489" type="line"/>
      <point x="299" y="554" type="line"/>
      <point x="210" y="554" type="line" smooth="yes"/>
      <point x="100" y="554"/>
      <point x="30" y="506"/>
      <point x="30" y="425" type="curve" smooth="yes"/>
      <point x="30" y="349"/>
      <point x="88" y="297"/>
    </contour>
  </outline>
</glyph>
<glyph name="logicalnot" format="1">
  <advance width="632"/>
  <unicode hex="00AC"/>
  <outline>
    <contour>
      <point x="518" y="160" type="line"/>
      <point x="518" y="405" type="line"/>
      <point x="114" y="405" type="line"/>
      <point x="114" y="310" type="line"/>
      <point x="425" y="310" type="line"/>
      <point x="425" y="160" type="line"/>
    </contour>
  </outline>
</glyph>
<glyph name="registered" format="1">
  <advance width="524"/>
  <unicode hex="00AE"/>
  <outline>
    <contour>
      <point x="224" y="384" type="line"/>
      <point x="224" y="562" type="line"/>
      <point x="269" y="562" type="line" smooth="yes"/>
      <point x="289" y="562"/>
      <point x="303" y="550"/>
      <point x="303" y="531" type="curve" smooth="yes"/>
      <point x="303" y="514"/>
      <point x="289" y="501"/>
      <point x="269" y="501" type="curve" smooth="yes"/>
      <point x="221" y="501" type="line"/>
      <point x="221" y="460" type="line"/>
      <point x="269" y="460" type="line" smooth="yes"/>
      <point x="318" y="460"/>
      <point x="352" y="489"/>
      <point x="352" y="531" type="curve" smooth="yes"/>
      <point x="352" y="574"/>
      <point x="318" y="604"/>
      <point x="269" y="604" type="curve" smooth="yes"/>
      <point x="177" y="604" type="line"/>
      <point x="177" y="384" type="line"/>
    </contour>
    <contour>
      <point x="369" y="384" type="line"/>
      <point x="292" y="472" type="line"/>
      <point x="237" y="472" type="line"/>
      <point x="311" y="384" type="line"/>
    </contour>
    <contour>
      <point x="262" y="255" type="curve" smooth="yes"/>
      <point x="388" y="255"/>
      <point x="490" y="359"/>
      <point x="490" y="488" type="curve" smooth="yes"/>
      <point x="490" y="617"/>
      <point x="388" y="721"/>
      <point x="262" y="721" type="curve" smooth="yes"/>
      <point x="136" y="721"/>
      <point x="34" y="617"/>
      <point x="34" y="488" type="curve" smooth="yes"/>
      <point x="34" y="359"/>
      <point x="136" y="255"/>
    </contour>
    <contour>
      <point x="262" y="317" type="curve" smooth="yes"/>
      <point x="168" y="317"/>
      <point x="98" y="387"/>
      <point x="98" y="488" type="curve" smooth="yes"/>
      <point x="98" y="589"/>
      <point x="168" y="659"/>
      <point x="262" y="659" type="curve" smooth="yes"/>
      <point x="356" y="659"/>
      <point x="426" y="589"/>
      <point x="426" y="488" type="curve" smooth="yes"/>
      <point x="426" y="387"/>
      <point x="356" y="317"/>
    </contour>
  </outline>
</glyph>
<glyph name="degree" format="2">
	<unicode hex="00B0"/>
	<advance width="465"/>
	<outline>
		<contour>
			<point x="233" y="376" type="curve" smooth="yes"/>
			<point x="332" y="376"/>
			<point x="413" y="456"/>
			<point x="413" y="553" type="curve" smooth="yes"/>
			<point x="413" y="651"/>
			<point x="332" y="731"/>
			<point x="233" y="731" type="curve" smooth="yes"/>
			<point x="134" y="731"/>
			<point x="53" y="651"/>
			<point x="53" y="553" type="curve" smooth="yes"/>
			<point x="53" y="456"/>
			<point x="134" y="376"/>
		</contour>
		<contour>
			<point x="233" y="459" type="curve" smooth="yes"/>
			<point x="183" y="459"/>
			<point x="143" y="500"/>
			<point x="143" y="553" type="curve" smooth="yes"/>
			<point x="143" y="607"/>
			<point x="183" y="648"/>
			<point x="233" y="648" type="curve" smooth="yes"/>
			<point x="283" y="648"/>
			<point x="322" y="607"/>
			<point x="322" y="553" type="curve" smooth="yes"/>
			<point x="322" y="500"/>
			<point x="283" y="459"/>
		</contour>
	</outline>
</glyph>
<glyph name="micro" format="1">
  <advance width="632"/>
  <unicode hex="00B5"/>
  <outline>
    <contour>
      <point x="427" y="0" type="line"/>
      <point x="542" y="0" type="line"/>
      <point x="542" y="500" type="line"/>
      <point x="426" y="500" type="line"/>
      <point x="426" y="124" type="line"/>
      <point x="427" y="96" type="line"/>
    </contour>
    <contour>
      <point x="90" y="-194" type="line"/>
      <point x="206" y="-194" type="line"/>
      <point x="206" y="94" type="line"/>
      <point x="144" y="63" type="line"/>
      <point x="168" y="11"/>
      <point x="217" y="-16"/>
      <point x="280" y="-16" type="curve" smooth="yes"/>
      <point x="388" y="-16"/>
      <point x="460" y="70"/>
      <point x="457" y="192" type="curve"/>
      <point x="433" y="211" type="line"/>
      <point x="425" y="135"/>
      <point x="369" y="82"/>
      <point x="304" y="82" type="curve" smooth="yes"/>
      <point x="243" y="82"/>
      <point x="206" y="123"/>
      <point x="206" y="202" type="curve" smooth="yes"/>
      <point x="206" y="500" type="line"/>
      <point x="90" y="500" type="line"/>
    </contour>
  </outline>
</glyph>
<glyph name="paragraph" format="1">
  <advance width="594"/>
  <unicode hex="00B6"/>
  <outline>
    <contour>
      <point x="327" y="-130" type="line"/>
      <point x="327" y="615" type="line"/>
      <point x="421" y="615" type="line"/>
      <point x="421" y="-130" type="line"/>
      <point x="528" y="-130" type="line"/>
      <point x="528" y="715" type="line"/>
      <point x="268" y="715" type="line" smooth="yes"/>
      <point x="124" y="715"/>
      <point x="27" y="626"/>
      <point x="27" y="492" type="curve" smooth="yes"/>
      <point x="27" y="375"/>
      <point x="104" y="288"/>
      <point x="219" y="275" type="curve"/>
      <point x="219" y="-130" type="line"/>
    </contour>
  </outline>
</glyph>
<glyph name="ordmasculine" format="1">
  <advance width="479"/>
  <unicode hex="00BA"/>
  <outline>
    <contour>
      <point x="239" y="297" type="curve" smooth="yes"/>
      <point x="361" y="297"/>
      <point x="445" y="384"/>
      <point x="445" y="506" type="curve" smooth="yes"/>
      <point x="445" y="629"/>
      <point x="361" y="715"/>
      <point x="239" y="715" type="curve" smooth="yes"/>
      <point x="118" y="715"/>
      <point x="33" y="629"/>
      <point x="33" y="506" type="curve" smooth="yes"/>
      <point x="33" y="384"/>
      <point x="118" y="297"/>
    </contour>
    <contour>
      <point x="239" y="382" type="curve" smooth="yes"/>
      <point x="182" y="382"/>
      <point x="142" y="434"/>
      <point x="142" y="506" type="curve" smooth="yes"/>
      <point x="142" y="579"/>
      <point x="182" y="630"/>
      <point x="239" y="630" type="curve" smooth="yes"/>
      <point x="298" y="630"/>
      <point x="337" y="579"/>
      <point x="337" y="506" type="curve" smooth="yes"/>
      <point x="337" y="434"/>
      <point x="298" y="382"/>
    </contour>
  </outline>
</glyph>
<glyph name="questiondown" format="1">
  <advance width="585"/>
  <unicode hex="00BF"/>
  <outline>
    <contour>
      <point x="273" y="269" type="line"/>
      <point x="272" y="211"/>
      <point x="256" y="181"/>
      <point x="193" y="139" type="curve" smooth="yes"/>
      <point x="102" y="80"/>
      <point x="69" y="33"/>
      <point x="69" y="-51" type="curve" smooth="yes"/>
      <point x="69" y="-166"/>
      <point x="159" y="-243"/>
      <point x="293" y="-243" type="curve" smooth="yes"/>
      <point x="389" y="-243"/>
      <point x="477" y="-196"/>
      <point x="540" y="-111" type="curve"/>
      <point x="463" y="-36" type="line"/>
      <point x="418" y="-107"/>
      <point x="361" y="-143"/>
      <point x="296" y="-143" type="curve" smooth="yes"/>
      <point x="228" y="-143"/>
      <point x="185" y="-106"/>
      <point x="185" y="-47" type="curve" smooth="yes"/>
      <point x="185" y="0"/>
      <point x="204" y="30"/>
      <point x="253" y="62" type="curve" smooth="yes"/>
      <point x="345" y="122"/>
      <point x="368" y="168"/>
      <point x="356" y="269" type="curve"/>
    </contour>
    <contour>
      <point x="315" y="500" type="curve" smooth="yes"/>
      <point x="271" y="500"/>
      <point x="238" y="467"/>
      <point x="238" y="423" type="curve" smooth="yes"/>
      <point x="238" y="380"/>
      <point x="271" y="347"/>
      <point x="315" y="347" type="curve" smooth="yes"/>
      <point x="359" y="347"/>
      <point x="391" y="380"/>
      <point x="391" y="423" type="curve" smooth="yes"/>
      <point x="391" y="467"/>
      <point x="359" y="500"/>
    </contour>
  </outline>
</glyph>
<glyph name="AE" format="1">
  <advance width="1032"/>
  <unicode hex="00C6"/>
  <outline>
    <contour>
      <point x="27" y="0" type="line"/>
      <point x="158" y="0" type="line"/>
      <point x="578" y="715" type="line"/>
      <point x="462" y="715" type="line"/>
    </contour>
    <contour>
      <point x="570" y="168" type="line"/>
      <point x="570" y="270" type="line"/>
      <point x="226" y="270" type="line"/>
      <point x="226" y="168" type="line"/>
    </contour>
    <contour>
      <point x="985" y="0" type="line"/>
      <point x="985" y="102" type="line"/>
      <point x="636" y="102" type="line"/>
      <point x="636" y="613" type="line"/>
      <point x="984" y="613" type="line"/>
      <point x="984" y="715" type="line"/>
      <point x="517" y="715" type="line"/>
      <point x="517" y="0" type="line"/>
    </contour>
    <contour>
      <point x="967" y="312" type="line"/>
      <point x="967" y="414" type="line"/>
      <point x="626" y="414" type="line"/>
      <point x="626" y="312" type="line"/>
    </contour>
  </outline>
</glyph>
<glyph name="Eth" format="2">
	<unicode hex="00D0"/>
	<advance width="752"/>
	<outline>
		<contour>
			<point x="94" y="0" type="line"/>
			<point x="335" y="0" type="line" smooth="yes"/>
			<point x="550" y="0"/>
			<point x="695" y="149"/>
			<point x="695" y="358" type="curve" smooth="yes"/>
			<point x="695" y="566"/>
			<point x="550" y="715"/>
			<point x="335" y="715" type="curve" smooth="yes"/>
			<point x="94" y="715" type="line"/>
		</contour>
		<contour>
			<point x="213" y="103" type="line"/>
			<point x="213" y="612" type="line"/>
			<point x="335" y="612" type="line" smooth="yes"/>
			<point x="480" y="612"/>
			<point x="570" y="511"/>
			<point x="570" y="358" type="curve" smooth="yes"/>
			<point x="570" y="204"/>
			<point x="480" y="103"/>
			<point x="335" y="103" type="curve" smooth="yes"/>
		</contour>
		<contour>
			<point x="370" y="312" type="line"/>
			<point x="370" y="414" type="line"/>
			<point x="33" y="414" type="line"/>
			<point x="33" y="312" type="line"/>
		</contour>
	</outline>
</glyph>
<glyph name="multiply" format="1">
  <advance width="632"/>
  <unicode hex="00D7"/>
  <outline>
    <contour>
      <point x="503" y="228" type="line"/>
      <point x="196" y="551" type="line"/>
      <point x="131" y="486" type="line"/>
      <point x="438" y="162" type="line"/>
    </contour>
    <contour>
      <point x="196" y="162" type="line"/>
      <point x="503" y="486" type="line"/>
      <point x="438" y="551" type="line"/>
      <point x="131" y="228" type="line"/>
    </contour>
  </outline>
</glyph>
<glyph name="Oslash" format="1">
  <advance width="828"/>
  <unicode hex="00D8"/>
  <outline>
    <contour>
      <point x="117" y="-27" type="line"/>
      <point x="783" y="671" type="line"/>
      <point x="712" y="742" type="line"/>
      <point x="45" y="44" type="line"/>
    </contour>
    <contour>
      <point x="414" y="-16" type="curve" smooth="yes"/>
      <point x="621" y="-16"/>
      <point x="771" y="143"/>
      <point x="771" y="358" type="curve" smooth="yes"/>
      <point x="771" y="572"/>
      <point x="621" y="731"/>
      <point x="414" y="731" type="curve" smooth="yes"/>
      <point x="208" y="731"/>
      <point x="58" y="572"/>
      <point x="58" y="358" type="curve" smooth="yes"/>
      <point x="58" y="143"/>
      <point x="208" y="-16"/>
    </contour>
    <contour>
      <point x="414" y="91" type="curve" smooth="yes"/>
      <point x="276" y="91"/>
      <point x="182" y="200"/>
      <point x="182" y="358" type="curve" smooth="yes"/>
      <point x="182" y="513"/>
      <point x="278" y="624"/>
      <point x="414" y="624" type="curve" smooth="yes"/>
      <point x="553" y="624"/>
      <point x="647" y="515"/>
      <point x="647" y="358" type="curve" smooth="yes"/>
      <point x="647" y="203"/>
      <point x="552" y="91"/>
    </contour>
  </outline>
</glyph>
<glyph name="Thorn" format="2">
	<unicode hex="00DE"/>
	<advance width="649"/>
	<outline>
		<contour>
			<point x="203" y="468" type="line"/>
			<point x="365" y="468" type="line" smooth="yes"/>
			<point x="437" y="468"/>
			<point x="481" y="426"/>
			<point x="481" y="357" type="curve" smooth="yes"/>
			<point x="481" y="287"/>
			<point x="437" y="245"/>
			<point x="365" y="245" type="curve" smooth="yes"/>
			<point x="203" y="245" type="line"/>
			<point x="203" y="143" type="line"/>
			<point x="365" y="143" type="line" smooth="yes"/>
			<point x="506" y="143"/>
			<point x="602" y="229"/>
			<point x="602" y="357" type="curve" smooth="yes"/>
			<point x="602" y="484"/>
			<point x="506" y="570"/>
			<point x="365" y="570" type="curve" smooth="yes"/>
			<point x="203" y="570" type="line"/>
		</contour>
		<contour>
			<point x="213" y="0" type="line"/>
			<point x="213" y="715" type="line"/>
			<point x="94" y="715" type="line"/>
			<point x="94" y="0" type="line"/>
		</contour>
	</outline>
</glyph>
<glyph name="germandbls" format="1">
  <advance width="630"/>
  <unicode hex="00DF"/>
  <outline>
    <contour>
      <point x="189" y="0" type="line"/>
      <point x="189" y="455" type="line" smooth="yes"/>
      <point x="189" y="578"/>
      <point x="240" y="636"/>
      <point x="314" y="636" type="curve" smooth="yes"/>
      <point x="379" y="636"/>
      <point x="413" y="592"/>
      <point x="413" y="533" type="curve" smooth="yes"/>
      <point x="413" y="466"/>
      <point x="370" y="421"/>
      <point x="305" y="421" type="curve" smooth="yes"/>
      <point x="284" y="421" type="line"/>
      <point x="284" y="324" type="line"/>
      <point x="327" y="324" type="line" smooth="yes"/>
      <point x="400" y="324"/>
      <point x="468" y="274"/>
      <point x="468" y="191" type="curve" smooth="yes"/>
      <point x="468" y="123"/>
      <point x="427" y="78"/>
      <point x="372" y="78" type="curve" smooth="yes"/>
      <point x="338" y="78"/>
      <point x="305" y="93"/>
      <point x="282" y="117" type="curve"/>
      <point x="235" y="36" type="line"/>
      <point x="268" y="4"/>
      <point x="327" y="-16"/>
      <point x="379" y="-16" type="curve" smooth="yes"/>
      <point x="503" y="-16"/>
      <point x="589" y="67"/>
      <point x="589" y="190" type="curve" smooth="yes"/>
      <point x="589" y="325"/>
      <point x="479" y="404"/>
      <point x="341" y="404" type="curve" smooth="yes"/>
      <point x="302" y="404" type="line"/>
      <point x="302" y="352" type="line"/>
      <point x="305" y="352" type="line" smooth="yes"/>
      <point x="447" y="352"/>
      <point x="534" y="430"/>
      <point x="534" y="535" type="curve" smooth="yes"/>
      <point x="534" y="643"/>
      <point x="445" y="731"/>
      <point x="312" y="731" type="curve" smooth="yes"/>
      <point x="173" y="731"/>
      <point x="70" y="635"/>
      <point x="70" y="466" type="curve" smooth="yes"/>
      <point x="70" y="0" type="line"/>
    </contour>
  </outline>
</glyph>
<glyph name="ae" format="2">
	<unicode hex="00E6"/>
	<advance width="918"/>
	<outline>
		<contour>
			<point x="800" y="150" type="line"/>
			<point x="764" y="103"/>
			<point x="718" y="78"/>
			<point x="659" y="78" type="curve" smooth="yes"/>
			<point x="561" y="78"/>
			<point x="504" y="146"/>
			<point x="504" y="252" type="curve" smooth="yes"/>
			<point x="504" y="356"/>
			<point x="555" y="423"/>
			<point x="634" y="423" type="curve" smooth="yes"/>
			<point x="710" y="423"/>
			<point x="755" y="362"/>
			<point x="755" y="260" type="curve" smooth="yes"/>
			<point x="755" y="248" type="line"/>
			<point x="869" y="248" type="line"/>
			<point x="869" y="254" type="line" smooth="yes"/>
			<point x="869" y="406"/>
			<point x="772" y="516"/>
			<point x="636" y="516" type="curve" smooth="yes"/>
			<point x="493" y="516"/>
			<point x="388" y="403"/>
			<point x="388" y="250" type="curve" smooth="yes"/>
			<point x="388" y="95"/>
			<point x="495" y="-16"/>
			<point x="654" y="-16" type="curve" smooth="yes"/>
			<point x="738" y="-16"/>
			<point x="811" y="15"/>
			<point x="864" y="77" type="curve"/>
		</contour>
		<contour>
			<point x="869" y="217" type="line"/>
			<point x="869" y="254" type="line"/>
			<point x="853" y="296" type="line"/>
			<point x="463" y="296" type="line"/>
			<point x="463" y="217" type="line"/>
		</contour>
		<contour>
			<point x="473" y="257" type="line"/>
			<point x="473" y="297" type="line" smooth="yes"/>
			<point x="473" y="437"/>
			<point x="389" y="516"/>
			<point x="267" y="516" type="curve" smooth="yes"/>
			<point x="184" y="516"/>
			<point x="117" y="490"/>
			<point x="56" y="434" type="curve"/>
			<point x="120" y="363" type="line"/>
			<point x="162" y="405"/>
			<point x="204" y="424"/>
			<point x="257" y="424" type="curve" smooth="yes"/>
			<point x="335" y="424"/>
			<point x="381" y="379"/>
			<point x="381" y="296" type="curve" smooth="yes"/>
			<point x="381" y="257" type="line"/>
		</contour>
		<contour>
			<point x="417" y="221" type="line"/>
			<point x="417" y="299" type="line"/>
			<point x="266" y="299" type="line" smooth="yes"/>
			<point x="125" y="299"/>
			<point x="40" y="241"/>
			<point x="40" y="142" type="curve" smooth="yes"/>
			<point x="40" y="50"/>
			<point x="115" y="-16"/>
			<point x="233" y="-16" type="curve" smooth="yes"/>
			<point x="375" y="-16"/>
			<point x="471" y="67"/>
			<point x="486" y="181" type="curve"/>
			<point x="410" y="198" type="line"/>
			<point x="406" y="121"/>
			<point x="328" y="72"/>
			<point x="252" y="72" type="curve" smooth="yes"/>
			<point x="191" y="72"/>
			<point x="157" y="103"/>
			<point x="157" y="146" type="curve" smooth="yes"/>
			<point x="157" y="194"/>
			<point x="201" y="221"/>
			<point x="275" y="221" type="curve" smooth="yes"/>
		</contour>
	</outline>
</glyph>
<glyph name="eth" format="1">
  <advance width="607"/>
  <unicode hex="00F0"/>
  <outline>
    <contour>
      <point x="478" y="238" type="line"/>
      <point x="478" y="385"/>
      <point x="419" y="488"/>
      <point x="284" y="488" type="curve" smooth="yes"/>
      <point x="155" y="488"/>
      <point x="48" y="384"/>
      <point x="48" y="238" type="curve" smooth="yes"/>
      <point x="48" y="93"/>
      <point x="157" y="-16"/>
      <point x="304" y="-16" type="curve" smooth="yes"/>
      <point x="461" y="-16"/>
      <point x="564" y="94"/>
      <point x="564" y="284" type="curve" smooth="yes"/>
      <point x="564" y="491"/>
      <point x="453" y="669"/>
      <point x="260" y="770" type="curve"/>
      <point x="166" y="731" type="line"/>
      <point x="364" y="611"/>
      <point x="461" y="464"/>
      <point x="461" y="238" type="curve"/>
    </contour>
    <contour>
      <point x="305" y="82" type="curve" smooth="yes"/>
      <point x="224" y="82"/>
      <point x="168" y="148"/>
      <point x="168" y="238" type="curve" smooth="yes"/>
      <point x="168" y="328"/>
      <point x="224" y="394"/>
      <point x="305" y="394" type="curve" smooth="yes"/>
      <point x="386" y="394"/>
      <point x="443" y="328"/>
      <point x="443" y="238" type="curve" smooth="yes"/>
      <point x="443" y="147"/>
      <point x="386" y="82"/>
    </contour>
    <contour>
      <point x="511" y="662" type="line"/>
      <point x="478" y="742" type="line"/>
      <point x="173" y="604" type="line"/>
      <point x="206" y="523" type="line"/>
    </contour>
  </outline>
</glyph>
<glyph name="divide" format="1">
  <advance width="632"/>
  <unicode hex="00F7"/>
  <outline>
    <contour>
      <point x="532" y="310" type="line"/>
      <point x="532" y="405" type="line"/>
      <point x="100" y="405" type="line"/>
      <point x="100" y="310" type="line"/>
    </contour>
    <contour>
      <point x="316" y="463" type="curve" smooth="yes"/>
      <point x="355" y="463"/>
      <point x="385" y="493"/>
      <point x="385" y="532" type="curve" smooth="yes"/>
      <point x="385" y="571"/>
      <point x="355" y="602"/>
      <point x="316" y="602" type="curve" smooth="yes"/>
      <point x="277" y="602"/>
      <point x="246" y="571"/>
      <point x="246" y="532" type="curve" smooth="yes"/>
      <point x="246" y="493"/>
      <point x="277" y="463"/>
    </contour>
    <contour>
      <point x="316" y="113" type="curve" smooth="yes"/>
      <point x="355" y="113"/>
      <point x="385" y="143"/>
      <point x="385" y="182" type="curve" smooth="yes"/>
      <point x="385" y="222"/>
      <point x="355" y="252"/>
      <point x="316" y="252" type="curve" smooth="yes"/>
      <point x="277" y="252"/>
      <point x="246" y="222"/>
      <point x="246" y="182" type="curve" smooth="yes"/>
      <point x="246" y="143"/>
      <point x="277" y="113"/>
    </contour>
  </outline>
</glyph>
<glyph name="oslash" format="2">
	<unicode hex="00F8"/>
	<advance width="613"/>
	<outline>
		<contour>
			<point x="90" y="-30" type="line"/>
			<point x="579" y="473" type="line"/>
			<point x="523" y="530" type="line"/>
			<point x="34" y="27" type="line"/>
		</contour>
		<contour>
			<point x="306" y="-16" type="curve" smooth="yes"/>
			<point x="458" y="-16"/>
			<point x="565" y="95"/>
			<point x="565" y="250" type="curve" smooth="yes"/>
			<point x="565" y="405"/>
			<point x="458" y="516"/>
			<point x="306" y="516" type="curve" smooth="yes"/>
			<point x="154" y="516"/>
			<point x="48" y="405"/>
			<point x="48" y="250" type="curve" smooth="yes"/>
			<point x="48" y="95"/>
			<point x="154" y="-16"/>
		</contour>
		<contour>
			<point x="306" y="82" type="curve" smooth="yes"/>
			<point x="222" y="82"/>
			<point x="167" y="151"/>
			<point x="167" y="250" type="curve" smooth="yes"/>
			<point x="167" y="349"/>
			<point x="223" y="418"/>
			<point x="306" y="418" type="curve" smooth="yes"/>
			<point x="390" y="418"/>
			<point x="446" y="350"/>
			<point x="446" y="250" type="curve" smooth="yes"/>
			<point x="446" y="152"/>
			<point x="389" y="82"/>
		</contour>
	</outline>
</glyph>
<glyph name="dcroat" format="1">
  <advance width="646"/>
  <unicode hex="0111"/>
  <outline>
    <contour>
      <point x="638" y="558" type="line"/>
      <point x="638" y="644" type="line"/>
      <point x="299" y="644" type="line"/>
      <point x="299" y="558" type="line"/>
    </contour>
    <contour>
      <point x="562" y="0" type="line"/>
      <point x="562" y="720" type="line"/>
      <point x="446" y="720" type="line"/>
      <point x="446" y="337" type="line"/>
      <point x="474" y="337" type="line"/>
      <point x="462" y="433"/>
      <point x="389" y="503"/>
      <point x="284" y="503" type="curve" smooth="yes"/>
      <point x="153" y="503"/>
      <point x="48" y="395"/>
      <point x="48" y="243" type="curve" smooth="yes"/>
      <point x="48" y="90"/>
      <point x="152" y="-16"/>
      <point x="284" y="-16" type="curve" smooth="yes"/>
      <point x="405" y="-16"/>
      <point x="484" y="73"/>
      <point x="477" y="187" type="curve"/>
      <point x="452" y="205" type="line"/>
      <point x="444" y="131"/>
      <point x="384" y="79"/>
      <point x="311" y="79" type="curve" smooth="yes"/>
      <point x="226" y="79"/>
      <point x="168" y="147"/>
      <point x="168" y="243" type="curve" smooth="yes"/>
      <point x="168" y="339"/>
      <point x="225" y="407"/>
      <point x="308" y="407" type="curve" smooth="yes"/>
      <point x="389" y="407"/>
      <point x="446" y="339"/>
      <point x="446" y="237" type="curve" smooth="yes"/>
      <point x="446" y="125" type="line"/>
      <point x="447" y="119" type="line"/>
      <point x="447" y="0" type="line"/>
    </contour>
  </outline>
</glyph>
<glyph name="Hbar" format="2">
	<unicode hex="0126"/>
	<advance width="756"/>
	<outline>
		<contour>
			<point x="722" y="520" type="line"/>
			<point x="722" y="617" type="line"/>
			<point x="34" y="617" type="line"/>
			<point x="34" y="520" type="line"/>
		</contour>
		<contour>
			<point x="543" y="0" type="line"/>
			<point x="662" y="0" type="line"/>
			<point x="662" y="715" type="line"/>
			<point x="543" y="715" type="line"/>
		</contour>
		<contour>
			<point x="213" y="0" type="line"/>
			<point x="213" y="715" type="line"/>
			<point x="94" y="715" type="line"/>
			<point x="94" y="0" type="line"/>
		</contour>
		<contour>
			<point x="203" y="317" type="line"/>
			<point x="552" y="317" type="line"/>
			<point x="552" y="420" type="line"/>
			<point x="203" y="420" type="line"/>
		</contour>
	</outline>
</glyph>
<glyph name="hbar" format="2">
	<unicode hex="0127"/>
	<advance width="607"/>
	<outline>
		<contour>
			<point x="347" y="558" type="line"/>
			<point x="347" y="644" type="line"/>
			<point x="9" y="644" type="line"/>
			<point x="9" y="558" type="line"/>
		</contour>
		<contour>
			<point x="539" y="0" type="line"/>
			<point x="539" y="287" type="line" smooth="yes"/>
			<point x="539" y="425"/>
			<point x="471" y="503"/>
			<point x="358" y="503" type="curve" smooth="yes"/>
			<point x="276" y="503"/>
			<point x="201" y="455"/>
			<point x="186" y="332" type="curve"/>
			<point x="201" y="332" type="line"/>
			<point x="201" y="720" type="line"/>
			<point x="85" y="720" type="line"/>
			<point x="85" y="0" type="line"/>
			<point x="201" y="0" type="line"/>
			<point x="201" y="225" type="line" smooth="yes"/>
			<point x="201" y="340"/>
			<point x="253" y="404"/>
			<point x="326" y="404" type="curve" smooth="yes"/>
			<point x="387" y="404"/>
			<point x="423" y="359"/>
			<point x="423" y="275" type="curve" smooth="yes"/>
			<point x="423" y="0" type="line"/>
		</contour>
	</outline>
</glyph>
<glyph name="dotlessi" format="1">
  <advance width="266"/>
  <unicode hex="0131"/>
  <outline>
    <contour>
      <point x="191" y="0" type="line"/>
      <point x="191" y="500" type="line"/>
      <point x="75" y="500" type="line"/>
      <point x="75" y="0" type="line"/>
    </contour>
    <contour>
      <point x="133" y="544" type="move" name="top.LC"/>
    </contour>
  </outline>
</glyph>
<glyph name="IJ" format="2">
	<unicode hex="0132"/>
	<advance width="699"/>
	<outline>
		<contour>
			<point x="203" y="340" type="line"/>
			<point x="203" y="715" type="line"/>
			<point x="82" y="715" type="line"/>
			<point x="82" y="340" type="line"/>
		</contour>
		<contour>
			<point x="618" y="715" type="line"/>
			<point x="498" y="715" type="line"/>
			<point x="498" y="277" type="line" smooth="yes"/>
			<point x="498" y="156"/>
			<point x="450" y="91"/>
			<point x="349" y="91" type="curve" smooth="yes"/>
			<point x="260" y="91"/>
			<point x="211" y="146"/>
			<point x="201" y="254" type="curve"/>
			<point x="82" y="239" type="line"/>
			<point x="93" y="79"/>
			<point x="193" y="-16"/>
			<point x="349" y="-16" type="curve" smooth="yes"/>
			<point x="522" y="-16"/>
			<point x="618" y="89"/>
			<point x="618" y="277" type="curve" smooth="yes"/>
		</contour>
	</outline>
	<anchor name="top.UC_1" x="144" y="750"/>
	<anchor name="top.UC_2" x="576" y="750"/>
</glyph>
<glyph name="Lslash" format="1">
  <advance width="586"/>
  <unicode hex="0141"/>
  <outline>
    <contour>
      <point x="412" y="427" type="line"/>
      <point x="361" y="512" type="line"/>
      <point x="3" y="276" type="line"/>
      <point x="54" y="192" type="line"/>
    </contour>
    <contour>
      <point x="553" y="0" type="line"/>
      <point x="553" y="105" type="line"/>
      <point x="223" y="105" type="line"/>
      <point x="223" y="715" type="line"/>
      <point x="104" y="715" type="line"/>
      <point x="104" y="0" type="line"/>
    </contour>
  </outline>
</glyph>
<glyph name="lslash" format="1">
  <advance width="333"/>
  <unicode hex="0142"/>
  <outline>
    <contour>
      <point x="216" y="0" type="line"/>
      <point x="216" y="720" type="line"/>
      <point x="100" y="720" type="line"/>
      <point x="100" y="0" type="line"/>
    </contour>
    <contour>
      <point x="335" y="433" type="line"/>
      <point x="294" y="505" type="line"/>
      <point x="-2" y="314" type="line"/>
      <point x="39" y="241" type="line"/>
    </contour>
  </outline>
</glyph>
<glyph name="Eng" format="1">
  <advance width="765"/>
  <unicode hex="014A"/>
  <outline>
    <contour>
      <point x="244" y="-147" type="line"/>
      <point x="283" y="-183"/>
      <point x="348" y="-204"/>
      <point x="420" y="-204" type="curve" smooth="yes"/>
      <point x="582" y="-204"/>
      <point x="671" y="-108"/>
      <point x="671" y="79" type="curve" smooth="yes"/>
      <point x="671" y="715" type="line"/>
      <point x="555" y="715" type="line"/>
      <point x="555" y="79" type="line" smooth="yes"/>
      <point x="555" y="-40"/>
      <point x="509" y="-97"/>
      <point x="420" y="-97" type="curve" smooth="yes"/>
      <point x="377" y="-97"/>
      <point x="336" y="-83"/>
      <point x="306" y="-53" type="curve"/>
    </contour>
    <contour>
      <point x="210" y="0" type="line"/>
      <point x="210" y="598" type="line"/>
      <point x="166" y="598" type="line"/>
      <point x="566" y="-15" type="line"/>
      <point x="604" y="124" type="line"/>
      <point x="219" y="715" type="line"/>
      <point x="94" y="715" type="line"/>
      <point x="94" y="0" type="line"/>
    </contour>
  </outline>
</glyph>
<glyph name="eng" format="1">
  <advance width="597"/>
  <unicode hex="014B"/>
  <outline>
    <contour>
      <point x="327" y="-194" type="line"/>
      <point x="399" y="-194" type="line" smooth="yes"/>
      <point x="487" y="-194"/>
      <point x="529" y="-150"/>
      <point x="529" y="-59" type="curve" smooth="yes"/>
      <point x="529" y="301" type="line" smooth="yes"/>
      <point x="529" y="440"/>
      <point x="460" y="516"/>
      <point x="347" y="516" type="curve" smooth="yes"/>
      <point x="261" y="516"/>
      <point x="190" y="462"/>
      <point x="175" y="346" type="curve"/>
      <point x="190" y="346" type="line"/>
      <point x="190" y="500" type="line"/>
      <point x="75" y="500" type="line"/>
      <point x="75" y="0" type="line"/>
      <point x="191" y="0" type="line"/>
      <point x="191" y="238" type="line" smooth="yes"/>
      <point x="191" y="365"/>
      <point x="251" y="418"/>
      <point x="316" y="418" type="curve" smooth="yes"/>
      <point x="375" y="418"/>
      <point x="413" y="374"/>
      <point x="413" y="289" type="curve" smooth="yes"/>
      <point x="413" y="-40" type="line" smooth="yes"/>
      <point x="413" y="-82"/>
      <point x="398" y="-98"/>
      <point x="361" y="-98" type="curve" smooth="yes"/>
      <point x="327" y="-98" type="line"/>
    </contour>
  </outline>
</glyph>
<glyph name="OE" format="2">
	<unicode hex="0152"/>
	<advance width="1160"/>
	<outline>
		<contour>
			<point x="407" y="-16" type="curve" smooth="yes"/>
			<point x="601" y="-16"/>
			<point x="738" y="143"/>
			<point x="738" y="358" type="curve" smooth="yes"/>
			<point x="738" y="572"/>
			<point x="601" y="731"/>
			<point x="407" y="731" type="curve" smooth="yes"/>
			<point x="208" y="731"/>
			<point x="57" y="572"/>
			<point x="57" y="358" type="curve" smooth="yes"/>
			<point x="57" y="143"/>
			<point x="208" y="-16"/>
		</contour>
		<contour>
			<point x="414" y="91" type="curve" smooth="yes"/>
			<point x="277" y="91"/>
			<point x="182" y="202"/>
			<point x="182" y="358" type="curve" smooth="yes"/>
			<point x="182" y="512"/>
			<point x="277" y="624"/>
			<point x="414" y="624" type="curve" smooth="yes"/>
			<point x="550" y="624"/>
			<point x="645" y="512"/>
			<point x="645" y="358" type="curve" smooth="yes"/>
			<point x="645" y="202"/>
			<point x="550" y="91"/>
		</contour>
		<contour>
			<point x="1112" y="0" type="line"/>
			<point x="1112" y="101" type="line"/>
			<point x="764" y="101" type="line"/>
			<point x="764" y="614" type="line"/>
			<point x="1112" y="614" type="line"/>
			<point x="1112" y="715" type="line"/>
			<point x="645" y="715" type="line"/>
			<point x="645" y="0" type="line"/>
		</contour>
		<contour>
			<point x="1095" y="312" type="line"/>
			<point x="1095" y="414" type="line"/>
			<point x="754" y="414" type="line"/>
			<point x="754" y="312" type="line"/>
		</contour>
	</outline>
</glyph>
<glyph name="oe" format="1">
  <advance width="978"/>
  <unicode hex="0153"/>
  <outline>
    <contour>
      <point x="48" y="250" type="curve" smooth="yes"/>
      <point x="48" y="95"/>
      <point x="152" y="-16"/>
      <point x="300" y="-16" type="curve" smooth="yes"/>
      <point x="441" y="-16"/>
      <point x="540" y="95"/>
      <point x="540" y="250" type="curve" smooth="yes"/>
      <point x="540" y="405"/>
      <point x="441" y="516"/>
      <point x="300" y="516" type="curve" smooth="yes"/>
      <point x="152" y="516"/>
      <point x="48" y="405"/>
    </contour>
    <contour>
      <point x="168" y="250" type="curve" smooth="yes"/>
      <point x="168" y="349"/>
      <point x="224" y="418"/>
      <point x="306" y="418" type="curve" smooth="yes"/>
      <point x="389" y="418"/>
      <point x="445" y="349"/>
      <point x="445" y="250" type="curve" smooth="yes"/>
      <point x="445" y="152"/>
      <point x="389" y="82"/>
      <point x="306" y="82" type="curve" smooth="yes"/>
      <point x="224" y="82"/>
      <point x="168" y="152"/>
    </contour>
    <contour>
      <point x="860" y="150" type="line"/>
      <point x="824" y="103"/>
      <point x="778" y="78"/>
      <point x="718" y="78" type="curve" smooth="yes"/>
      <point x="621" y="78"/>
      <point x="564" y="146"/>
      <point x="564" y="252" type="curve" smooth="yes"/>
      <point x="564" y="356"/>
      <point x="615" y="423"/>
      <point x="694" y="423" type="curve" smooth="yes"/>
      <point x="770" y="423"/>
      <point x="814" y="362"/>
      <point x="814" y="260" type="curve" smooth="yes"/>
      <point x="814" y="248" type="line"/>
      <point x="929" y="248" type="line"/>
      <point x="929" y="254" type="line" smooth="yes"/>
      <point x="929" y="406"/>
      <point x="832" y="516"/>
      <point x="696" y="516" type="curve" smooth="yes"/>
      <point x="557" y="516"/>
      <point x="455" y="402"/>
      <point x="455" y="250" type="curve" smooth="yes"/>
      <point x="455" y="95"/>
      <point x="560" y="-16"/>
      <point x="713" y="-16" type="curve" smooth="yes"/>
      <point x="798" y="-16"/>
      <point x="871" y="15"/>
      <point x="924" y="77" type="curve"/>
    </contour>
    <contour>
      <point x="929" y="214" type="line"/>
      <point x="929" y="254" type="line"/>
      <point x="913" y="292" type="line"/>
      <point x="523" y="292" type="line"/>
      <point x="523" y="214" type="line"/>
    </contour>
  </outline>
</glyph>
<glyph name="Tbar" format="1">
  <advance width="611"/>
  <unicode hex="0166"/>
  <outline>
    <contour>
      <point x="514" y="312" type="line"/>
      <point x="514" y="414" type="line"/>
      <point x="97" y="414" type="line"/>
      <point x="97" y="312" type="line"/>
    </contour>
    <contour>
      <point x="365" y="0" type="line"/>
      <point x="365" y="621" type="line"/>
      <point x="246" y="621" type="line"/>
      <point x="246" y="0" type="line"/>
    </contour>
    <contour>
      <point x="577" y="611" type="line"/>
      <point x="577" y="715" type="line"/>
      <point x="34" y="715" type="line"/>
      <point x="34" y="611" type="line"/>
    </contour>
  </outline>
</glyph>
<glyph name="tbar" format="2">
	<unicode hex="0167"/>
	<advance width="396"/>
	<outline>
		<contour>
			<point x="359" y="0" type="line"/>
			<point x="359" y="97" type="line"/>
			<point x="281" y="97" type="line" smooth="yes"/>
			<point x="247" y="97"/>
			<point x="233" y="113"/>
			<point x="233" y="148" type="curve" smooth="yes"/>
			<point x="233" y="636" type="line"/>
			<point x="117" y="636" type="line"/>
			<point x="117" y="130" type="line" smooth="yes"/>
			<point x="117" y="44"/>
			<point x="159" y="0"/>
			<point x="242" y="0" type="curve" smooth="yes"/>
		</contour>
		<contour>
			<point x="353" y="405" type="line"/>
			<point x="353" y="500" type="line"/>
			<point x="33" y="500" type="line"/>
			<point x="33" y="405" type="line"/>
		</contour>
		<contour>
			<point x="353" y="227" type="line"/>
			<point x="353" y="315" type="line"/>
			<point x="33" y="315" type="line"/>
			<point x="33" y="227" type="line"/>
		</contour>
	</outline>
</glyph>
<glyph name="Ohorn" format="2">
	<unicode hex="01A0"/>
	<advance width="832"/>
	<outline>
		<contour>
			<point x="415" y="-16" type="curve" smooth="yes"/>
			<point x="620" y="-16"/>
			<point x="771" y="143"/>
			<point x="771" y="357" type="curve" smooth="yes"/>
			<point x="771" y="474"/>
			<point x="726" y="579"/>
			<point x="642" y="650" type="curve"/>
			<point x="622" y="642" type="line"/>
			<point x="626" y="640"/>
			<point x="637" y="638"/>
			<point x="647" y="638" type="curve" smooth="yes"/>
			<point x="748" y="638"/>
			<point x="818" y="697"/>
			<point x="818" y="816" type="curve" smooth="yes"/>
			<point x="818" y="865" type="line"/>
			<point x="714" y="865" type="line"/>
			<point x="714" y="808" type="line" smooth="yes"/>
			<point x="714" y="744"/>
			<point x="684" y="715"/>
			<point x="588" y="715" type="curve" smooth="yes"/>
			<point x="568" y="715"/>
			<point x="533" y="717"/>
			<point x="491" y="724" type="curve" smooth="yes"/>
			<point x="472" y="727"/>
			<point x="444" y="731"/>
			<point x="416" y="731" type="curve" smooth="yes"/>
			<point x="207" y="731"/>
			<point x="57" y="573"/>
			<point x="57" y="358" type="curve" smooth="yes"/>
			<point x="57" y="143"/>
			<point x="208" y="-16"/>
		</contour>
		<contour>
			<point x="415" y="91" type="curve" smooth="yes"/>
			<point x="278" y="91"/>
			<point x="182" y="202"/>
			<point x="182" y="358" type="curve" smooth="yes"/>
			<point x="182" y="514"/>
			<point x="278" y="624"/>
			<point x="415" y="624" type="curve" smooth="yes"/>
			<point x="550" y="624"/>
			<point x="647" y="514"/>
			<point x="647" y="358" type="curve" smooth="yes"/>
			<point x="647" y="202"/>
			<point x="550" y="91"/>
		</contour>
	</outline>
	<anchor name="bottom.UC" x="414" y="-50"/>
	<anchor name="top.UC" x="414" y="750"/>
</glyph>
<glyph name="ohorn" format="2">
	<unicode hex="01A1"/>
	<advance width="623"/>
	<outline>
		<contour>
			<point x="306" y="-16" type="curve" smooth="yes"/>
			<point x="459" y="-16"/>
			<point x="565" y="95"/>
			<point x="565" y="250" type="curve" smooth="yes"/>
			<point x="565" y="324"/>
			<point x="541" y="390"/>
			<point x="495" y="438" type="curve"/>
			<point x="489" y="427" type="line"/>
			<point x="574" y="441"/>
			<point x="615" y="490"/>
			<point x="615" y="580" type="curve" smooth="yes"/>
			<point x="615" y="618" type="line"/>
			<point x="517" y="618" type="line"/>
			<point x="517" y="574" type="line" smooth="yes"/>
			<point x="517" y="523"/>
			<point x="492" y="500"/>
			<point x="438" y="500" type="curve" smooth="yes"/>
			<point x="419" y="500"/>
			<point x="404" y="503"/>
			<point x="393" y="505" type="curve" smooth="yes"/>
			<point x="363" y="511"/>
			<point x="336" y="516"/>
			<point x="306" y="516" type="curve" smooth="yes"/>
			<point x="154" y="516"/>
			<point x="48" y="405"/>
			<point x="48" y="250" type="curve" smooth="yes"/>
			<point x="48" y="95"/>
			<point x="154" y="-16"/>
		</contour>
		<contour>
			<point x="306" y="82" type="curve" smooth="yes"/>
			<point x="224" y="82"/>
			<point x="168" y="152"/>
			<point x="168" y="250" type="curve" smooth="yes"/>
			<point x="168" y="349"/>
			<point x="224" y="418"/>
			<point x="306" y="418" type="curve" smooth="yes"/>
			<point x="388" y="418"/>
			<point x="445" y="349"/>
			<point x="445" y="250" type="curve" smooth="yes"/>
			<point x="445" y="152"/>
			<point x="389" y="82"/>
		</contour>
	</outline>
	<anchor name="bottom.LC" x="306" y="-50"/>
	<anchor name="top.LC" x="306" y="544"/>
</glyph>
<glyph name="Uhorn" format="2">
	<unicode hex="01AF"/>
	<advance width="765"/>
	<outline>
		<contour>
			<point x="366" y="-16" type="curve" smooth="yes"/>
			<point x="543" y="-16"/>
			<point x="650" y="94"/>
			<point x="650" y="282" type="curve" smooth="yes"/>
			<point x="650" y="649" type="line"/>
			<point x="635" y="636" type="line"/>
			<point x="756" y="640"/>
			<point x="818" y="700"/>
			<point x="818" y="816" type="curve" smooth="yes"/>
			<point x="818" y="865" type="line"/>
			<point x="715" y="865" type="line"/>
			<point x="715" y="808" type="line" smooth="yes"/>
			<point x="715" y="744"/>
			<point x="685" y="715"/>
			<point x="622" y="715" type="curve" smooth="yes"/>
			<point x="532" y="715" type="line"/>
			<point x="532" y="282" type="line" smooth="yes"/>
			<point x="532" y="163"/>
			<point x="470" y="91"/>
			<point x="366" y="91" type="curve" smooth="yes"/>
			<point x="262" y="91"/>
			<point x="201" y="163"/>
			<point x="201" y="282" type="curve" smooth="yes"/>
			<point x="201" y="715" type="line"/>
			<point x="82" y="715" type="line"/>
			<point x="82" y="282" type="line" smooth="yes"/>
			<point x="82" y="94"/>
			<point x="189" y="-16"/>
		</contour>
	</outline>
	<anchor name="bottom.UC" x="366" y="-50"/>
	<anchor name="top.UC" x="366" y="750"/>
</glyph>
<glyph name="uhorn" format="2">
	<unicode hex="01B0"/>
	<advance width="651"/>
	<outline>
		<contour>
			<point x="413" y="211" type="line"/>
			<point x="405" y="135"/>
			<point x="349" y="82"/>
			<point x="284" y="82" type="curve" smooth="yes"/>
			<point x="223" y="82"/>
			<point x="186" y="123"/>
			<point x="186" y="202" type="curve" smooth="yes"/>
			<point x="186" y="500" type="line"/>
			<point x="70" y="500" type="line"/>
			<point x="70" y="190" type="line" smooth="yes"/>
			<point x="70" y="56"/>
			<point x="141" y="-16"/>
			<point x="251" y="-16" type="curve" smooth="yes"/>
			<point x="364" y="-16"/>
			<point x="440" y="69"/>
			<point x="436" y="192" type="curve"/>
		</contour>
		<contour>
			<point x="407" y="0" type="line"/>
			<point x="522" y="0" type="line"/>
			<point x="522" y="436" type="line"/>
			<point x="506" y="423" type="line"/>
			<point x="618" y="429"/>
			<point x="670" y="479"/>
			<point x="670" y="580" type="curve" smooth="yes"/>
			<point x="670" y="618" type="line"/>
			<point x="572" y="618" type="line"/>
			<point x="572" y="574" type="line" smooth="yes"/>
			<point x="572" y="524"/>
			<point x="548" y="500"/>
			<point x="491" y="500" type="curve" smooth="yes"/>
			<point x="406" y="500" type="line"/>
			<point x="406" y="124" type="line"/>
			<point x="407" y="96" type="line"/>
		</contour>
	</outline>
	<anchor name="bottom.LC" x="280" y="-50"/>
	<anchor name="top.LC" x="291" y="544"/>
</glyph>
<glyph name="dotlessj" format="1">
  <advance width="266"/>
  <unicode hex="0237"/>
  <outline>
    <contour>
      <point x="-11" y="-194" type="line"/>
      <point x="62" y="-194" type="line" smooth="yes"/>
      <point x="149" y="-194"/>
      <point x="191" y="-150"/>
      <point x="191" y="-59" type="curve" smooth="yes"/>
      <point x="191" y="500" type="line"/>
      <point x="75" y="500" type="line"/>
      <point x="75" y="-40" type="line" smooth="yes"/>
      <point x="75" y="-81"/>
      <point x="61" y="-98"/>
      <point x="23" y="-98" type="curve" smooth="yes"/>
      <point x="-11" y="-98" type="line"/>
    </contour>
    <contour>
      <point x="134" y="544" type="move" name="top.LC"/>
    </contour>
  </outline>
</glyph>
<glyph name="acutecomb" format="2">
	<unicode hex="0301"/>
	<outline>
		<contour>
			<point x="176" y="761" type="line"/>
			<point x="48" y="761" type="line"/>
			<point x="-62" y="587" type="line"/>
			<point x="36" y="587" type="line"/>
		</contour>
	</outline>
	<anchor name="_top.LC" x="0" y="544"/>
</glyph>
<glyph name="circumflexcomb" format="2">
	<unicode hex="0302"/>
	<outline>
		<contour>
			<point x="180" y="587" type="line"/>
			<point x="61" y="761" type="line"/>
			<point x="-61" y="761" type="line"/>
			<point x="-181" y="587" type="line"/>
			<point x="-78" y="587" type="line"/>
			<point x="44" y="745" type="line"/>
			<point x="-48" y="745" type="line"/>
			<point x="74" y="587" type="line"/>
		</contour>
	</outline>
	<anchor name="_top.LC" x="0" y="544"/>
	<anchor name="top.LC" x="187" y="663"/>
</glyph>
<glyph name="tildecomb" format="1">
  <advance width="0"/>
  <unicode hex="0303"/>
  <outline>
    <contour>
      <point x="103" y="734" type="line"/>
      <point x="97" y="692"/>
      <point x="84" y="672"/>
      <point x="66" y="672" type="curve" smooth="yes"/>
      <point x="53" y="672"/>
      <point x="40" y="680"/>
      <point x="19" y="696" type="curve" smooth="yes"/>
      <point x="-7" y="716"/>
      <point x="-38" y="733"/>
      <point x="-72" y="733" type="curve" smooth="yes"/>
      <point x="-122" y="733"/>
      <point x="-165" y="696"/>
      <point x="-179" y="620" type="curve"/>
      <point x="-104" y="588" type="line"/>
      <point x="-97" y="630"/>
      <point x="-84" y="650"/>
      <point x="-66" y="650" type="curve" smooth="yes"/>
      <point x="-54" y="650"/>
      <point x="-40" y="642"/>
      <point x="-19" y="626" type="curve" smooth="yes"/>
      <point x="7" y="606"/>
      <point x="37" y="589"/>
      <point x="72" y="589" type="curve" smooth="yes"/>
      <point x="122" y="589"/>
      <point x="164" y="626"/>
      <point x="178" y="702" type="curve"/>
    </contour>
    <contour>
      <point x="0" y="544" type="move" name="_top.LC"/>
    </contour>
  </outline>
</glyph>
<glyph name="macroncomb" format="1">
  <advance width="0"/>
  <unicode hex="0304"/>
  <outline>
    <contour>
      <point x="144" y="608" type="line"/>
      <point x="144" y="692" type="line"/>
      <point x="-144" y="692" type="line"/>
      <point x="-144" y="608" type="line"/>
    </contour>
    <contour>
      <point x="0" y="544" type="move" name="_top.LC"/>
    </contour>
  </outline>
</glyph>
<glyph name="brevecomb" format="1">
  <advance width="0"/>
  <unicode hex="0306"/>
  <outline>
    <contour>
      <point x="0" y="584" type="curve"/>
      <point x="84" y="584"/>
      <point x="152" y="644"/>
      <point x="162" y="743" type="curve"/>
      <point x="72" y="743" type="line"/>
      <point x="65" y="689"/>
      <point x="37" y="664"/>
      <point x="0" y="664" type="curve" smooth="yes"/>
      <point x="-36" y="664"/>
      <point x="-65" y="689"/>
      <point x="-72" y="743" type="curve"/>
      <point x="-161" y="743" type="line"/>
      <point x="-152" y="644"/>
      <point x="-84" y="584"/>
    </contour>
    <contour>
      <point x="0" y="544" type="move" name="_top.LC"/>
    </contour>
    <contour>
      <point x="0" y="713" type="move" name="top.LC"/>
    </contour>
  </outline>
</glyph>
<glyph name="dotaccentcomb" format="2">
	<unicode hex="0307"/>
	<outline>
		<contour>
			<point x="0" y="601" type="curve" smooth="yes"/>
			<point x="39" y="601"/>
			<point x="71" y="631"/>
			<point x="71" y="670" type="curve" smooth="yes"/>
			<point x="71" y="709"/>
			<point x="39" y="740"/>
			<point x="0" y="740" type="curve" smooth="yes"/>
			<point x="-40" y="740"/>
			<point x="-71" y="709"/>
			<point x="-71" y="670" type="curve" smooth="yes"/>
			<point x="-71" y="631"/>
			<point x="-40" y="601"/>
		</contour>
	</outline>
	<anchor name="_top.LC" x="0" y="544"/>
</glyph>
<glyph name="dieresiscomb" format="1">
  <advance width="0"/>
  <unicode hex="0308"/>
  <outline>
    <contour>
      <point x="106" y="601" type="curve" smooth="yes"/>
      <point x="146" y="601"/>
      <point x="177" y="631"/>
      <point x="177" y="670" type="curve" smooth="yes"/>
      <point x="177" y="709"/>
      <point x="146" y="740"/>
      <point x="106" y="740" type="curve" smooth="yes"/>
      <point x="67" y="740"/>
      <point x="36" y="709"/>
      <point x="36" y="670" type="curve" smooth="yes"/>
      <point x="36" y="631"/>
      <point x="67" y="601"/>
    </contour>
    <contour>
      <point x="-106" y="601" type="curve" smooth="yes"/>
      <point x="-66" y="601"/>
      <point x="-35" y="631"/>
      <point x="-35" y="670" type="curve" smooth="yes"/>
      <point x="-35" y="709"/>
      <point x="-66" y="740"/>
      <point x="-106" y="740" type="curve" smooth="yes"/>
      <point x="-146" y="740"/>
      <point x="-177" y="709"/>
      <point x="-177" y="670" type="curve" smooth="yes"/>
      <point x="-177" y="631"/>
      <point x="-146" y="601"/>
    </contour>
    <contour>
      <point x="0" y="544" type="move" name="_top.LC"/>
    </contour>
  </outline>
</glyph>
<glyph name="hookabovecomb" format="1">
  <advance width="0"/>
  <unicode hex="0309"/>
  <outline>
    <contour>
      <point x="-6" y="558" type="line"/>
      <point x="68" y="588"/>
      <point x="108" y="631"/>
      <point x="108" y="682" type="curve" smooth="yes"/>
      <point x="108" y="737"/>
      <point x="63" y="778"/>
      <point x="-1" y="778" type="curve" smooth="yes"/>
      <point x="-39" y="778"/>
      <point x="-72" y="764"/>
      <point x="-102" y="735" type="curve"/>
      <point x="-63" y="683" type="line"/>
      <point x="-43" y="700"/>
      <point x="-26" y="707"/>
      <point x="-10" y="707" type="curve" smooth="yes"/>
      <point x="12" y="707"/>
      <point x="25" y="694"/>
      <point x="25" y="674" type="curve" smooth="yes"/>
      <point x="25" y="652"/>
      <point x="7" y="632"/>
      <point x="-33" y="613" type="curve"/>
    </contour>
    <contour>
      <point x="0" y="544" type="move" name="_top.LC"/>
    </contour>
  </outline>
</glyph>
<glyph name="ringcomb" format="2">
	<unicode hex="030A"/>
	<outline>
		<contour>
			<point x="116" y="677" type="curve" smooth="yes"/>
			<point x="116" y="743"/>
			<point x="65" y="795"/>
			<point x="0" y="795" type="curve" smooth="yes"/>
			<point x="-65" y="795"/>
			<point x="-117" y="743"/>
			<point x="-117" y="677" type="curve" smooth="yes"/>
			<point x="-117" y="612"/>
			<point x="-65" y="560"/>
			<point x="0" y="560" type="curve" smooth="yes"/>
			<point x="65" y="560"/>
			<point x="116" y="612"/>
		</contour>
		<contour>
			<point x="49" y="677" type="curve" smooth="yes"/>
			<point x="49" y="647"/>
			<point x="27" y="623"/>
			<point x="0" y="623" type="curve" smooth="yes"/>
			<point x="-27" y="623"/>
			<point x="-50" y="647"/>
			<point x="-50" y="677" type="curve" smooth="yes"/>
			<point x="-50" y="707"/>
			<point x="-27" y="730"/>
			<point x="0" y="730" type="curve" smooth="yes"/>
			<point x="27" y="730"/>
			<point x="49" y="707"/>
		</contour>
	</outline>
	<anchor name="_top.LC" x="0" y="544"/>
</glyph>
<glyph name="hungarumlautcomb" format="2">
	<unicode hex="030B"/>
	<outline>
		<contour>
			<point x="98" y="761" type="line"/>
			<point x="-31" y="761" type="line"/>
			<point x="-155" y="587" type="line"/>
			<point x="-52" y="587" type="line"/>
		</contour>
		<contour>
			<point x="292" y="761" type="line"/>
			<point x="164" y="761" type="line"/>
			<point x="24" y="587" type="line"/>
			<point x="128" y="587" type="line"/>
		</contour>
	</outline>
	<anchor name="_top.LC" x="0" y="544"/>
</glyph>
<glyph name="caroncomb" format="1">
  <advance width="0"/>
  <unicode hex="030C"/>
  <outline>
    <contour>
      <point x="-181" y="761" type="line"/>
      <point x="-61" y="587" type="line"/>
      <point x="61" y="587" type="line"/>
      <point x="180" y="761" type="line"/>
      <point x="77" y="761" type="line"/>
      <point x="-45" y="603" type="line"/>
      <point x="47" y="603" type="line"/>
      <point x="-75" y="761" type="line"/>
    </contour>
    <contour>
      <point x="0" y="544" type="move" name="_top.LC"/>
    </contour>
  </outline>
</glyph>
<glyph name="commaturnedabovecomb" format="2">
	<unicode hex="0312"/>
	<outline>
		<contour>
			<point x="3" y="779" type="line"/>
			<point x="-30" y="742"/>
			<point x="-59" y="684"/>
			<point x="-59" y="641" type="curve" smooth="yes"/>
			<point x="-59" y="602"/>
			<point x="-34" y="574"/>
			<point x="2" y="574" type="curve" smooth="yes"/>
			<point x="34" y="574"/>
			<point x="59" y="599"/>
			<point x="59" y="631" type="curve" smooth="yes"/>
			<point x="59" y="663"/>
			<point x="32" y="688"/>
			<point x="-2" y="688" type="curve"/>
			<point x="17" y="667" type="line"/>
			<point x="15" y="696"/>
			<point x="35" y="742"/>
			<point x="64" y="779" type="curve"/>
		</contour>
	</outline>
	<anchor name="_top.LC" x="0" y="544"/>
</glyph>
<glyph name="commaaboverightcomb" format="2">
	<unicode hex="0315"/>
	<outline>
		<contour>
			<point x="0" y="499" type="line"/>
			<point x="37" y="542"/>
			<point x="70" y="609"/>
			<point x="70" y="656" type="curve" smooth="yes"/>
			<point x="70" y="700"/>
			<point x="43" y="731"/>
			<point x="3" y="731" type="curve" smooth="yes"/>
			<point x="-31" y="731"/>
			<point x="-58" y="703"/>
			<point x="-58" y="667" type="curve" smooth="yes"/>
			<point x="-58" y="632"/>
			<point x="-30" y="605"/>
			<point x="6" y="605" type="curve"/>
			<point x="-10" y="625" type="line"/>
			<point x="-8" y="592"/>
			<point x="-29" y="540"/>
			<point x="-62" y="499" type="curve"/>
		</contour>
	</outline>
	<anchor name="_top_right" x="0" y="540"/>
</glyph>
<glyph name="horncomb" format="1">
  <advance width="0"/>
  <unicode hex="031B"/>
  <outline>
    <contour>
      <point x="0" y="422" type="line"/>
      <point x="45" y="422" type="line" smooth="yes"/>
      <point x="172" y="422"/>
      <point x="231" y="473"/>
      <point x="231" y="580" type="curve" smooth="yes"/>
      <point x="231" y="618" type="line"/>
      <point x="133" y="618" type="line"/>
      <point x="133" y="574" type="line" smooth="yes"/>
      <point x="133" y="524"/>
      <point x="109" y="500"/>
      <point x="52" y="500" type="curve" smooth="yes"/>
      <point x="0" y="500" type="line"/>
    </contour>
    <contour>
      <point x="0" y="544" type="move" name="_topright.LC"/>
    </contour>
  </outline>
</glyph>
<glyph name="dotbelowcomb" format="2">
	<unicode hex="0323"/>
	<outline>
		<contour>
			<point x="0" y="-246" type="curve" smooth="yes"/>
			<point x="39" y="-246"/>
			<point x="71" y="-215"/>
			<point x="71" y="-177" type="curve" smooth="yes"/>
			<point x="71" y="-137"/>
			<point x="39" y="-107"/>
			<point x="0" y="-107" type="curve" smooth="yes"/>
			<point x="-40" y="-107"/>
			<point x="-71" y="-137"/>
			<point x="-71" y="-177" type="curve" smooth="yes"/>
			<point x="-71" y="-215"/>
			<point x="-40" y="-246"/>
		</contour>
	</outline>
	<anchor name="_bottom.LC" x="0" y="-50"/>
</glyph>
<glyph name="commabelowcomb" format="2">
	<unicode hex="0326"/>
	<outline>
		<contour>
			<point x="-6" y="-286" type="line"/>
			<point x="26" y="-249"/>
			<point x="56" y="-191"/>
			<point x="56" y="-148" type="curve" smooth="yes"/>
			<point x="56" y="-109"/>
			<point x="31" y="-81"/>
			<point x="-6" y="-81" type="curve" smooth="yes"/>
			<point x="-38" y="-81"/>
			<point x="-62" y="-106"/>
			<point x="-62" y="-138" type="curve" smooth="yes"/>
			<point x="-62" y="-170"/>
			<point x="-35" y="-195"/>
			<point x="-1" y="-195" type="curve"/>
			<point x="-20" y="-174" type="line"/>
			<point x="-18" y="-203"/>
			<point x="-38" y="-249"/>
			<point x="-67" y="-286" type="curve"/>
		</contour>
	</outline>
	<anchor name="_bottom.LC" x="0" y="-50"/>
</glyph>
<glyph name="cedillacomb" format="1">
  <advance width="0"/>
  <unicode hex="0327"/>
  <outline>
    <contour>
      <point x="-133" y="-221" type="line"/>
      <point x="-106" y="-245"/>
      <point x="-71" y="-260"/>
      <point x="-28" y="-260" type="curve" smooth="yes"/>
      <point x="56" y="-260"/>
      <point x="106" y="-211"/>
      <point x="106" y="-148" type="curve" smooth="yes"/>
      <point x="106" y="-85"/>
      <point x="42" y="-43"/>
      <point x="-34" y="-45" type="curve"/>
      <point x="0" y="-83" type="line"/>
      <point x="26" y="10" type="line"/>
      <point x="-41" y="10" type="line"/>
      <point x="-76" y="-114" type="line"/>
      <point x="-61" y="-110"/>
      <point x="-45" y="-108"/>
      <point x="-33" y="-108" type="curve" smooth="yes"/>
      <point x="2" y="-108"/>
      <point x="24" y="-125"/>
      <point x="24" y="-150" type="curve" smooth="yes"/>
      <point x="24" y="-174"/>
      <point x="4" y="-190"/>
      <point x="-26" y="-190" type="curve" smooth="yes"/>
      <point x="-52" y="-190"/>
      <point x="-79" y="-178"/>
      <point x="-96" y="-162" type="curve"/>
    </contour>
    <contour>
      <point x="0" y="-50" type="move" name="_bottom.LC"/>
    </contour>
  </outline>
</glyph>
<glyph name="ogonekcomb" format="1">
  <advance width="0"/>
  <unicode hex="0328"/>
  <outline>
    <contour>
      <point x="119" y="-165" type="line"/>
      <point x="108" y="-168"/>
      <point x="97" y="-169"/>
      <point x="90" y="-169" type="curve" smooth="yes"/>
      <point x="56" y="-169"/>
      <point x="30" y="-151"/>
      <point x="30" y="-115" type="curve" smooth="yes"/>
      <point x="30" y="-79"/>
      <point x="56" y="-38"/>
      <point x="119" y="0" type="curve"/>
      <point x="51" y="22" type="line"/>
      <point x="-28" y="-28"/>
      <point x="-62" y="-78"/>
      <point x="-62" y="-137" type="curve" smooth="yes"/>
      <point x="-62" y="-211"/>
      <point x="-2" y="-251"/>
      <point x="76" y="-251" type="curve" smooth="yes"/>
      <point x="90" y="-251"/>
      <point x="104" y="-250"/>
      <point x="119" y="-247" type="curve"/>
    </contour>
    <contour>
      <point x="0" y="-30" type="move" name="_ogonek.LC"/>
    </contour>
  </outline>
</glyph>
<glyph name="Dje" format="1">
  <advance width="712"/>
  <unicode hex="0402"/>
  <outline>
    <contour>
      <point x="16" y="611" type="line"/>
      <point x="527" y="611" type="line"/>
      <point x="527" y="715" type="line"/>
      <point x="16" y="715" type="line"/>
    </contour>
    <contour>
      <point x="360" y="0" type="line"/>
      <point x="416" y="0" type="line" smooth="yes"/>
      <point x="583" y="0"/>
      <point x="673" y="78"/>
      <point x="673" y="224" type="curve" smooth="yes"/>
      <point x="673" y="367"/>
      <point x="584" y="449"/>
      <point x="428" y="449" type="curve" smooth="yes"/>
      <point x="348" y="449"/>
      <point x="278" y="428"/>
      <point x="219" y="386" type="curve"/>
      <point x="245" y="299" type="line"/>
      <point x="297" y="328"/>
      <point x="353" y="344"/>
      <point x="412" y="344" type="curve" smooth="yes"/>
      <point x="504" y="344"/>
      <point x="552" y="300"/>
      <point x="552" y="222" type="curve" smooth="yes"/>
      <point x="552" y="144"/>
      <point x="504" y="104"/>
      <point x="407" y="104" type="curve" smooth="yes"/>
      <point x="360" y="104" type="line"/>
    </contour>
    <contour>
      <point x="149" y="0" type="line"/>
      <point x="268" y="0" type="line"/>
      <point x="268" y="671" type="line"/>
      <point x="149" y="671" type="line"/>
    </contour>
  </outline>
</glyph>
<glyph name="Ieukrain" format="2">
	<unicode hex="0404"/>
	<advance width="722"/>
	<outline>
		<contour>
			<point x="407" y="-16" type="curve" smooth="yes"/>
			<point x="516" y="-16"/>
			<point x="619" y="34"/>
			<point x="679" y="118" type="curve"/>
			<point x="601" y="201" type="line"/>
			<point x="555" y="131"/>
			<point x="488" y="91"/>
			<point x="409" y="91" type="curve" smooth="yes"/>
			<point x="275" y="91"/>
			<point x="176" y="204"/>
			<point x="176" y="357" type="curve" smooth="yes"/>
			<point x="176" y="511"/>
			<point x="275" y="624"/>
			<point x="409" y="624" type="curve" smooth="yes"/>
			<point x="489" y="624"/>
			<point x="556" y="585"/>
			<point x="601" y="514" type="curve"/>
			<point x="679" y="597" type="line"/>
			<point x="618" y="683"/>
			<point x="521" y="731"/>
			<point x="411" y="731" type="curve" smooth="yes"/>
			<point x="207" y="731"/>
			<point x="57" y="572"/>
			<point x="57" y="357" type="curve" smooth="yes"/>
			<point x="57" y="141"/>
			<point x="203" y="-16"/>
		</contour>
		<contour>
			<point x="126" y="317" type="line"/>
			<point x="534" y="317" type="line"/>
			<point x="534" y="420" type="line"/>
			<point x="126" y="420" type="line"/>
		</contour>
	</outline>
</glyph>
<glyph name="Lje" format="1">
  <advance width="1061"/>
  <unicode hex="0409"/>
  <outline>
    <contour>
      <point x="36" y="0" type="line"/>
      <point x="110" y="0" type="line" smooth="yes"/>
      <point x="203" y="0"/>
      <point x="246" y="43"/>
      <point x="258" y="148" type="curve" smooth="yes"/>
      <point x="316" y="649" type="line"/>
      <point x="277" y="612" type="line"/>
      <point x="559" y="612" type="line"/>
      <point x="513" y="657" type="line"/>
      <point x="513" y="0" type="line"/>
      <point x="786" y="0" type="line" smooth="yes"/>
      <point x="928" y="0"/>
      <point x="1022" y="88"/>
      <point x="1022" y="220" type="curve" smooth="yes"/>
      <point x="1022" y="350"/>
      <point x="929" y="436"/>
      <point x="786" y="436" type="curve" smooth="yes"/>
      <point x="569" y="436" type="line"/>
      <point x="569" y="334" type="line"/>
      <point x="786" y="334" type="line" smooth="yes"/>
      <point x="857" y="334"/>
      <point x="901" y="290"/>
      <point x="901" y="221" type="curve" smooth="yes"/>
      <point x="901" y="146"/>
      <point x="857" y="102"/>
      <point x="786" y="102" type="curve" smooth="yes"/>
      <point x="587" y="102" type="line"/>
      <point x="632" y="58" type="line"/>
      <point x="632" y="715" type="line"/>
      <point x="206" y="715" type="line"/>
      <point x="143" y="156" type="line" smooth="yes"/>
      <point x="139" y="117"/>
      <point x="125" y="103"/>
      <point x="93" y="103" type="curve" smooth="yes"/>
      <point x="36" y="103" type="line"/>
    </contour>
  </outline>
</glyph>
<glyph name="Nje" format="1">
  <advance width="1080"/>
  <unicode hex="040A"/>
  <outline>
    <contour>
      <point x="94" y="0" type="line"/>
      <point x="213" y="0" type="line"/>
      <point x="213" y="715" type="line"/>
      <point x="94" y="715" type="line"/>
    </contour>
    <contour>
      <point x="166" y="321" type="line"/>
      <point x="561" y="321" type="line"/>
      <point x="561" y="424" type="line"/>
      <point x="166" y="424" type="line"/>
    </contour>
    <contour>
      <point x="520" y="0" type="line"/>
      <point x="803" y="0" type="line" smooth="yes"/>
      <point x="946" y="0"/>
      <point x="1041" y="86"/>
      <point x="1041" y="213" type="curve" smooth="yes"/>
      <point x="1041" y="341"/>
      <point x="947" y="424"/>
      <point x="803" y="424" type="curve" smooth="yes"/>
      <point x="575" y="424" type="line"/>
      <point x="575" y="322" type="line"/>
      <point x="804" y="322" type="line" smooth="yes"/>
      <point x="875" y="322"/>
      <point x="920" y="281"/>
      <point x="920" y="213" type="curve" smooth="yes"/>
      <point x="920" y="144"/>
      <point x="875" y="102"/>
      <point x="804" y="102" type="curve" smooth="yes"/>
      <point x="593" y="102" type="line"/>
      <point x="639" y="57" type="line"/>
      <point x="639" y="715" type="line"/>
      <point x="520" y="715" type="line"/>
    </contour>
  </outline>
</glyph>
<glyph name="Tshe" format="1">
  <advance width="721"/>
  <unicode hex="040B"/>
  <outline>
    <contour>
      <point x="16" y="611" type="line"/>
      <point x="527" y="611" type="line"/>
      <point x="527" y="715" type="line"/>
      <point x="16" y="715" type="line"/>
    </contour>
    <contour>
      <point x="554" y="1" type="line"/>
      <point x="673" y="1" type="line"/>
      <point x="673" y="226" type="line" smooth="yes"/>
      <point x="673" y="370"/>
      <point x="588" y="449"/>
      <point x="435" y="449" type="curve" smooth="yes"/>
      <point x="352" y="449"/>
      <point x="277" y="427"/>
      <point x="219" y="386" type="curve"/>
      <point x="245" y="299" type="line"/>
      <point x="298" y="327"/>
      <point x="359" y="344"/>
      <point x="413" y="344" type="curve" smooth="yes"/>
      <point x="505" y="344"/>
      <point x="554" y="298"/>
      <point x="554" y="211" type="curve" smooth="yes"/>
    </contour>
    <contour>
      <point x="149" y="0" type="line"/>
      <point x="268" y="0" type="line"/>
      <point x="268" y="666" type="line"/>
      <point x="149" y="666" type="line"/>
    </contour>
  </outline>
</glyph>
<glyph name="Dzhe" format="1">
  <advance width="746"/>
  <unicode hex="040F"/>
  <outline>
    <contour>
      <point x="94" y="0" type="line"/>
      <point x="652" y="0" type="line"/>
      <point x="652" y="715" type="line"/>
      <point x="533" y="715" type="line"/>
      <point x="533" y="78" type="line"/>
      <point x="558" y="103" type="line"/>
      <point x="188" y="103" type="line"/>
      <point x="213" y="78" type="line"/>
      <point x="213" y="715" type="line"/>
      <point x="94" y="715" type="line"/>
    </contour>
    <contour>
      <point x="316" y="-174" type="line"/>
      <point x="429" y="-174" type="line"/>
      <point x="429" y="64" type="line"/>
      <point x="316" y="64" type="line"/>
    </contour>
  </outline>
</glyph>
<glyph name="Be" format="2">
	<unicode hex="0411"/>
	<advance width="658"/>
	<outline>
		<contour>
			<point x="94" y="0" type="line"/>
			<point x="377" y="0" type="line" smooth="yes"/>
			<point x="520" y="0"/>
			<point x="614" y="86"/>
			<point x="614" y="213" type="curve" smooth="yes"/>
			<point x="614" y="340"/>
			<point x="521" y="423"/>
			<point x="377" y="423" type="curve" smooth="yes"/>
			<point x="163" y="423" type="line"/>
			<point x="163" y="322" type="line"/>
			<point x="378" y="322" type="line" smooth="yes"/>
			<point x="449" y="322"/>
			<point x="494" y="282"/>
			<point x="494" y="213" type="curve" smooth="yes"/>
			<point x="494" y="143"/>
			<point x="449" y="101"/>
			<point x="378" y="101" type="curve" smooth="yes"/>
			<point x="188" y="101" type="line"/>
			<point x="213" y="76" type="line"/>
			<point x="213" y="637" type="line"/>
			<point x="188" y="613" type="line"/>
			<point x="564" y="613" type="line"/>
			<point x="564" y="715" type="line"/>
			<point x="94" y="715" type="line"/>
		</contour>
	</outline>
</glyph>
<glyph name="Ghe" format="1">
  <advance width="544"/>
  <unicode hex="0413"/>
  <outline>
    <contour>
      <point x="94" y="0" type="line"/>
      <point x="213" y="0" type="line"/>
      <point x="213" y="654" type="line"/>
      <point x="169" y="611" type="line"/>
      <point x="529" y="611" type="line"/>
      <point x="529" y="715" type="line"/>
      <point x="94" y="715" type="line"/>
    </contour>
    <contour>
      <point x="318" y="750" type="move" name="top.UC"/>
    </contour>
  </outline>
</glyph>
<glyph name="De" format="2">
	<unicode hex="0414"/>
	<advance width="784"/>
	<outline>
		<contour>
			<point x="36" y="-174" type="line"/>
			<point x="149" y="-174" type="line"/>
			<point x="149" y="25" type="line"/>
			<point x="124" y="0" type="line"/>
			<point x="645" y="0" type="line"/>
			<point x="620" y="25" type="line"/>
			<point x="620" y="-174" type="line"/>
			<point x="733" y="-174" type="line"/>
			<point x="733" y="103" type="line"/>
			<point x="210" y="103" type="line"/>
			<point x="218" y="85" type="line"/>
			<point x="255" y="117"/>
			<point x="270" y="173"/>
			<point x="279" y="247" type="curve" smooth="yes"/>
			<point x="324" y="637" type="line"/>
			<point x="296" y="612" type="line"/>
			<point x="562" y="612" type="line"/>
			<point x="537" y="637" type="line"/>
			<point x="537" y="75" type="line"/>
			<point x="655" y="75" type="line"/>
			<point x="655" y="715" type="line"/>
			<point x="217" y="715" type="line"/>
			<point x="167" y="261" type="line" smooth="yes"/>
			<point x="156" y="162"/>
			<point x="139" y="104"/>
			<point x="105" y="103" type="curve"/>
			<point x="36" y="103" type="line"/>
		</contour>
	</outline>
</glyph>
<glyph name="Ie" format="1">
  <advance width="609"/>
  <unicode hex="0415"/>
  <outline>
    <component base="E"/>
    <contour>
      <point x="328" y="750" type="move" name="top.UC"/>
    </contour>
  </outline>
</glyph>
<glyph name="Zhe" format="2">
	<unicode hex="0416"/>
	<advance width="1047"/>
	<outline>
		<contour>
			<point x="27" y="0" type="line"/>
			<point x="181" y="0" type="line"/>
			<point x="492" y="372" type="line"/>
			<point x="477" y="372" type="line"/>
			<point x="196" y="715" type="line"/>
			<point x="50" y="715" type="line"/>
			<point x="341" y="370" type="line"/>
		</contour>
		<contour>
			<point x="464" y="0" type="line"/>
			<point x="583" y="0" type="line"/>
			<point x="583" y="715" type="line"/>
			<point x="464" y="715" type="line"/>
		</contour>
		<contour>
			<point x="867" y="0" type="line"/>
			<point x="1021" y="0" type="line"/>
			<point x="706" y="370" type="line"/>
			<point x="997" y="715" type="line"/>
			<point x="851" y="715" type="line"/>
			<point x="570" y="372" type="line"/>
			<point x="556" y="372" type="line"/>
		</contour>
	</outline>
</glyph>
<glyph name="Ze" format="2">
	<unicode hex="0417"/>
	<advance width="650"/>
	<outline>
		<contour>
			<point x="320" y="-16" type="curve" smooth="yes"/>
			<point x="477" y="-16"/>
			<point x="590" y="74"/>
			<point x="590" y="206" type="curve" smooth="yes"/>
			<point x="590" y="293"/>
			<point x="533" y="363"/>
			<point x="437" y="385" type="curve"/>
			<point x="437" y="369" type="line"/>
			<point x="521" y="392"/>
			<point x="571" y="459"/>
			<point x="571" y="537" type="curve" smooth="yes"/>
			<point x="571" y="651"/>
			<point x="471" y="731"/>
			<point x="319" y="731" type="curve" smooth="yes"/>
			<point x="206" y="731"/>
			<point x="120" y="689"/>
			<point x="52" y="599" type="curve"/>
			<point x="128" y="521" type="line"/>
			<point x="176" y="594"/>
			<point x="236" y="625"/>
			<point x="314" y="625" type="curve" smooth="yes"/>
			<point x="399" y="625"/>
			<point x="451" y="585"/>
			<point x="451" y="521" type="curve" smooth="yes"/>
			<point x="451" y="458"/>
			<point x="402" y="420"/>
			<point x="327" y="420" type="curve" smooth="yes"/>
			<point x="191" y="420" type="line"/>
			<point x="191" y="318" type="line"/>
			<point x="327" y="318" type="line" smooth="yes"/>
			<point x="416" y="318"/>
			<point x="470" y="280"/>
			<point x="470" y="212" type="curve" smooth="yes"/>
			<point x="470" y="137"/>
			<point x="410" y="90"/>
			<point x="318" y="90" type="curve" smooth="yes"/>
			<point x="233" y="90"/>
			<point x="160" y="125"/>
			<point x="112" y="196" type="curve"/>
			<point x="36" y="115" type="line"/>
			<point x="102" y="28"/>
			<point x="196" y="-16"/>
		</contour>
	</outline>
</glyph>
<glyph name="Icyr" format="2">
	<unicode hex="0418"/>
	<advance width="757"/>
	<outline>
		<contour>
			<point x="94" y="0" type="line"/>
			<point x="219" y="0" type="line"/>
			<point x="583" y="595" type="line"/>
			<point x="544" y="598" type="line"/>
			<point x="544" y="0" type="line"/>
			<point x="663" y="0" type="line"/>
			<point x="663" y="715" type="line"/>
			<point x="537" y="715" type="line"/>
			<point x="170" y="118" type="line"/>
			<point x="213" y="109" type="line"/>
			<point x="213" y="715" type="line"/>
			<point x="94" y="715" type="line"/>
		</contour>
	</outline>
	<anchor name="top.UC" x="382" y="750"/>
</glyph>
<glyph name="El" format="1">
  <advance width="735"/>
  <unicode hex="041B"/>
  <outline>
    <contour>
      <point x="36" y="0" type="line"/>
      <point x="110" y="0" type="line" smooth="yes"/>
      <point x="202" y="0"/>
      <point x="245" y="42"/>
      <point x="257" y="148" type="curve" smooth="yes"/>
      <point x="316" y="653" type="line"/>
      <point x="279" y="612" type="line"/>
      <point x="557" y="612" type="line"/>
      <point x="523" y="653" type="line"/>
      <point x="523" y="0" type="line"/>
      <point x="642" y="0" type="line"/>
      <point x="642" y="715" type="line"/>
      <point x="206" y="715" type="line"/>
      <point x="143" y="156" type="line" smooth="yes"/>
      <point x="139" y="117"/>
      <point x="126" y="104"/>
      <point x="94" y="104" type="curve" smooth="yes"/>
      <point x="36" y="104" type="line"/>
    </contour>
  </outline>
</glyph>
<glyph name="Pe" format="2">
	<unicode hex="041F"/>
	<advance width="750"/>
	<outline>
		<contour>
			<point x="94" y="0" type="line"/>
			<point x="213" y="0" type="line"/>
			<point x="213" y="695" type="line"/>
			<point x="146" y="611" type="line"/>
			<point x="600" y="611" type="line"/>
			<point x="538" y="695" type="line"/>
			<point x="538" y="0" type="line"/>
			<point x="657" y="0" type="line"/>
			<point x="657" y="715" type="line"/>
			<point x="94" y="715" type="line"/>
		</contour>
	</outline>
</glyph>
<glyph name="Ucyr" format="2">
	<unicode hex="0423"/>
	<advance width="651"/>
	<outline>
		<contour>
			<point x="75" y="0" type="line"/>
			<point x="167" y="0" type="line" smooth="yes"/>
			<point x="268" y="0"/>
			<point x="321" y="41"/>
			<point x="372" y="151" type="curve" smooth="yes"/>
			<point x="630" y="715" type="line"/>
			<point x="509" y="715" type="line"/>
			<point x="290" y="218" type="line" smooth="yes"/>
			<point x="251" y="129"/>
			<point x="223" y="104"/>
			<point x="162" y="104" type="curve" smooth="yes"/>
			<point x="75" y="104" type="line"/>
		</contour>
		<contour>
			<point x="283" y="158" type="line"/>
			<point x="373" y="215" type="line"/>
			<point x="142" y="715" type="line"/>
			<point x="21" y="715" type="line"/>
		</contour>
	</outline>
	<anchor name="top.UC" x="325" y="750"/>
</glyph>
<glyph name="Ef" format="1">
  <advance width="848"/>
  <unicode hex="0424"/>
  <outline>
    <contour>
      <point x="424" y="72" type="curve" smooth="yes"/>
      <point x="663" y="72"/>
      <point x="792" y="172"/>
      <point x="792" y="358" type="curve" smooth="yes"/>
      <point x="792" y="543"/>
      <point x="663" y="643"/>
      <point x="424" y="643" type="curve" smooth="yes"/>
      <point x="185" y="643"/>
      <point x="55" y="543"/>
      <point x="55" y="358" type="curve" smooth="yes"/>
      <point x="55" y="172"/>
      <point x="184" y="72"/>
    </contour>
    <contour>
      <point x="424" y="173" type="curve" smooth="yes"/>
      <point x="252" y="173"/>
      <point x="174" y="231"/>
      <point x="174" y="358" type="curve" smooth="yes"/>
      <point x="174" y="484"/>
      <point x="253" y="542"/>
      <point x="424" y="542" type="curve" smooth="yes"/>
      <point x="596" y="542"/>
      <point x="674" y="484"/>
      <point x="674" y="358" type="curve" smooth="yes"/>
      <point x="674" y="232"/>
      <point x="594" y="173"/>
    </contour>
    <contour>
      <point x="365" y="-32" type="line"/>
      <point x="483" y="-32" type="line"/>
      <point x="483" y="107" type="line"/>
      <point x="479" y="151" type="line"/>
      <point x="479" y="569" type="line"/>
      <point x="483" y="608" type="line"/>
      <point x="483" y="747" type="line"/>
      <point x="365" y="747" type="line"/>
      <point x="365" y="608" type="line"/>
      <point x="368" y="569" type="line"/>
      <point x="368" y="151" type="line"/>
      <point x="365" y="107" type="line"/>
    </contour>
  </outline>
</glyph>
<glyph name="Tse" format="2">
	<unicode hex="0426"/>
	<advance width="781"/>
	<outline>
		<contour>
			<point x="653" y="64" type="line"/>
			<point x="653" y="715" type="line"/>
			<point x="534" y="715" type="line"/>
			<point x="534" y="64" type="line"/>
		</contour>
		<contour>
			<point x="617" y="-174" type="line"/>
			<point x="730" y="-174" type="line"/>
			<point x="730" y="103" type="line"/>
			<point x="188" y="103" type="line"/>
			<point x="213" y="78" type="line"/>
			<point x="213" y="715" type="line"/>
			<point x="94" y="715" type="line"/>
			<point x="94" y="0" type="line"/>
			<point x="642" y="0" type="line"/>
			<point x="617" y="25" type="line"/>
		</contour>
	</outline>
</glyph>
<glyph name="Che" format="2">
	<unicode hex="0427"/>
	<advance width="671"/>
	<outline>
		<contour>
			<point x="458" y="0" type="line"/>
			<point x="577" y="0" type="line"/>
			<point x="577" y="715" type="line"/>
			<point x="458" y="715" type="line"/>
		</contour>
		<contour>
			<point x="293" y="257" type="curve" smooth="yes"/>
			<point x="379" y="257"/>
			<point x="454" y="284"/>
			<point x="507" y="336" type="curve"/>
			<point x="473" y="411" type="line"/>
			<point x="431" y="380"/>
			<point x="369" y="361"/>
			<point x="311" y="361" type="curve" smooth="yes"/>
			<point x="220" y="361"/>
			<point x="172" y="407"/>
			<point x="172" y="494" type="curve" smooth="yes"/>
			<point x="172" y="715" type="line"/>
			<point x="53" y="715" type="line"/>
			<point x="53" y="480" type="line" smooth="yes"/>
			<point x="53" y="338"/>
			<point x="141" y="257"/>
		</contour>
	</outline>
</glyph>
<glyph name="Sha" format="2">
	<unicode hex="0428"/>
	<advance width="1079"/>
	<outline>
		<contour>
			<point x="94" y="0" type="line"/>
			<point x="986" y="0" type="line"/>
			<point x="986" y="715" type="line"/>
			<point x="867" y="715" type="line"/>
			<point x="867" y="59" type="line"/>
			<point x="904" y="103" type="line"/>
			<point x="550" y="103" type="line"/>
			<point x="599" y="59" type="line"/>
			<point x="599" y="715" type="line"/>
			<point x="480" y="715" type="line"/>
			<point x="480" y="59" type="line"/>
			<point x="530" y="103" type="line"/>
			<point x="176" y="103" type="line"/>
			<point x="213" y="59" type="line"/>
			<point x="213" y="715" type="line"/>
			<point x="94" y="715" type="line"/>
		</contour>
	</outline>
</glyph>
<glyph name="Shcha" format="2">
	<unicode hex="0429"/>
	<advance width="1114"/>
	<outline>
		<contour>
			<point x="599" y="56" type="line"/>
			<point x="599" y="715" type="line"/>
			<point x="480" y="715" type="line"/>
			<point x="480" y="56" type="line"/>
		</contour>
		<contour>
			<point x="986" y="59" type="line"/>
			<point x="986" y="715" type="line"/>
			<point x="867" y="715" type="line"/>
			<point x="867" y="59" type="line"/>
		</contour>
		<contour>
			<point x="950" y="-174" type="line"/>
			<point x="1063" y="-174" type="line"/>
			<point x="1063" y="103" type="line"/>
			<point x="188" y="103" type="line"/>
			<point x="213" y="78" type="line"/>
			<point x="213" y="715" type="line"/>
			<point x="94" y="715" type="line"/>
			<point x="94" y="0" type="line"/>
			<point x="975" y="0" type="line"/>
			<point x="950" y="25" type="line"/>
		</contour>
	</outline>
</glyph>
<glyph name="Hard" format="2">
	<unicode hex="042A"/>
	<advance width="709"/>
	<outline>
		<contour>
			<point x="149" y="0" type="line"/>
			<point x="432" y="0" type="line" smooth="yes"/>
			<point x="575" y="0"/>
			<point x="669" y="87"/>
			<point x="669" y="219" type="curve" smooth="yes"/>
			<point x="669" y="350"/>
			<point x="576" y="436"/>
			<point x="432" y="436" type="curve" smooth="yes"/>
			<point x="218" y="436" type="line"/>
			<point x="218" y="334" type="line"/>
			<point x="433" y="334" type="line" smooth="yes"/>
			<point x="504" y="334"/>
			<point x="548" y="290"/>
			<point x="548" y="219" type="curve" smooth="yes"/>
			<point x="548" y="146"/>
			<point x="504" y="102"/>
			<point x="433" y="102" type="curve" smooth="yes"/>
			<point x="243" y="102" type="line"/>
			<point x="268" y="77" type="line"/>
			<point x="268" y="715" type="line"/>
			<point x="16" y="715" type="line"/>
			<point x="16" y="611" type="line"/>
			<point x="174" y="611" type="line"/>
			<point x="149" y="636" type="line"/>
		</contour>
	</outline>
</glyph>
<glyph name="Soft" format="1">
  <advance width="653"/>
  <unicode hex="042C"/>
  <outline>
    <contour>
      <point x="94" y="0" type="line"/>
      <point x="377" y="0" type="line" smooth="yes"/>
      <point x="520" y="0"/>
      <point x="614" y="87"/>
      <point x="614" y="219" type="curve" smooth="yes"/>
      <point x="614" y="350"/>
      <point x="521" y="436"/>
      <point x="377" y="436" type="curve" smooth="yes"/>
      <point x="149" y="436" type="line"/>
      <point x="149" y="334" type="line"/>
      <point x="378" y="334" type="line" smooth="yes"/>
      <point x="449" y="334"/>
      <point x="493" y="290"/>
      <point x="493" y="219" type="curve" smooth="yes"/>
      <point x="493" y="146"/>
      <point x="449" y="102"/>
      <point x="378" y="102" type="curve" smooth="yes"/>
      <point x="196" y="102" type="line"/>
      <point x="213" y="85" type="line"/>
      <point x="213" y="715" type="line"/>
      <point x="94" y="715" type="line"/>
    </contour>
  </outline>
</glyph>
<glyph name="Ecyr" format="1">
  <advance width="721"/>
  <unicode hex="042D"/>
  <outline>
    <contour>
      <point x="318" y="-16" type="curve" smooth="yes"/>
      <point x="521" y="-16"/>
      <point x="664" y="133"/>
      <point x="664" y="357" type="curve" smooth="yes"/>
      <point x="664" y="580"/>
      <point x="517" y="731"/>
      <point x="313" y="731" type="curve" smooth="yes"/>
      <point x="204" y="731"/>
      <point x="103" y="683"/>
      <point x="42" y="597" type="curve"/>
      <point x="120" y="514" type="line"/>
      <point x="166" y="585"/>
      <point x="235" y="624"/>
      <point x="315" y="624" type="curve" smooth="yes"/>
      <point x="450" y="624"/>
      <point x="545" y="520"/>
      <point x="545" y="357" type="curve" smooth="yes"/>
      <point x="545" y="195"/>
      <point x="450" y="91"/>
      <point x="315" y="91" type="curve" smooth="yes"/>
      <point x="237" y="91"/>
      <point x="166" y="131"/>
      <point x="120" y="201" type="curve"/>
      <point x="42" y="118" type="line"/>
      <point x="102" y="34"/>
      <point x="208" y="-16"/>
    </contour>
    <contour>
      <point x="187" y="317" type="line"/>
      <point x="595" y="317" type="line"/>
      <point x="595" y="420" type="line"/>
      <point x="187" y="420" type="line"/>
    </contour>
  </outline>
</glyph>
<glyph name="Yu" format="1">
  <advance width="1049"/>
  <unicode hex="042E"/>
  <outline>
    <contour>
      <point x="94" y="0" type="line"/>
      <point x="213" y="0" type="line"/>
      <point x="213" y="715" type="line"/>
      <point x="94" y="715" type="line"/>
    </contour>
    <contour>
      <point x="653" y="-16" type="curve" smooth="yes"/>
      <point x="852" y="-16"/>
      <point x="992" y="140"/>
      <point x="992" y="358" type="curve" smooth="yes"/>
      <point x="992" y="575"/>
      <point x="852" y="731"/>
      <point x="653" y="731" type="curve" smooth="yes"/>
      <point x="456" y="731"/>
      <point x="315" y="575"/>
      <point x="315" y="358" type="curve" smooth="yes"/>
      <point x="315" y="140"/>
      <point x="456" y="-16"/>
    </contour>
    <contour>
      <point x="653" y="91" type="curve" smooth="yes"/>
      <point x="528" y="91"/>
      <point x="438" y="200"/>
      <point x="438" y="358" type="curve" smooth="yes"/>
      <point x="438" y="515"/>
      <point x="528" y="624"/>
      <point x="653" y="624" type="curve" smooth="yes"/>
      <point x="780" y="624"/>
      <point x="869" y="515"/>
      <point x="869" y="358" type="curve" smooth="yes"/>
      <point x="869" y="200"/>
      <point x="780" y="91"/>
    </contour>
    <contour>
      <point x="167" y="317" type="line"/>
      <point x="393" y="317" type="line"/>
      <point x="393" y="420" type="line"/>
      <point x="167" y="420" type="line"/>
    </contour>
  </outline>
</glyph>
<glyph name="Ya" format="1">
  <advance width="683"/>
  <unicode hex="042F"/>
  <outline>
    <contour>
      <point x="470" y="0" type="line"/>
      <point x="589" y="0" type="line"/>
      <point x="589" y="715" type="line"/>
      <point x="318" y="715" type="line" smooth="yes"/>
      <point x="177" y="715"/>
      <point x="82" y="629"/>
      <point x="82" y="501" type="curve" smooth="yes"/>
      <point x="82" y="374"/>
      <point x="177" y="288"/>
      <point x="318" y="288" type="curve" smooth="yes"/>
      <point x="486" y="288" type="line"/>
      <point x="486" y="390" type="line"/>
      <point x="318" y="390" type="line" smooth="yes"/>
      <point x="247" y="390"/>
      <point x="202" y="431"/>
      <point x="202" y="501" type="curve" smooth="yes"/>
      <point x="202" y="571"/>
      <point x="247" y="613"/>
      <point x="318" y="613" type="curve" smooth="yes"/>
      <point x="470" y="613" type="line"/>
    </contour>
    <contour>
      <point x="35" y="0" type="line"/>
      <point x="175" y="0" type="line"/>
      <point x="390" y="333" type="line"/>
      <point x="259" y="333" type="line"/>
    </contour>
  </outline>
</glyph>
<glyph name="be" format="2">
	<unicode hex="0431"/>
	<advance width="593"/>
	<outline>
		<contour>
			<point x="302" y="-16" type="curve" smooth="yes"/>
			<point x="449" y="-16"/>
			<point x="546" y="86"/>
			<point x="546" y="242" type="curve" smooth="yes"/>
			<point x="546" y="384"/>
			<point x="462" y="477"/>
			<point x="332" y="477" type="curve" smooth="yes"/>
			<point x="229" y="477"/>
			<point x="150" y="413"/>
			<point x="133" y="316" type="curve"/>
			<point x="156" y="348" type="line"/>
			<point x="161" y="513"/>
			<point x="195" y="570"/>
			<point x="297" y="587" type="curve" smooth="yes"/>
			<point x="502" y="620" type="line"/>
			<point x="488" y="720" type="line"/>
			<point x="280" y="689" type="line" smooth="yes"/>
			<point x="120" y="666"/>
			<point x="50" y="558"/>
			<point x="50" y="337" type="curve" smooth="yes"/>
			<point x="50" y="110"/>
			<point x="140" y="-16"/>
		</contour>
		<contour>
			<point x="297" y="83" type="curve" smooth="yes"/>
			<point x="198" y="83"/>
			<point x="170" y="175"/>
			<point x="170" y="302" type="curve"/>
			<point x="149" y="283" type="line"/>
			<point x="161" y="251" type="line"/>
			<point x="178" y="330"/>
			<point x="232" y="380"/>
			<point x="304" y="380" type="curve" smooth="yes"/>
			<point x="381" y="380"/>
			<point x="425" y="328"/>
			<point x="425" y="235" type="curve" smooth="yes"/>
			<point x="425" y="141"/>
			<point x="378" y="83"/>
		</contour>
	</outline>
</glyph>
<glyph name="ve" format="1">
  <advance width="553"/>
  <unicode hex="0432"/>
  <outline>
    <contour>
      <point x="75" y="0" type="line"/>
      <point x="331" y="0" type="line" smooth="yes"/>
      <point x="438" y="0"/>
      <point x="512" y="59"/>
      <point x="512" y="144" type="curve" smooth="yes"/>
      <point x="512" y="201"/>
      <point x="474" y="247"/>
      <point x="410" y="266" type="curve"/>
      <point x="410" y="257" type="line"/>
      <point x="461" y="276"/>
      <point x="491" y="316"/>
      <point x="491" y="367" type="curve" smooth="yes"/>
      <point x="491" y="450"/>
      <point x="420" y="500"/>
      <point x="316" y="500" type="curve" smooth="yes"/>
      <point x="75" y="500" type="line"/>
    </contour>
    <contour>
      <point x="156" y="87" type="line"/>
      <point x="182" y="62" type="line"/>
      <point x="182" y="438" type="line"/>
      <point x="156" y="413" type="line"/>
      <point x="302" y="413" type="line" smooth="yes"/>
      <point x="350" y="413"/>
      <point x="376" y="396"/>
      <point x="376" y="356" type="curve" smooth="yes"/>
      <point x="376" y="317"/>
      <point x="348" y="298"/>
      <point x="302" y="298" type="curve" smooth="yes"/>
      <point x="138" y="298" type="line"/>
      <point x="138" y="218" type="line"/>
      <point x="317" y="218" type="line" smooth="yes"/>
      <point x="370" y="218"/>
      <point x="398" y="194"/>
      <point x="398" y="152" type="curve" smooth="yes"/>
      <point x="398" y="110"/>
      <point x="370" y="87"/>
      <point x="317" y="87" type="curve" smooth="yes"/>
    </contour>
  </outline>
</glyph>
<glyph name="ghe" format="2">
	<unicode hex="0433"/>
	<advance width="442"/>
	<outline>
		<contour>
			<point x="75" y="0" type="line"/>
			<point x="191" y="0" type="line"/>
			<point x="191" y="440" type="line"/>
			<point x="155" y="405" type="line"/>
			<point x="422" y="405" type="line"/>
			<point x="422" y="500" type="line"/>
			<point x="75" y="500" type="line"/>
		</contour>
	</outline>
	<anchor name="top.LC" x="246" y="544"/>
</glyph>
<glyph name="de" format="1">
  <advance width="607"/>
  <unicode hex="0434"/>
  <outline>
    <contour>
      <point x="16" y="-135" type="line"/>
      <point x="125" y="-135" type="line"/>
      <point x="125" y="25" type="line"/>
      <point x="100" y="0" type="line"/>
      <point x="488" y="0" type="line"/>
      <point x="463" y="25" type="line"/>
      <point x="463" y="-135" type="line"/>
      <point x="572" y="-135" type="line"/>
      <point x="572" y="95" type="line"/>
      <point x="171" y="95" type="line"/>
      <point x="180" y="76" type="line"/>
      <point x="203" y="96"/>
      <point x="216" y="130"/>
      <point x="222" y="184" type="curve" smooth="yes"/>
      <point x="249" y="431" type="line"/>
      <point x="221" y="406" type="line"/>
      <point x="412" y="406" type="line"/>
      <point x="387" y="431" type="line"/>
      <point x="387" y="63" type="line"/>
      <point x="500" y="63" type="line"/>
      <point x="500" y="500" type="line"/>
      <point x="143" y="500" type="line"/>
      <point x="112" y="193" type="line" smooth="yes"/>
      <point x="104" y="115"/>
      <point x="92" y="95"/>
      <point x="57" y="95" type="curve" smooth="yes"/>
      <point x="16" y="95" type="line"/>
    </contour>
  </outline>
</glyph>
<glyph name="ie" format="1">
  <advance width="580"/>
  <unicode hex="0435"/>
  <outline>
    <component base="e"/>
    <contour>
      <point x="294" y="544" type="move" name="top.LC"/>
    </contour>
  </outline>
</glyph>
<glyph name="ze" format="2">
	<unicode hex="0437"/>
	<advance width="510"/>
	<outline>
		<contour>
			<point x="248" y="-16" type="curve" smooth="yes"/>
			<point x="371" y="-16"/>
			<point x="462" y="53"/>
			<point x="462" y="146" type="curve" smooth="yes"/>
			<point x="462" y="206"/>
			<point x="425" y="251"/>
			<point x="355" y="273" type="curve"/>
			<point x="355" y="256" type="line"/>
			<point x="419" y="277"/>
			<point x="450" y="314"/>
			<point x="450" y="372" type="curve" smooth="yes"/>
			<point x="450" y="456"/>
			<point x="365" y="516"/>
			<point x="245" y="516" type="curve" smooth="yes"/>
			<point x="160" y="516"/>
			<point x="92" y="486"/>
			<point x="37" y="424" type="curve"/>
			<point x="102" y="354" type="line"/>
			<point x="138" y="400"/>
			<point x="184" y="422"/>
			<point x="240" y="422" type="curve" smooth="yes"/>
			<point x="299" y="422"/>
			<point x="336" y="398"/>
			<point x="336" y="357" type="curve" smooth="yes"/>
			<point x="336" y="318"/>
			<point x="307" y="298"/>
			<point x="253" y="298" type="curve" smooth="yes"/>
			<point x="156" y="298" type="line"/>
			<point x="156" y="213" type="line"/>
			<point x="253" y="213" type="line" smooth="yes"/>
			<point x="316" y="213"/>
			<point x="347" y="193"/>
			<point x="347" y="151" type="curve" smooth="yes"/>
			<point x="347" y="105"/>
			<point x="307" y="78"/>
			<point x="240" y="78" type="curve" smooth="yes"/>
			<point x="177" y="78"/>
			<point x="128" y="101"/>
			<point x="90" y="150" type="curve"/>
			<point x="25" y="79" type="line"/>
			<point x="80" y="15"/>
			<point x="152" y="-16"/>
		</contour>
	</outline>
</glyph>
<glyph name="icyr" format="2">
	<unicode hex="0438"/>
	<advance width="601"/>
	<outline>
		<contour>
			<point x="75" y="0" type="line"/>
			<point x="177" y="0" type="line"/>
			<point x="421" y="341" type="line"/>
			<point x="414" y="347" type="line"/>
			<point x="414" y="0" type="line"/>
			<point x="526" y="0" type="line"/>
			<point x="526" y="500" type="line"/>
			<point x="423" y="500" type="line"/>
			<point x="179" y="159" type="line"/>
			<point x="186" y="153" type="line"/>
			<point x="186" y="500" type="line"/>
			<point x="75" y="500" type="line"/>
		</contour>
	</outline>
	<anchor name="top.LC" x="307" y="544"/>
</glyph>
<glyph name="ka" format="2">
	<unicode hex="043A"/>
	<advance width="548"/>
	<outline>
		<contour>
			<point x="75" y="0" type="line"/>
			<point x="191" y="0" type="line"/>
			<point x="191" y="500" type="line"/>
			<point x="75" y="500" type="line"/>
		</contour>
		<contour>
			<point x="391" y="0" type="line"/>
			<point x="539" y="0" type="line"/>
			<point x="272" y="288" type="line"/>
			<point x="284" y="236" type="line"/>
			<point x="518" y="500" type="line"/>
			<point x="378" y="500" type="line"/>
			<point x="167" y="260" type="line"/>
			<point x="157" y="260" type="line"/>
		</contour>
	</outline>
	<anchor name="top.LC" x="279" y="544"/>
</glyph>
<glyph name="el" format="2">
	<unicode hex="043B"/>
	<advance width="583"/>
	<outline>
		<contour>
			<point x="29" y="0" type="line"/>
			<point x="84" y="0" type="line" smooth="yes"/>
			<point x="173" y="0"/>
			<point x="213" y="32"/>
			<point x="222" y="131" type="curve" smooth="yes"/>
			<point x="249" y="424" type="line"/>
			<point x="229" y="405" type="line"/>
			<point x="412" y="405" type="line"/>
			<point x="392" y="425" type="line"/>
			<point x="392" y="0" type="line"/>
			<point x="508" y="0" type="line"/>
			<point x="508" y="500" type="line"/>
			<point x="144" y="500" type="line"/>
			<point x="114" y="153" type="line" smooth="yes"/>
			<point x="111" y="112"/>
			<point x="96" y="97"/>
			<point x="66" y="97" type="curve" smooth="yes"/>
			<point x="29" y="97" type="line"/>
		</contour>
	</outline>
</glyph>
<glyph name="em" format="1">
  <advance width="709"/>
  <unicode hex="043C"/>
  <outline>
    <contour>
      <point x="75" y="0" type="line"/>
      <point x="177" y="0" type="line"/>
      <point x="177" y="353" type="line"/>
      <point x="167" y="351" type="line"/>
      <point x="311" y="50" type="line"/>
      <point x="392" y="50" type="line"/>
      <point x="540" y="359" type="line"/>
      <point x="529" y="361" type="line"/>
      <point x="529" y="0" type="line"/>
      <point x="634" y="0" type="line"/>
      <point x="634" y="500" type="line"/>
      <point x="509" y="500" type="line"/>
      <point x="338" y="143" type="line"/>
      <point x="369" y="143" type="line"/>
      <point x="196" y="500" type="line"/>
      <point x="75" y="500" type="line"/>
    </contour>
  </outline>
</glyph>
<glyph name="en" format="1">
  <advance width="598"/>
  <unicode hex="043D"/>
  <outline>
    <contour>
      <point x="75" y="0" type="line"/>
      <point x="191" y="0" type="line"/>
      <point x="191" y="500" type="line"/>
      <point x="75" y="500" type="line"/>
    </contour>
    <contour>
      <point x="407" y="0" type="line"/>
      <point x="523" y="0" type="line"/>
      <point x="523" y="500" type="line"/>
      <point x="407" y="500" type="line"/>
    </contour>
    <contour>
      <point x="127" y="215" type="line"/>
      <point x="476" y="215" type="line"/>
      <point x="476" y="310" type="line"/>
      <point x="127" y="310" type="line"/>
    </contour>
  </outline>
</glyph>
